<?xml version="1.0" encoding="UTF-8" standalone="no"?>
<!-- Created with Inkscape (http://www.inkscape.org/) -->

<svg
   xmlns:dc="http://purl.org/dc/elements/1.1/"
   xmlns:cc="http://creativecommons.org/ns#"
   xmlns:rdf="http://www.w3.org/1999/02/22-rdf-syntax-ns#"
   xmlns:svg="http://www.w3.org/2000/svg"
   xmlns="http://www.w3.org/2000/svg"
   xmlns:sodipodi="http://sodipodi.sourceforge.net/DTD/sodipodi-0.dtd"
   xmlns:inkscape="http://www.inkscape.org/namespaces/inkscape"
   width="210mm"
   height="297mm"
   id="svg2"
   version="1.1"
   inkscape:version="0.48.4 r9939"
   sodipodi:docname="Új dokumentum 1">
  <defs
     id="defs4" />
  <sodipodi:namedview
     id="base"
     pagecolor="#ffffff"
     bordercolor="#666666"
     borderopacity="1.0"
     inkscape:pageopacity="0.0"
     inkscape:pageshadow="2"
     inkscape:zoom="4.2459552"
     inkscape:cx="152.72142"
     inkscape:cy="742.69352"
     inkscape:document-units="px"
     inkscape:current-layer="layer1"
     showgrid="false"
     inkscape:window-width="1342"
     inkscape:window-height="744"
     inkscape:window-x="10"
     inkscape:window-y="10"
     inkscape:window-maximized="0" />
  <metadata
     id="metadata7">
    <rdf:RDF>
      <cc:Work
         rdf:about="">
        <dc:format>image/svg+xml</dc:format>
        <dc:type
           rdf:resource="http://purl.org/dc/dcmitype/StillImage" />
        <dc:title></dc:title>
      </cc:Work>
    </rdf:RDF>
  </metadata>
  <g
     inkscape:label="1. réteg"
     inkscape:groupmode="layer"
     id="layer1">
    <rect
       style="fill:#000000;fill-opacity:1;stroke:none"
       id="rect3007"
       width="193.00572"
       height="85.764297"
       x="47.962528"
       y="248.32367"
       ry="6.2741108" />
    <text
       xml:space="preserve"
       style="font-size:12px;font-style:normal;font-variant:normal;font-weight:normal;font-stretch:normal;text-align:start;line-height:125%;letter-spacing:0px;word-spacing:0px;text-anchor:start;fill:#000000;fill-opacity:1;stroke:none;font-family:Droid Sans Mono;-inkscape-font-specification:Droid Sans Mono"
       x="66.220886"
       y="267.64191"
       id="text2985"
       sodipodi:linespacing="125%"><tspan
         sodipodi:role="line"
         id="tspan2987"
         x="66.220886"
         y="267.64191"
         style="fill:#ffffff">SE<tspan
   style="fill:#00ff00"
   id="tspan3009">C</tspan>URITY</tspan><tspan
         sodipodi:role="line"
         x="66.220886"
         y="282.64191"
         id="tspan2993"
         style="fill:#ffffff"> H<tspan
   style="fill:#00ff00"
   id="tspan3011">A</tspan>CKING</tspan><tspan
         sodipodi:role="line"
         x="66.220886"
         y="297.64191"
         id="tspan2991"
         style="fill:#ffffff"><tspan
   style="fill:#00ff00"
   id="tspan3013">  M</tspan>ATE </tspan><tspan
         sodipodi:role="line"
         x="66.220886"
         y="312.64191"
         id="tspan2989"
         style="fill:#ffffff"><tspan
   style="fill:#00ff00"
   id="tspan3015">  P</tspan>RIVACY</tspan><tspan
         sodipodi:role="line"
         x="66.220886"
         y="327.64191"
         style="fill:#ffffff"
         id="tspan3017" /></text>
    <text
       xml:space="preserve"
       style="font-size:12px;font-style:normal;font-variant:normal;font-weight:normal;font-stretch:normal;text-align:center;line-height:125%;letter-spacing:0px;word-spacing:0px;text-anchor:middle;fill:#00ff00;fill-opacity:1;stroke:none;font-family:Droid Sans Mono;-inkscape-font-specification:Droid Sans Mono"
       x="82.017776"
       y="322.11035"
       id="text3019"
       sodipodi:linespacing="125%"><tspan
         sodipodi:role="line"
         id="tspan3021"
         x="82.017776"
         y="322.11035">+</tspan></text>
    <text
       sodipodi:linespacing="125%"
       id="text3023"
       y="325.87863"
       x="85.668312"
       style="font-size:12px;font-style:normal;font-variant:normal;font-weight:normal;font-stretch:normal;text-align:center;line-height:125%;letter-spacing:0px;word-spacing:0px;text-anchor:middle;fill:#00ff00;fill-opacity:1;stroke:none;font-family:Droid Sans Mono;-inkscape-font-specification:Droid Sans Mono"
       xml:space="preserve"><tspan
         y="325.87863"
         x="85.668312"
         id="tspan3025"
         sodipodi:role="line">+</tspan></text>
    <path
       inkscape:connector-curvature="0"
       style="fill:#b3b3b3;stroke:none"
       d="m 183.77386,259.15168 -40.57644,54.53766 13.33375,0 27.29498,-36.07957 27.39956,36.07957 13.33375,0 -40.7856,-54.53766 z"
       id="path3038" />
    <path
       style="fill:#666666;stroke:none"
       d="m 183.82615,280.53797 -25.30799,33.46511 13.33376,0 -0.31374,0.57518 7.47736,2.82362 -7.47736,2.8759 0.9935,1.83013 0.67976,1.25494 10.667,-4.07856 10.77158,4.07856 1.25494,-3.24193 -7.11133,-2.71904 7.11133,-2.71904 -0.26144,-0.67976 13.5952,0 z"
       id="path3040"
       inkscape:connector-curvature="0"
       sodipodi:nodetypes="cccccccccccccccc" />
    <path
       style="fill:#ffffff;stroke:none"
       d="m 175.98941,313.30655 c -1.20687,-1.37928 -1.98805,-6.09015 0.69664,-10.44968 0.074,2.31523 0.73347,3.15892 1.25396,3.20457 1.7241,-1.0591 -0.81642,-5.71514 2.08994,-8.91706 -0.22167,2.26597 0.46816,3.76753 1.11464,3.76188 2.24134,-0.73891 -1.03656,-5.54541 3.62255,-7.80243 -1.42854,3.96545 2.38912,5.35342 0,9.19571 1.87189,0.98522 2.29828,-2.41855 2.9259,-3.90121 3.1773,1.89652 0.14491,6.02135 1.67195,7.52378 1.33002,-0.34483 1.08928,-3.40861 1.53262,-3.90121 3.62063,4.48268 1.59256,9.96334 0.13938,11.5643 l -2.08993,0.27866 c 0.76354,-2.21671 -0.35181,-4.81735 -0.91831,-5.507 -0.54187,0.3202 0.0982,1.80998 -0.89297,2.1631 -0.96058,-0.8128 0.86424,-3.16158 -1.25395,-4.31919 0.074,1.2315 -0.54565,2.50649 -1.11464,2.36859 0.76354,-2.58616 -0.63341,-2.80362 -0.55731,-5.15518 -2.80784,1.133 -0.65368,3.17003 -1.81128,4.17988 -0.66502,-0.14775 -0.41296,-1.92963 -0.97531,-1.95062 -1.97041,2.68469 0.63411,3.67738 -1.11462,5.15519 -0.41872,-0.19705 -0.0648,-1.35949 -0.55733,-1.95062 -1.00984,0.5665 -1.24624,3.83361 -0.97531,5.01585 z"
       id="path3049"
       inkscape:connector-curvature="0"
       sodipodi:nodetypes="ccccccccccccccccccccccc" />
  </g>
</svg>
