<?xml version="1.0" encoding="UTF-8" ?>
<!DOCTYPE svg PUBLIC "-//W3C//DTD SVG 1.1//EN" "http://www.w3.org/Graphics/SVG/1.1/DTD/svg11.dtd">
<svg width="300pt" height="300pt" viewBox="0 0 300 300" version="1.1" xmlns="http://www.w3.org/2000/svg">
<g id="#ffffffff">
<path fill="#ffffff" opacity="1.00" d=" M 0.00 0.00 L 300.00 0.00 L 300.00 300.00 L 0.00 300.00 L 0.00 0.00 M 103.19 16.36 C 75.32 25.51 50.30 43.09 32.25 66.21 C 13.32 90.32 1.86 120.39 0.78 151.08 C -1.06 188.33 11.70 226.09 35.86 254.54 L 36.11 254.50 C 37.88 257.44 40.54 259.67 42.90 262.12 C 45.95 265.01 48.54 268.88 53.02 269.55 C 52.31 272.21 51.67 274.89 51.03 277.57 C 58.30 277.17 65.60 278.68 72.84 277.54 C 83.95 255.25 91.07 230.85 93.10 205.99 C 95.03 204.15 96.96 202.31 98.82 200.41 L 99.75 200.65 L 99.43 199.92 C 104.07 196.68 107.75 192.29 111.84 188.40 L 112.69 188.52 L 112.36 187.28 L 113.37 187.77 L 113.50 186.60 L 114.71 186.54 L 114.45 185.95 C 121.68 180.30 127.48 173.03 134.48 167.10 L 134.49 166.28 L 135.39 166.67 L 135.56 165.57 L 136.72 165.49 L 136.46 164.94 C 140.66 162.04 143.85 157.97 147.74 154.70 C 147.98 154.42 148.44 153.86 148.68 153.58 C 149.78 153.09 150.90 152.62 152.04 152.21 C 155.37 155.59 158.57 159.18 162.50 161.88 L 162.49 162.12 C 165.20 164.19 167.43 166.83 170.26 168.75 C 172.31 170.52 174.20 172.51 176.55 173.92 L 176.45 174.12 C 178.79 175.92 180.83 178.08 183.27 179.75 C 185.32 181.52 187.20 183.52 189.56 184.91 L 189.44 185.10 C 191.78 186.92 193.85 189.06 196.18 190.89 C 196.46 191.09 197.01 191.48 197.28 191.68 C 200.05 194.08 202.45 196.93 205.56 198.93 L 205.27 199.68 L 206.14 199.40 C 207.52 200.81 208.94 202.19 210.40 203.52 C 213.16 221.09 218.82 238.10 225.52 254.54 C 228.57 262.12 232.92 269.09 236.12 276.60 C 241.17 277.17 246.25 276.99 251.33 277.00 C 250.45 274.46 248.39 272.13 248.61 269.36 C 252.04 267.72 254.45 264.72 257.10 262.11 C 259.45 259.69 262.03 257.43 263.87 254.57 L 264.15 254.44 C 288.44 226.06 300.94 188.24 299.23 151.01 C 298.09 120.35 286.67 90.27 267.72 66.19 C 249.20 42.46 223.33 24.55 194.57 15.65 C 165.01 6.44 132.59 6.61 103.19 16.36 M 115.57 212.97 C 115.68 230.07 115.32 247.17 115.56 264.26 C 138.25 264.22 160.93 264.23 183.62 264.26 C 183.70 247.16 183.93 230.07 184.15 212.97 C 184.24 209.35 182.13 204.43 177.91 204.50 C 159.27 204.42 140.62 204.46 121.98 204.47 C 117.60 204.23 115.51 209.31 115.57 212.97 M 101.32 268.38 C 101.60 270.93 100.25 274.48 103.00 276.05 C 105.76 277.48 108.98 277.58 112.03 277.68 C 136.69 277.69 161.35 277.68 186.01 277.69 C 189.43 277.57 192.99 277.54 196.17 276.11 C 198.71 274.45 197.28 270.89 197.66 268.37 C 165.55 268.38 133.43 268.33 101.32 268.38 Z" />
<path fill="#ffffff" opacity="1.00" d=" M 88.72 28.48 C 129.23 9.20 178.73 10.50 218.14 31.95 C 236.92 42.22 253.47 56.50 266.10 73.80 C 269.26 78.32 272.31 82.93 275.07 87.71 C 278.52 93.84 281.47 100.23 284.09 106.75 C 290.84 124.64 294.28 143.86 293.41 162.98 C 292.63 200.46 275.70 237.01 248.64 262.77 C 247.85 263.37 247.01 263.88 246.11 264.30 C 236.81 236.93 233.29 206.62 241.92 178.60 C 242.25 177.65 242.59 176.69 242.91 175.73 C 243.92 173.22 245.03 170.74 245.98 168.20 C 254.41 168.00 263.31 165.51 269.22 159.18 C 277.98 150.94 280.13 137.01 274.59 126.38 C 272.47 122.94 270.15 119.55 266.92 117.05 C 263.40 114.25 259.31 112.32 255.03 111.02 C 254.98 107.14 255.38 102.99 253.32 99.51 C 250.23 94.03 243.95 91.36 237.82 91.62 C 239.14 85.46 240.15 78.89 238.07 72.78 C 236.09 66.48 231.61 61.07 225.82 57.92 C 216.11 52.88 203.53 54.06 195.06 61.03 C 192.22 63.27 190.29 66.35 188.42 69.39 C 187.59 71.44 186.81 73.50 186.10 75.59 C 182.36 75.18 178.60 74.84 174.84 74.92 C 176.58 68.68 176.63 61.79 173.04 56.16 C 165.72 45.46 152.53 40.54 139.98 40.20 C 131.82 40.01 123.67 41.90 116.31 45.40 C 110.86 48.26 106.21 52.61 102.98 57.85 C 96.26 53.52 86.53 53.70 81.10 60.03 C 80.54 60.82 79.97 61.61 79.38 62.38 C 77.99 65.45 77.37 68.81 77.28 72.17 C 69.66 70.35 61.29 70.09 54.24 73.96 C 49.47 76.51 45.56 80.54 42.97 85.28 C 40.42 90.83 39.17 97.25 41.05 103.20 C 42.04 107.62 44.87 111.21 47.13 115.02 C 43.06 119.63 40.77 126.01 42.74 132.10 C 36.99 136.37 31.91 142.57 31.78 150.06 C 30.82 159.10 36.25 167.94 44.17 172.09 C 48.23 173.92 52.65 174.80 57.09 175.03 C 57.20 177.72 58.04 180.29 58.88 182.82 C 61.38 187.65 66.14 191.10 71.52 191.94 C 70.83 197.49 71.01 203.44 68.63 208.60 C 67.87 207.55 67.15 206.49 66.45 205.41 C 64.43 201.88 62.38 198.36 59.80 195.22 C 59.23 197.48 58.54 199.73 58.23 202.06 C 58.60 203.67 59.41 205.14 60.10 206.64 C 64.17 218.06 65.53 230.95 61.74 242.64 C 59.70 250.29 57.14 257.79 54.59 265.29 C 46.79 259.57 40.99 251.61 34.90 244.21 C 30.97 238.71 27.25 233.06 23.95 227.16 C 20.54 220.73 17.50 214.10 14.93 207.28 C 14.27 205.31 13.61 203.33 12.91 201.38 C 3.38 170.57 4.36 136.65 15.97 106.54 C 18.45 100.39 21.21 94.34 24.49 88.57 C 28.11 81.99 32.37 75.80 36.89 69.80 C 46.66 57.33 58.58 46.67 71.77 37.91 C 75.10 35.90 78.41 33.85 81.82 31.96 C 83.42 31.14 85.03 30.31 86.65 29.52 C 87.17 29.26 88.21 28.74 88.72 28.48 Z" />
<path fill="#ffffff" opacity="1.00" d=" M 69.22 88.17 C 74.13 88.19 79.04 88.19 83.95 88.16 C 83.97 88.66 84.01 89.67 84.03 90.18 C 84.48 90.18 85.36 90.18 85.81 90.19 C 85.81 90.63 85.82 91.52 85.82 91.97 C 86.33 91.99 87.33 92.03 87.84 92.05 C 87.82 93.91 87.82 95.78 87.83 97.65 C 86.55 97.63 85.28 97.61 84.00 97.60 C 84.00 96.34 84.00 95.09 84.00 93.83 C 83.55 93.83 82.64 93.81 82.19 93.81 C 82.18 93.36 82.17 92.45 82.17 92.00 C 78.59 92.00 75.01 92.00 71.43 92.00 C 71.43 92.46 71.41 93.38 71.40 93.84 C 70.91 93.82 69.91 93.80 69.42 93.79 C 69.42 102.36 69.42 110.92 69.42 119.49 C 69.90 119.45 70.87 119.36 71.36 119.31 C 71.38 119.78 71.43 120.73 71.45 121.20 C 75.02 121.17 78.59 121.18 82.16 121.18 C 82.17 120.71 82.20 119.76 82.21 119.28 C 82.66 119.32 83.57 119.39 84.02 119.42 C 84.01 118.47 83.98 116.56 83.97 115.60 C 85.25 115.59 86.53 115.57 87.82 115.56 C 87.82 117.52 87.82 119.47 87.82 121.43 C 87.31 121.43 86.28 121.42 85.77 121.42 C 85.79 121.92 85.84 122.91 85.86 123.40 C 85.41 123.40 84.51 123.40 84.06 123.40 L 83.96 125.00 C 79.03 125.00 74.10 125.00 69.17 125.00 L 69.23 123.47 C 68.74 123.44 67.75 123.37 67.26 123.33 C 67.33 122.88 67.48 121.96 67.55 121.51 C 67.06 121.46 66.07 121.38 65.58 121.33 C 65.58 111.57 65.59 101.80 65.57 92.04 L 67.42 91.96 C 67.40 91.52 67.34 90.62 67.31 90.18 C 67.77 90.18 68.69 90.18 69.15 90.18 C 69.17 89.67 69.20 88.67 69.22 88.17 Z" />
<path fill="#ffffff" opacity="1.00" d=" M 192.59 95.60 C 193.93 95.59 195.27 95.58 196.61 95.57 C 196.61 98.58 196.62 101.58 196.59 104.59 C 199.66 104.58 202.73 104.58 205.81 104.57 C 205.82 105.93 205.83 107.28 205.84 108.64 C 202.76 108.60 199.68 108.61 196.60 108.60 C 196.61 111.68 196.60 114.76 196.64 117.84 C 195.28 117.83 193.93 117.82 192.57 117.81 C 192.58 114.73 192.57 111.66 192.59 108.59 C 189.58 108.62 186.58 108.61 183.57 108.61 C 183.58 107.27 183.58 105.93 183.60 104.59 C 186.60 104.58 189.60 104.57 192.60 104.60 C 192.57 101.60 192.58 98.60 192.59 95.60 Z" />
<path fill="#ffffff" opacity="1.00" d=" M 221.59 95.60 C 222.93 95.59 224.27 95.58 225.61 95.57 C 225.61 98.58 225.62 101.58 225.59 104.59 C 228.66 104.57 231.73 104.58 234.81 104.57 C 234.81 105.93 234.82 107.28 234.84 108.64 C 231.76 108.60 228.68 108.61 225.60 108.60 C 225.61 111.68 225.60 114.76 225.64 117.84 C 224.28 117.83 222.93 117.82 221.58 117.81 C 221.58 114.73 221.57 111.66 221.59 108.59 C 218.58 108.62 215.58 108.61 212.57 108.61 C 212.58 107.27 212.58 105.93 212.60 104.59 C 215.60 104.58 218.60 104.57 221.60 104.60 C 221.57 101.60 221.57 98.60 221.59 95.60 Z" />
<path fill="#ffffff" opacity="1.00" d=" M 97.35 99.17 C 102.88 99.19 108.42 99.19 113.95 99.16 C 113.97 99.66 114.01 100.67 114.03 101.17 C 114.48 101.18 115.37 101.19 115.82 101.20 C 115.82 101.64 115.82 102.53 115.82 102.97 C 116.33 102.99 117.33 103.03 117.84 103.05 C 117.80 110.36 117.83 117.68 117.82 125.00 C 111.60 125.00 105.38 125.00 99.17 125.00 L 99.23 123.47 C 98.74 123.44 97.76 123.37 97.27 123.34 C 97.34 122.88 97.47 121.96 97.54 121.50 C 97.05 121.46 96.07 121.38 95.58 121.34 C 95.58 118.30 95.58 115.26 95.57 112.22 C 96.04 112.20 96.98 112.17 97.45 112.15 C 97.40 111.67 97.30 110.72 97.26 110.24 C 97.74 110.22 98.70 110.17 99.18 110.14 C 99.18 109.70 99.17 108.80 99.17 108.35 C 104.11 108.42 109.05 108.38 114.00 108.39 C 114.00 107.50 114.00 105.72 114.00 104.83 C 113.55 104.82 112.65 104.82 112.20 104.81 C 112.19 104.36 112.17 103.45 112.17 103.00 C 107.24 103.00 102.32 103.00 97.40 103.00 C 97.38 101.72 97.37 100.44 97.35 99.17 M 101.39 112.39 C 101.40 112.79 101.41 113.59 101.42 114.00 L 99.42 114.01 C 99.42 115.83 99.42 117.65 99.41 119.48 C 99.90 119.44 100.88 119.36 101.37 119.32 C 101.39 119.79 101.43 120.73 101.45 121.20 C 105.63 121.17 109.82 121.18 114.00 121.18 C 114.00 118.26 114.00 115.34 113.99 112.41 C 109.79 112.42 105.59 112.44 101.39 112.39 Z" />
<path fill="#ffffff" opacity="1.00" d=" M 124.58 99.18 C 130.70 99.17 136.83 99.20 142.95 99.16 C 142.97 99.66 143.01 100.67 143.03 101.17 C 143.48 101.18 144.37 101.19 144.82 101.20 C 144.82 101.64 144.82 102.53 144.82 102.97 C 145.32 102.99 146.33 103.03 146.84 103.05 C 146.80 110.36 146.83 117.68 146.82 125.00 C 145.55 125.00 144.27 125.00 143.00 125.00 C 143.00 118.28 143.00 111.55 143.00 104.83 C 142.55 104.83 141.64 104.81 141.19 104.81 C 141.19 104.36 141.18 103.45 141.17 103.00 C 140.28 103.00 138.50 103.00 137.61 103.00 C 137.61 110.33 137.60 117.66 137.62 124.99 C 136.27 124.99 134.92 125.00 133.58 125.00 C 133.58 117.67 133.58 110.34 133.58 103.00 C 131.86 103.00 130.14 103.00 128.42 103.00 C 128.42 110.34 128.42 117.67 128.42 125.00 C 127.46 125.00 125.54 125.00 124.58 125.00 C 124.58 116.39 124.58 107.79 124.58 99.18 Z" />
<path fill="#ffffff" opacity="1.00" d=" M 154.58 99.18 C 160.70 99.17 166.83 99.20 172.95 99.16 C 172.97 99.66 173.01 100.67 173.03 101.18 C 173.48 101.18 174.36 101.18 174.81 101.19 C 174.81 101.63 174.82 102.52 174.82 102.97 C 175.33 102.99 176.34 103.03 176.84 103.05 C 176.80 109.17 176.83 115.29 176.82 121.42 C 176.31 121.42 175.28 121.42 174.77 121.43 C 174.79 121.92 174.84 122.91 174.86 123.40 C 174.41 123.40 173.51 123.40 173.06 123.40 L 172.96 125.00 C 168.11 125.00 163.26 125.00 158.42 125.00 C 158.42 128.14 158.42 131.28 158.41 134.41 C 157.45 134.41 155.54 134.41 154.59 134.41 C 154.57 122.67 154.58 110.92 154.58 99.18 M 158.42 103.00 C 158.42 109.06 158.42 115.13 158.42 121.19 C 162.66 121.17 166.91 121.18 171.16 121.18 C 171.17 120.71 171.20 119.76 171.21 119.28 C 171.66 119.32 172.55 119.39 173.00 119.42 C 173.00 114.56 173.00 109.70 173.00 104.83 C 172.55 104.83 171.64 104.81 171.18 104.80 C 171.18 104.35 171.18 103.45 171.17 103.00 C 166.92 103.00 162.67 103.00 158.42 103.00 Z" />
<path fill="#ffffff" opacity="1.00" d=" M 228.80 162.34 C 231.36 163.84 233.96 165.28 236.57 166.68 C 230.78 177.33 228.87 189.42 226.47 201.14 C 222.67 192.32 220.44 182.83 219.80 173.25 C 223.90 170.68 227.07 166.86 228.80 162.34 Z" />
<path fill="#ffffff" opacity="1.00" d=" M 148.71 209.18 C 148.61 207.58 148.86 206.09 150.85 206.08 C 151.01 207.75 150.71 209.18 148.71 209.18 Z" />
<path fill="#ffffff" opacity="1.00" d=" M 120.40 258.47 C 120.47 242.57 120.31 226.65 120.65 210.75 C 139.97 210.70 159.29 210.78 178.61 210.71 C 178.99 226.63 178.56 242.55 178.61 258.47 C 159.21 258.48 139.80 258.49 120.40 258.47 M 145.71 214.66 C 145.95 220.48 141.97 225.44 142.03 231.30 C 141.42 230.37 140.19 228.51 139.57 227.57 C 139.19 230.27 139.21 233.25 137.52 235.54 C 135.43 238.59 133.13 241.87 133.59 245.78 C 136.12 249.39 140.81 249.82 144.64 251.21 C 141.04 251.37 137.45 251.23 133.87 251.51 C 135.85 253.08 138.47 252.18 140.77 252.28 C 140.69 252.67 140.52 253.45 140.44 253.84 C 142.59 253.76 144.74 253.66 146.90 253.58 C 146.84 254.27 146.72 255.65 146.66 256.33 C 148.83 256.35 151.82 257.26 151.73 254.02 C 153.05 254.67 154.36 255.32 155.72 255.90 C 155.37 255.22 154.67 253.85 154.32 253.16 C 157.57 253.17 160.79 253.61 164.03 253.83 C 163.00 253.28 160.96 252.17 159.93 251.62 C 163.01 251.19 166.21 252.07 169.19 251.01 C 167.10 250.53 164.94 250.57 162.82 250.46 C 167.34 247.24 168.23 241.38 168.46 236.23 C 167.24 237.17 166.02 238.11 164.79 239.04 C 163.26 235.29 162.24 231.36 161.09 227.48 C 160.04 228.24 158.97 228.97 157.89 229.69 C 157.50 225.14 156.58 220.56 154.08 216.67 C 153.32 219.46 152.04 222.12 149.69 223.91 C 149.94 220.27 148.37 217.06 145.71 214.66 Z" />
<path fill="#ffffff" opacity="1.00" d=" M 149.26 232.74 L 150.93 231.98 C 151.17 234.41 151.18 236.92 152.00 239.26 C 152.25 238.41 152.76 236.70 153.01 235.85 C 154.98 239.90 159.09 242.49 160.39 246.93 C 160.03 248.17 159.68 249.42 159.36 250.68 C 155.52 250.59 151.70 250.94 147.89 251.38 C 145.91 249.19 143.30 247.15 142.69 244.11 C 142.24 241.83 143.65 239.90 144.73 238.06 C 145.36 238.80 146.61 240.28 147.24 241.02 C 148.18 238.33 148.62 235.51 149.26 232.74 Z" />
</g>
<g id="#000000ff">
<path fill="#000000" opacity="1.00" d=" M 103.19 16.36 C 132.59 6.61 165.01 6.44 194.57 15.65 C 223.33 24.55 249.20 42.46 267.72 66.19 C 286.67 90.27 298.09 120.35 299.23 151.01 C 300.94 188.24 288.44 226.06 264.15 254.44 L 263.87 254.57 C 262.03 257.43 259.45 259.69 257.10 262.11 C 254.45 264.72 252.04 267.72 248.61 269.36 C 248.39 272.13 250.45 274.46 251.33 277.00 C 246.25 276.99 241.17 277.17 236.12 276.60 C 232.92 269.09 228.57 262.12 225.52 254.54 C 218.82 238.10 213.16 221.09 210.40 203.52 C 208.94 202.19 207.52 200.81 206.14 199.40 L 205.27 199.68 L 205.56 198.93 C 202.45 196.93 200.05 194.08 197.28 191.68 C 197.01 191.48 196.46 191.09 196.18 190.89 C 193.85 189.06 191.78 186.92 189.44 185.10 L 189.56 184.91 C 187.20 183.52 185.32 181.52 183.27 179.75 C 180.83 178.08 178.79 175.92 176.45 174.12 L 176.55 173.92 C 174.20 172.51 172.31 170.52 170.26 168.75 C 167.43 166.83 165.20 164.19 162.49 162.12 L 162.50 161.88 C 158.57 159.18 155.37 155.59 152.04 152.21 C 150.90 152.62 149.78 153.09 148.68 153.58 C 148.44 153.86 147.98 154.42 147.74 154.70 C 143.85 157.97 140.66 162.04 136.46 164.94 L 136.72 165.49 L 135.56 165.57 L 135.39 166.67 L 134.49 166.28 L 134.48 167.10 C 127.48 173.03 121.68 180.30 114.45 185.95 L 114.71 186.54 L 113.50 186.60 L 113.37 187.77 L 112.36 187.28 L 112.69 188.52 L 111.84 188.40 C 107.75 192.29 104.07 196.68 99.43 199.92 L 99.75 200.65 L 98.82 200.41 C 96.96 202.31 95.03 204.15 93.10 205.99 C 91.07 230.85 83.95 255.25 72.84 277.54 C 65.60 278.68 58.30 277.17 51.03 277.57 C 51.67 274.89 52.31 272.21 53.02 269.55 C 48.54 268.88 45.95 265.01 42.90 262.12 C 40.54 259.67 37.88 257.44 36.11 254.50 L 35.86 254.54 C 11.70 226.09 -1.06 188.33 0.78 151.08 C 1.86 120.39 13.32 90.32 32.25 66.21 C 50.30 43.09 75.32 25.51 103.19 16.36 M 88.72 28.48 C 88.21 28.74 87.17 29.26 86.65 29.52 C 85.03 30.31 83.42 31.14 81.82 31.96 C 78.41 33.85 75.10 35.90 71.77 37.91 C 58.58 46.67 46.66 57.33 36.89 69.80 C 32.37 75.80 28.11 81.99 24.49 88.57 C 21.21 94.34 18.45 100.39 15.97 106.54 C 4.36 136.65 3.38 170.57 12.91 201.38 C 13.61 203.33 14.27 205.31 14.93 207.28 C 17.50 214.10 20.54 220.73 23.95 227.16 C 27.25 233.06 30.97 238.71 34.90 244.21 C 40.99 251.61 46.79 259.57 54.59 265.29 C 57.14 257.79 59.70 250.29 61.74 242.64 C 65.53 230.95 64.17 218.06 60.10 206.64 C 59.41 205.14 58.60 203.67 58.23 202.06 C 58.54 199.73 59.23 197.48 59.80 195.22 C 62.38 198.36 64.43 201.88 66.45 205.41 C 67.15 206.49 67.87 207.55 68.63 208.60 C 71.01 203.44 70.83 197.49 71.52 191.94 C 66.14 191.10 61.38 187.65 58.88 182.82 C 58.04 180.29 57.20 177.72 57.09 175.03 C 52.65 174.80 48.23 173.92 44.17 172.09 C 36.25 167.94 30.82 159.10 31.78 150.06 C 31.91 142.57 36.99 136.37 42.74 132.10 C 40.77 126.01 43.06 119.63 47.13 115.02 C 44.87 111.21 42.04 107.62 41.05 103.20 C 39.17 97.25 40.42 90.83 42.97 85.28 C 45.56 80.54 49.47 76.51 54.24 73.96 C 61.29 70.09 69.66 70.35 77.28 72.17 C 77.37 68.81 77.99 65.45 79.38 62.38 C 79.97 61.61 80.54 60.82 81.10 60.03 C 86.53 53.70 96.26 53.52 102.98 57.85 C 106.21 52.61 110.86 48.26 116.31 45.40 C 123.67 41.90 131.82 40.01 139.98 40.20 C 152.53 40.54 165.72 45.46 173.04 56.16 C 176.63 61.79 176.58 68.68 174.84 74.92 C 178.60 74.84 182.36 75.18 186.10 75.59 C 186.81 73.50 187.59 71.44 188.42 69.39 C 190.29 66.35 192.22 63.27 195.06 61.03 C 203.53 54.06 216.11 52.88 225.82 57.92 C 231.61 61.07 236.09 66.48 238.07 72.78 C 240.15 78.89 239.14 85.46 237.82 91.62 C 243.95 91.36 250.23 94.03 253.32 99.51 C 255.38 102.99 254.98 107.14 255.03 111.02 C 259.31 112.32 263.40 114.25 266.92 117.05 C 270.15 119.55 272.47 122.94 274.59 126.38 C 280.13 137.01 277.98 150.94 269.22 159.18 C 263.31 165.51 254.41 168.00 245.98 168.20 C 245.03 170.74 243.92 173.22 242.91 175.73 C 242.59 176.69 242.25 177.65 241.92 178.60 C 233.29 206.62 236.81 236.93 246.11 264.30 C 247.01 263.88 247.85 263.37 248.64 262.77 C 275.70 237.01 292.63 200.46 293.41 162.98 C 294.28 143.86 290.84 124.64 284.09 106.75 C 281.47 100.23 278.52 93.84 275.07 87.71 C 272.31 82.93 269.26 78.32 266.10 73.80 C 253.47 56.50 236.92 42.22 218.14 31.95 C 178.73 10.50 129.23 9.20 88.72 28.48 M 69.22 88.17 C 69.20 88.67 69.17 89.67 69.15 90.18 C 68.69 90.18 67.77 90.18 67.31 90.18 C 67.34 90.62 67.40 91.52 67.42 91.96 L 65.57 92.04 C 65.59 101.80 65.58 111.57 65.58 121.33 C 66.07 121.38 67.06 121.46 67.55 121.51 C 67.48 121.96 67.33 122.88 67.26 123.33 C 67.75 123.37 68.74 123.44 69.23 123.47 L 69.17 125.00 C 74.10 125.00 79.03 125.00 83.96 125.00 L 84.06 123.40 C 84.51 123.40 85.41 123.40 85.86 123.40 C 85.84 122.91 85.79 121.92 85.77 121.42 C 86.28 121.42 87.31 121.43 87.82 121.43 C 87.82 119.47 87.82 117.52 87.82 115.56 C 86.53 115.57 85.25 115.59 83.97 115.60 C 83.98 116.56 84.01 118.47 84.02 119.42 C 83.57 119.39 82.66 119.32 82.21 119.28 C 82.20 119.76 82.17 120.71 82.16 121.18 C 78.59 121.18 75.02 121.17 71.45 121.20 C 71.43 120.73 71.38 119.78 71.36 119.31 C 70.87 119.36 69.90 119.45 69.42 119.49 C 69.42 110.92 69.42 102.36 69.42 93.79 C 69.91 93.80 70.91 93.82 71.40 93.84 C 71.41 93.38 71.43 92.46 71.43 92.00 C 75.01 92.00 78.59 92.00 82.17 92.00 C 82.17 92.45 82.18 93.36 82.19 93.81 C 82.64 93.81 83.55 93.83 84.00 93.83 C 84.00 95.09 84.00 96.34 84.00 97.60 C 85.28 97.61 86.55 97.63 87.83 97.65 C 87.82 95.78 87.82 93.91 87.84 92.05 C 87.33 92.03 86.33 91.99 85.82 91.97 C 85.82 91.52 85.81 90.63 85.81 90.19 C 85.36 90.18 84.48 90.18 84.03 90.18 C 84.01 89.67 83.97 88.66 83.95 88.16 C 79.04 88.19 74.13 88.19 69.22 88.17 M 192.59 95.60 C 192.58 98.60 192.57 101.60 192.60 104.60 C 189.60 104.57 186.60 104.58 183.60 104.59 C 183.58 105.93 183.58 107.27 183.57 108.61 C 186.58 108.61 189.58 108.62 192.59 108.59 C 192.57 111.66 192.58 114.73 192.57 117.81 C 193.93 117.82 195.28 117.83 196.64 117.84 C 196.60 114.76 196.61 111.68 196.60 108.60 C 199.68 108.61 202.76 108.60 205.84 108.64 C 205.83 107.28 205.82 105.93 205.81 104.57 C 202.73 104.58 199.66 104.58 196.59 104.59 C 196.62 101.58 196.61 98.58 196.61 95.57 C 195.27 95.58 193.93 95.59 192.59 95.60 M 221.59 95.60 C 221.57 98.60 221.57 101.60 221.60 104.60 C 218.60 104.57 215.60 104.58 212.60 104.59 C 212.58 105.93 212.58 107.27 212.57 108.61 C 215.58 108.61 218.58 108.62 221.59 108.59 C 221.57 111.66 221.58 114.73 221.58 117.81 C 222.93 117.82 224.28 117.83 225.64 117.84 C 225.60 114.76 225.61 111.68 225.60 108.60 C 228.68 108.61 231.76 108.60 234.84 108.64 C 234.82 107.28 234.81 105.93 234.81 104.57 C 231.73 104.58 228.66 104.57 225.59 104.59 C 225.62 101.58 225.61 98.58 225.61 95.57 C 224.27 95.58 222.93 95.59 221.59 95.60 M 97.35 99.17 C 97.37 100.44 97.38 101.72 97.40 103.00 C 102.32 103.00 107.24 103.00 112.17 103.00 C 112.17 103.45 112.19 104.36 112.20 104.81 C 112.65 104.82 113.55 104.82 114.00 104.83 C 114.00 105.72 114.00 107.50 114.00 108.39 C 109.05 108.38 104.11 108.42 99.17 108.35 C 99.17 108.80 99.18 109.70 99.18 110.14 C 98.70 110.17 97.74 110.22 97.26 110.24 C 97.30 110.72 97.40 111.67 97.45 112.15 C 96.98 112.17 96.04 112.20 95.57 112.22 C 95.58 115.26 95.58 118.30 95.58 121.34 C 96.07 121.38 97.05 121.46 97.54 121.50 C 97.47 121.96 97.34 122.88 97.27 123.34 C 97.76 123.37 98.74 123.44 99.23 123.47 L 99.17 125.00 C 105.38 125.00 111.60 125.00 117.82 125.00 C 117.83 117.68 117.80 110.36 117.84 103.05 C 117.33 103.03 116.33 102.99 115.82 102.97 C 115.82 102.53 115.82 101.64 115.82 101.20 C 115.37 101.19 114.48 101.18 114.03 101.17 C 114.01 100.67 113.97 99.66 113.95 99.16 C 108.42 99.19 102.88 99.19 97.35 99.17 M 124.58 99.18 C 124.58 107.79 124.58 116.39 124.58 125.00 C 125.54 125.00 127.46 125.00 128.42 125.00 C 128.42 117.67 128.42 110.34 128.42 103.00 C 130.14 103.00 131.86 103.00 133.58 103.00 C 133.58 110.34 133.58 117.67 133.58 125.00 C 134.92 125.00 136.27 124.99 137.62 124.99 C 137.60 117.66 137.61 110.33 137.61 103.00 C 138.50 103.00 140.28 103.00 141.17 103.00 C 141.18 103.45 141.19 104.36 141.19 104.81 C 141.64 104.81 142.55 104.83 143.00 104.83 C 143.00 111.55 143.00 118.28 143.00 125.00 C 144.27 125.00 145.55 125.00 146.82 125.00 C 146.83 117.68 146.80 110.36 146.84 103.05 C 146.33 103.03 145.32 102.99 144.82 102.97 C 144.82 102.53 144.82 101.64 144.82 101.20 C 144.37 101.19 143.48 101.18 143.03 101.17 C 143.01 100.67 142.97 99.66 142.95 99.16 C 136.83 99.20 130.70 99.17 124.58 99.18 M 154.58 99.18 C 154.58 110.92 154.57 122.67 154.59 134.41 C 155.54 134.41 157.45 134.41 158.41 134.41 C 158.42 131.28 158.42 128.14 158.42 125.00 C 163.26 125.00 168.11 125.00 172.96 125.00 L 173.06 123.40 C 173.51 123.40 174.41 123.40 174.86 123.40 C 174.84 122.91 174.79 121.92 174.77 121.43 C 175.28 121.42 176.31 121.42 176.82 121.42 C 176.83 115.29 176.80 109.17 176.84 103.05 C 176.34 103.03 175.33 102.99 174.82 102.97 C 174.82 102.52 174.81 101.63 174.81 101.19 C 174.36 101.18 173.48 101.18 173.03 101.18 C 173.01 100.67 172.97 99.66 172.95 99.16 C 166.83 99.20 160.70 99.17 154.58 99.18 M 228.80 162.34 C 227.07 166.86 223.90 170.68 219.80 173.25 C 220.44 182.83 222.67 192.32 226.47 201.14 C 228.87 189.42 230.78 177.33 236.57 166.68 C 233.96 165.28 231.36 163.84 228.80 162.34 Z" />
<path fill="#000000" opacity="1.00" d=" M 158.42 103.00 C 162.67 103.00 166.92 103.00 171.17 103.00 C 171.18 103.45 171.18 104.35 171.18 104.80 C 171.64 104.81 172.55 104.83 173.00 104.83 C 173.00 109.70 173.00 114.56 173.00 119.42 C 172.55 119.39 171.66 119.32 171.21 119.28 C 171.20 119.76 171.17 120.71 171.16 121.18 C 166.91 121.18 162.66 121.17 158.42 121.19 C 158.42 115.13 158.42 109.06 158.42 103.00 Z" />
<path fill="#000000" opacity="1.00" d=" M 101.39 112.39 C 105.59 112.44 109.79 112.42 113.99 112.41 C 114.00 115.34 114.00 118.26 114.00 121.18 C 109.82 121.18 105.63 121.17 101.45 121.20 C 101.43 120.73 101.39 119.79 101.37 119.32 C 100.88 119.36 99.90 119.44 99.41 119.48 C 99.42 117.65 99.42 115.83 99.42 114.01 L 101.42 114.00 C 101.41 113.59 101.40 112.79 101.39 112.39 Z" />
<path fill="#000000" opacity="1.00" d=" M 115.57 212.97 C 115.51 209.31 117.60 204.23 121.98 204.47 C 140.62 204.46 159.27 204.42 177.91 204.50 C 182.13 204.43 184.24 209.35 184.15 212.97 C 183.93 230.07 183.70 247.16 183.62 264.26 C 160.93 264.23 138.25 264.22 115.56 264.26 C 115.32 247.17 115.68 230.07 115.57 212.97 M 148.71 209.18 C 150.71 209.18 151.01 207.75 150.85 206.08 C 148.86 206.09 148.61 207.58 148.71 209.18 M 120.40 258.47 C 139.80 258.49 159.21 258.48 178.61 258.47 C 178.56 242.55 178.99 226.63 178.61 210.71 C 159.29 210.78 139.97 210.70 120.65 210.75 C 120.31 226.65 120.47 242.57 120.40 258.47 Z" />
<path fill="#000000" opacity="1.00" d=" M 145.71 214.66 C 148.37 217.06 149.94 220.27 149.69 223.91 C 152.04 222.12 153.32 219.46 154.08 216.67 C 156.58 220.56 157.50 225.14 157.89 229.69 C 158.97 228.97 160.04 228.24 161.09 227.48 C 162.24 231.36 163.26 235.29 164.79 239.04 C 166.02 238.11 167.24 237.17 168.46 236.23 C 168.23 241.38 167.34 247.24 162.82 250.46 C 164.94 250.57 167.10 250.53 169.19 251.01 C 166.21 252.07 163.01 251.19 159.93 251.62 C 160.96 252.17 163.00 253.28 164.03 253.83 C 160.79 253.61 157.57 253.17 154.32 253.16 C 154.67 253.85 155.37 255.22 155.72 255.90 C 154.36 255.32 153.05 254.67 151.73 254.02 C 151.82 257.26 148.83 256.35 146.66 256.33 C 146.72 255.65 146.84 254.27 146.90 253.58 C 144.74 253.66 142.59 253.76 140.44 253.84 C 140.52 253.45 140.69 252.67 140.77 252.28 C 138.47 252.18 135.85 253.08 133.87 251.51 C 137.45 251.23 141.04 251.37 144.64 251.21 C 140.81 249.82 136.12 249.39 133.59 245.78 C 133.13 241.87 135.43 238.59 137.52 235.54 C 139.21 233.25 139.19 230.27 139.57 227.57 C 140.19 228.51 141.42 230.37 142.03 231.30 C 141.97 225.44 145.95 220.48 145.71 214.66 M 149.26 232.74 C 148.62 235.51 148.18 238.33 147.24 241.02 C 146.61 240.28 145.36 238.80 144.73 238.06 C 143.65 239.90 142.24 241.83 142.69 244.11 C 143.30 247.15 145.91 249.19 147.89 251.38 C 151.70 250.94 155.52 250.59 159.36 250.68 C 159.68 249.42 160.03 248.17 160.39 246.93 C 159.09 242.49 154.98 239.90 153.01 235.85 C 152.76 236.70 152.25 238.41 152.00 239.26 C 151.18 236.92 151.17 234.41 150.93 231.98 L 149.26 232.74 Z" />
<path fill="#000000" opacity="1.00" d=" M 101.32 268.38 C 133.43 268.33 165.55 268.38 197.66 268.37 C 197.28 270.89 198.71 274.45 196.17 276.11 C 192.99 277.54 189.43 277.57 186.01 277.69 C 161.35 277.68 136.69 277.69 112.03 277.68 C 108.98 277.58 105.76 277.48 103.00 276.05 C 100.25 274.48 101.60 270.93 101.32 268.38 Z" />
</g>
</svg>
