<?xml version="1.0" encoding="UTF-8" ?>
<!DOCTYPE svg PUBLIC "-//W3C//DTD SVG 1.1//EN" "http://www.w3.org/Graphics/SVG/1.1/DTD/svg11.dtd">
<svg width="300pt" height="300pt" viewBox="0 0 300 300" version="1.1" xmlns="http://www.w3.org/2000/svg">
<g id="#ffffffff">
<path fill="#ffffff" opacity="1.00" d=" M 0.00 0.00 L 300.00 0.00 L 300.00 300.00 L 0.00 300.00 L 0.00 0.00 M 82.72 24.86 C 51.53 40.45 26.21 67.38 12.53 99.45 C 1.21 125.49 -2.11 154.87 2.75 182.82 C 6.99 209.13 18.66 234.17 35.86 254.51 L 36.06 254.55 C 37.98 257.40 40.54 259.72 42.93 262.16 C 45.97 265.04 48.56 268.88 53.02 269.56 C 52.31 272.21 51.67 274.89 51.02 277.57 C 58.30 277.17 65.60 278.68 72.84 277.53 C 83.97 255.24 91.06 230.84 93.11 205.98 C 94.96 204.20 96.81 202.43 98.68 200.68 C 98.97 200.48 99.54 200.08 99.83 199.88 C 101.12 198.80 102.38 197.68 103.64 196.58 C 104.46 197.66 105.28 198.75 106.10 199.84 C 106.59 199.32 107.57 198.28 108.05 197.76 C 108.42 198.23 109.15 199.17 109.51 199.63 C 110.88 198.30 112.27 197.70 113.26 199.79 C 113.71 199.33 114.61 198.41 115.05 197.95 C 115.51 198.47 116.41 199.52 116.86 200.05 C 116.39 200.49 115.45 201.38 114.98 201.83 C 115.29 202.34 115.91 203.35 116.22 203.86 C 116.92 203.31 117.62 202.76 118.33 202.21 C 117.13 200.75 116.94 199.25 118.49 197.88 C 118.10 197.42 117.33 196.50 116.94 196.05 C 118.79 194.13 120.59 192.16 122.37 190.18 C 122.78 190.70 123.58 191.74 123.98 192.27 C 124.49 191.69 125.51 190.53 126.02 189.96 C 126.28 190.52 126.78 191.64 127.03 192.20 C 127.62 191.87 128.80 191.22 129.39 190.90 C 128.94 190.08 128.49 189.26 128.05 188.45 C 127.16 189.41 124.51 190.92 124.70 188.44 C 125.65 187.05 125.66 185.59 124.76 184.21 C 126.42 182.95 125.49 181.37 124.67 179.94 C 125.10 179.64 125.94 179.04 126.36 178.74 C 125.85 177.93 125.33 177.14 124.82 176.34 C 128.02 173.25 131.05 169.97 134.46 167.09 L 134.45 166.34 L 135.67 166.62 L 135.32 165.75 C 135.73 165.53 136.55 165.10 136.96 164.89 C 140.60 161.58 144.03 158.06 147.67 154.76 C 147.95 154.46 148.52 153.86 148.80 153.56 C 149.84 153.07 150.90 152.61 151.96 152.17 C 155.33 155.55 158.59 159.10 162.45 161.94 L 162.53 162.12 C 165.17 164.26 167.48 166.80 170.26 168.78 C 172.31 170.53 174.23 172.46 176.48 173.97 L 176.47 174.12 C 178.76 175.96 180.86 178.05 183.26 179.78 C 185.31 181.54 187.24 183.43 189.48 184.96 L 189.49 185.12 C 191.77 186.97 193.87 189.01 196.11 190.90 C 196.42 191.09 197.03 191.48 197.34 191.68 C 200.00 194.16 202.51 196.84 205.49 198.96 L 205.34 199.65 L 206.18 199.44 C 207.56 200.83 208.98 202.21 210.41 203.56 C 213.16 221.12 218.83 238.13 225.52 254.55 C 228.59 262.13 232.91 269.11 236.14 276.61 C 241.18 277.17 246.26 276.99 251.33 277.00 C 250.48 274.48 248.34 272.10 248.65 269.40 C 250.65 268.24 252.52 266.88 254.09 265.17 C 257.39 261.66 261.10 258.52 263.93 254.59 L 264.15 254.43 C 283.76 231.35 296.10 202.09 298.58 171.87 C 303.26 130.11 288.09 87.04 259.45 56.48 C 237.53 32.90 207.84 16.64 176.09 11.18 C 144.58 5.55 111.27 10.32 82.72 24.86 M 115.57 213.02 C 115.68 230.10 115.31 247.19 115.57 264.26 C 138.25 264.22 160.94 264.23 183.62 264.26 C 183.65 247.16 184.02 230.07 184.15 212.97 C 184.23 209.35 182.14 204.42 177.90 204.50 C 159.23 204.42 140.55 204.46 121.88 204.48 C 117.53 204.30 115.51 209.39 115.57 213.02 M 101.31 268.38 C 101.63 270.91 100.25 274.43 102.94 276.00 C 106.01 277.63 109.64 277.62 113.04 277.69 C 137.69 277.66 162.35 277.72 187.01 277.66 C 190.45 277.38 194.57 277.68 197.26 275.16 C 197.97 272.99 197.54 270.62 197.67 268.38 C 165.55 268.38 133.43 268.33 101.31 268.38 Z" />
<path fill="#ffffff" opacity="1.00" d=" M 88.71 28.51 C 128.23 9.67 176.45 10.37 215.33 30.54 C 219.76 32.77 224.00 35.37 228.23 37.96 C 241.42 46.71 253.41 57.32 263.07 69.89 C 264.06 71.21 265.08 72.50 266.08 73.82 C 269.28 78.31 272.30 82.94 275.07 87.72 C 277.63 92.27 279.91 96.97 282.03 101.74 C 282.68 103.36 283.33 104.98 284.00 106.60 C 297.08 140.28 296.73 178.87 283.06 212.31 C 280.32 218.88 277.15 225.26 273.56 231.40 C 270.95 235.80 268.05 240.01 265.11 244.19 C 262.24 247.93 259.23 251.55 256.09 255.06 C 253.04 258.40 250.18 262.10 246.18 264.36 C 236.44 236.08 233.05 204.47 242.89 175.74 C 243.59 174.06 244.29 172.37 245.02 170.70 C 245.35 169.87 245.67 169.03 245.99 168.20 C 254.40 168.00 263.27 165.53 269.18 159.22 C 277.98 150.99 280.12 137.05 274.61 126.39 C 272.49 122.94 270.13 119.59 266.95 117.04 C 263.39 114.28 259.32 112.31 255.03 111.01 C 254.98 107.13 255.38 102.96 253.30 99.47 C 250.20 94.01 243.92 91.37 237.81 91.61 C 239.21 85.26 240.19 78.44 237.87 72.18 C 235.84 66.12 231.39 61.04 225.86 57.89 C 217.61 53.75 207.33 53.75 199.22 58.24 C 196.52 59.67 194.47 61.98 192.09 63.84 L 192.65 64.98 L 191.81 64.20 C 190.65 65.92 189.51 67.64 188.41 69.40 C 187.59 71.45 186.81 73.51 186.08 75.59 C 182.34 75.18 178.59 74.85 174.83 74.91 C 175.79 70.97 176.30 66.91 175.87 62.85 C 176.52 61.42 176.98 59.91 177.40 58.40 C 176.67 58.37 175.20 58.31 174.47 58.28 C 173.88 57.65 173.29 57.02 172.70 56.39 C 172.65 56.00 172.55 55.20 172.50 54.80 C 173.93 54.82 175.37 54.82 176.81 54.82 C 176.94 55.94 177.06 57.06 177.19 58.18 C 178.29 58.21 179.39 58.24 180.49 58.26 C 180.50 57.13 180.50 55.99 180.51 54.86 C 182.83 54.86 185.16 54.86 187.49 54.86 C 187.50 56.05 187.52 57.25 187.55 58.45 C 190.02 59.12 191.77 57.18 191.23 54.84 C 193.46 54.84 195.69 54.84 197.92 54.83 C 197.92 52.64 197.92 50.44 197.93 48.24 C 197.07 48.24 195.33 48.22 194.46 48.21 C 194.47 47.07 194.48 45.93 194.49 44.78 C 193.58 44.77 191.77 44.74 190.87 44.72 C 190.91 43.65 190.96 42.57 191.02 41.49 C 190.12 41.48 188.33 41.45 187.43 41.43 C 187.45 40.60 187.48 38.94 187.50 38.11 C 185.17 38.10 182.84 38.10 180.51 38.10 C 180.53 38.94 180.56 40.60 180.58 41.43 C 179.69 41.45 177.92 41.47 177.04 41.48 C 177.06 42.56 177.09 43.64 177.11 44.73 C 176.22 44.74 174.42 44.77 173.52 44.78 C 173.53 45.93 173.53 47.08 173.54 48.23 C 172.72 48.22 171.07 48.20 170.25 48.20 C 170.01 49.76 169.76 51.32 169.48 52.88 C 169.13 52.18 168.78 51.48 168.43 50.78 C 154.43 38.28 132.78 37.40 116.31 45.37 C 110.85 48.21 106.38 52.64 102.96 57.71 C 96.11 53.65 86.59 53.69 81.08 60.00 C 80.52 60.81 79.95 61.60 79.38 62.39 C 77.99 65.46 77.39 68.82 77.26 72.17 C 69.64 70.32 61.29 70.14 54.20 73.93 C 49.48 76.55 45.60 80.53 42.96 85.24 C 40.33 91.03 39.12 97.74 41.24 103.90 C 42.32 108.04 45.00 111.42 47.14 115.02 C 43.02 119.63 40.81 126.03 42.71 132.12 C 38.69 135.28 34.82 139.00 33.05 143.93 C 30.88 149.66 31.39 156.26 33.91 161.81 C 36.28 166.12 39.84 169.71 44.14 172.11 C 48.23 173.86 52.62 174.83 57.06 175.02 C 57.26 178.03 58.18 180.93 59.30 183.71 C 62.01 188.05 66.46 191.10 71.51 192.00 C 71.08 197.59 70.54 203.25 68.99 208.66 C 68.09 207.63 67.23 206.58 66.44 205.47 C 65.63 204.03 64.82 202.60 64.01 201.16 C 62.70 199.12 61.32 197.10 59.75 195.24 C 59.22 197.52 58.54 199.77 58.22 202.09 C 58.66 203.68 59.40 205.16 60.08 206.65 C 63.48 215.68 64.61 225.59 63.54 235.16 C 61.31 245.39 58.11 255.42 54.47 265.23 C 46.77 259.47 40.95 251.60 34.91 244.20 C 30.97 238.71 27.25 233.06 23.96 227.15 C 20.54 220.70 17.49 214.06 14.91 207.23 C 3.30 175.00 3.59 138.69 15.92 106.70 C 16.61 105.04 17.29 103.37 17.96 101.71 C 20.07 96.94 22.39 92.27 24.94 87.73 C 28.49 81.48 32.54 75.54 36.89 69.82 C 46.64 57.33 58.59 46.67 71.78 37.92 C 75.11 35.89 78.43 33.84 81.85 31.96 C 84.13 30.80 86.41 29.64 88.71 28.51 M 191.00 59.96 C 191.11 61.84 193.83 61.64 194.11 60.00 C 194.03 58.07 191.22 58.27 191.00 59.96 Z" />
<path fill="#ffffff" opacity="1.00" d=" M 176.93 48.25 C 178.12 48.22 179.31 48.20 180.50 48.18 C 180.51 49.29 180.52 50.41 180.53 51.52 C 179.32 51.50 178.12 51.47 176.91 51.45 C 176.92 50.65 176.93 49.05 176.93 48.25 Z" />
<path fill="#ffffff" opacity="1.00" d=" M 187.50 48.19 C 188.69 48.20 189.88 48.22 191.08 48.24 C 191.04 49.33 191.00 50.41 190.95 51.50 C 189.79 51.50 188.63 51.49 187.47 51.49 C 187.47 50.39 187.48 49.29 187.50 48.19 Z" />
<path fill="#ffffff" opacity="1.00" d=" M 69.22 88.17 C 74.13 88.19 79.04 88.19 83.95 88.16 C 83.97 88.67 84.01 89.68 84.03 90.18 C 84.48 90.18 85.36 90.18 85.81 90.18 C 85.81 90.63 85.82 91.52 85.82 91.97 C 86.33 91.99 87.33 92.03 87.84 92.05 C 87.82 93.92 87.82 95.78 87.83 97.65 C 86.55 97.63 85.28 97.61 84.00 97.60 C 84.00 96.34 84.00 95.08 84.00 93.82 C 83.55 93.82 82.65 93.82 82.20 93.82 C 82.19 93.37 82.18 92.46 82.17 92.00 C 78.58 92.00 75.00 92.00 71.42 92.00 C 71.42 92.45 71.42 93.36 71.43 93.81 C 70.92 93.81 69.92 93.81 69.41 93.80 C 69.43 102.37 69.41 110.94 69.42 119.50 C 69.91 119.45 70.88 119.35 71.36 119.30 C 71.38 119.77 71.43 120.72 71.45 121.20 C 75.02 121.17 78.59 121.18 82.16 121.18 C 82.17 120.71 82.20 119.75 82.21 119.28 C 82.66 119.31 83.55 119.39 84.00 119.43 C 84.00 118.46 84.00 116.54 84.00 115.58 C 85.27 115.58 86.54 115.58 87.82 115.57 C 87.82 117.52 87.82 119.47 87.82 121.42 C 87.31 121.42 86.29 121.42 85.77 121.42 C 85.79 121.92 85.83 122.91 85.85 123.41 C 85.40 123.41 84.49 123.41 84.04 123.41 L 83.97 125.00 C 79.04 125.00 74.10 125.00 69.16 125.00 L 69.24 123.47 C 68.74 123.43 67.76 123.37 67.26 123.34 C 67.33 122.88 67.48 121.97 67.55 121.51 C 67.06 121.46 66.07 121.38 65.58 121.33 C 65.58 111.56 65.59 101.79 65.57 92.03 L 67.43 91.98 C 67.39 91.53 67.32 90.65 67.28 90.20 C 67.75 90.19 68.69 90.17 69.16 90.16 C 69.17 89.66 69.20 88.67 69.22 88.17 Z" />
<path fill="#ffffff" opacity="1.00" d=" M 192.59 95.60 C 193.93 95.59 195.27 95.58 196.61 95.57 C 196.61 98.58 196.62 101.58 196.59 104.59 C 199.66 104.58 202.73 104.58 205.80 104.57 C 205.81 105.93 205.83 107.28 205.85 108.64 C 202.76 108.60 199.68 108.61 196.60 108.60 C 196.61 111.68 196.60 114.76 196.64 117.84 C 195.28 117.83 193.93 117.82 192.58 117.81 C 192.58 114.73 192.57 111.66 192.59 108.59 C 189.58 108.62 186.58 108.61 183.57 108.61 C 183.58 107.27 183.58 105.93 183.60 104.59 C 186.60 104.58 189.60 104.57 192.60 104.60 C 192.57 101.60 192.58 98.60 192.59 95.60 Z" />
<path fill="#ffffff" opacity="1.00" d=" M 221.59 95.60 C 222.92 95.59 224.27 95.58 225.61 95.57 C 225.61 98.58 225.62 101.58 225.59 104.59 C 228.66 104.57 231.73 104.58 234.81 104.57 C 234.81 105.93 234.82 107.28 234.84 108.64 C 231.76 108.60 228.68 108.61 225.60 108.60 C 225.61 111.68 225.60 114.76 225.64 117.84 C 224.28 117.83 222.93 117.82 221.57 117.81 C 221.58 114.73 221.57 111.66 221.59 108.59 C 218.58 108.62 215.58 108.61 212.57 108.61 C 212.57 107.27 212.58 105.93 212.60 104.59 C 215.60 104.58 218.60 104.57 221.60 104.60 C 221.57 101.60 221.57 98.60 221.59 95.60 Z" />
<path fill="#ffffff" opacity="1.00" d=" M 97.35 99.16 C 102.89 99.19 108.42 99.19 113.95 99.16 C 113.97 99.66 114.01 100.67 114.03 101.18 C 114.48 101.18 115.37 101.19 115.81 101.19 C 115.82 101.63 115.82 102.52 115.82 102.97 C 116.33 102.99 117.33 103.03 117.84 103.05 C 117.80 110.36 117.83 117.68 117.82 125.00 C 111.60 125.00 105.38 125.00 99.16 125.00 L 99.24 123.46 C 98.74 123.43 97.76 123.37 97.27 123.35 C 97.34 122.88 97.47 121.95 97.54 121.49 C 97.05 121.45 96.07 121.38 95.58 121.35 C 95.58 118.31 95.58 115.27 95.57 112.23 C 96.04 112.21 96.98 112.16 97.45 112.14 C 97.40 111.67 97.30 110.72 97.25 110.25 C 97.73 110.22 98.69 110.17 99.17 110.14 C 99.17 109.69 99.18 108.80 99.18 108.35 C 104.12 108.42 109.06 108.38 114.00 108.39 C 114.00 107.50 114.00 105.72 114.00 104.83 C 113.55 104.82 112.64 104.81 112.19 104.81 C 112.18 104.36 112.18 103.45 112.17 103.00 C 107.25 103.00 102.32 103.00 97.39 103.00 C 97.38 101.72 97.37 100.44 97.35 99.16 M 101.39 112.39 C 101.39 112.80 101.41 113.60 101.42 114.00 L 99.42 114.00 C 99.42 115.83 99.42 117.65 99.41 119.48 C 99.91 119.44 100.89 119.36 101.38 119.32 C 101.39 119.79 101.43 120.73 101.44 121.20 C 105.63 121.17 109.81 121.18 114.00 121.18 C 114.00 118.26 114.00 115.34 114.00 112.42 C 109.79 112.42 105.59 112.44 101.39 112.39 Z" />
<path fill="#ffffff" opacity="1.00" d=" M 124.58 99.18 C 130.70 99.17 136.83 99.20 142.95 99.16 C 142.97 99.67 143.01 100.68 143.03 101.18 C 143.48 101.18 144.36 101.18 144.80 101.18 C 144.81 101.63 144.82 102.52 144.82 102.97 C 145.33 102.99 146.34 103.03 146.84 103.05 C 146.80 110.37 146.83 117.68 146.82 125.00 C 145.55 125.00 144.27 125.00 143.00 125.00 C 143.00 118.28 143.00 111.56 143.00 104.83 C 142.54 104.82 141.63 104.80 141.17 104.79 C 141.17 104.35 141.18 103.45 141.18 103.00 C 140.29 103.00 138.50 103.00 137.61 103.00 C 137.61 110.33 137.61 117.66 137.62 124.99 C 136.27 124.99 134.92 125.00 133.58 125.00 C 133.58 117.67 133.58 110.33 133.58 103.00 C 131.86 103.00 130.13 103.00 128.41 103.01 C 128.43 110.34 128.42 117.67 128.42 125.00 C 127.46 125.00 125.54 125.00 124.58 125.00 C 124.58 116.39 124.58 107.79 124.58 99.18 Z" />
<path fill="#ffffff" opacity="1.00" d=" M 154.58 99.18 C 160.70 99.17 166.83 99.20 172.95 99.16 C 172.97 99.66 173.01 100.67 173.03 101.18 C 173.48 101.18 174.37 101.19 174.82 101.19 C 174.82 101.63 174.82 102.52 174.82 102.97 C 175.32 102.99 176.34 103.03 176.84 103.05 C 176.80 109.17 176.82 115.28 176.83 121.40 C 176.31 121.41 175.28 121.43 174.77 121.44 C 174.79 121.93 174.83 122.91 174.85 123.41 C 174.40 123.41 173.49 123.41 173.04 123.41 L 172.97 125.00 C 168.12 125.00 163.27 125.00 158.42 125.00 C 158.42 128.14 158.42 131.28 158.41 134.41 C 157.46 134.41 155.54 134.41 154.59 134.41 C 154.57 122.67 154.59 110.92 154.58 99.18 M 158.42 103.00 C 158.42 109.06 158.42 115.13 158.42 121.19 C 162.66 121.17 166.91 121.18 171.16 121.18 C 171.17 120.71 171.20 119.75 171.21 119.28 C 171.66 119.31 172.55 119.39 173.00 119.42 C 173.00 114.56 173.00 109.69 173.00 104.83 C 172.55 104.82 171.65 104.82 171.19 104.81 C 171.19 104.36 171.18 103.45 171.17 103.00 C 166.92 103.00 162.67 103.00 158.42 103.00 Z" />
<path fill="#ffffff" opacity="1.00" d=" M 228.81 162.34 C 231.36 163.84 233.95 165.28 236.57 166.68 C 230.78 177.33 228.88 189.42 226.47 201.14 C 222.67 192.33 220.46 182.84 219.79 173.28 C 223.88 170.68 227.06 166.86 228.81 162.34 Z" />
<path fill="#ffffff" opacity="1.00" d=" M 120.21 188.01 C 118.51 186.76 119.89 185.27 120.77 184.04 C 121.41 184.79 122.05 185.55 122.68 186.31 C 121.88 186.90 121.07 187.50 120.21 188.01 Z" />
<path fill="#ffffff" opacity="1.00" d=" M 111.74 193.32 C 112.36 192.98 113.61 192.30 114.23 191.96 C 114.64 193.30 115.12 194.85 113.78 195.86 C 112.63 195.46 112.28 194.26 111.74 193.32 Z" />
<path fill="#ffffff" opacity="1.00" d=" M 150.68 209.28 C 148.07 209.21 148.19 206.18 150.65 205.98 C 150.66 206.80 150.67 208.46 150.68 209.28 Z" />
<path fill="#ffffff" opacity="1.00" d=" M 120.64 210.76 C 139.97 210.70 159.30 210.78 178.62 210.72 C 178.97 226.63 178.56 242.55 178.61 258.47 C 159.21 258.48 139.80 258.49 120.40 258.48 C 120.46 242.57 120.34 226.66 120.64 210.76 M 145.74 214.67 C 145.90 220.49 141.99 225.46 142.03 231.32 C 141.41 230.39 140.18 228.53 139.56 227.59 C 139.19 230.26 139.21 233.22 137.54 235.50 C 135.45 238.59 133.08 241.90 133.60 245.85 C 135.65 249.05 139.72 248.93 142.44 251.17 C 139.49 251.44 136.48 251.12 133.56 251.80 C 135.87 252.73 138.36 252.31 140.77 252.30 C 140.69 252.68 140.53 253.46 140.45 253.84 C 142.59 253.76 144.74 253.66 146.89 253.58 C 146.83 254.27 146.72 255.65 146.66 256.35 C 148.83 256.36 151.76 257.22 151.77 254.04 C 153.07 254.69 154.36 255.35 155.69 255.98 C 155.36 255.27 154.68 253.85 154.35 253.13 C 157.58 253.18 160.78 253.63 164.01 253.84 C 163.27 253.46 161.78 252.70 161.04 252.32 L 161.17 251.29 C 163.85 251.46 166.65 251.97 169.25 251.01 C 167.15 250.55 164.99 250.58 162.85 250.48 C 167.31 247.20 168.21 241.40 168.48 236.25 C 167.26 237.19 166.05 238.12 164.83 239.06 C 163.25 235.31 162.25 231.35 161.06 227.47 C 160.02 228.26 158.96 229.04 157.91 229.82 C 157.52 225.20 156.53 220.58 154.10 216.57 C 153.34 219.40 151.98 222.03 149.81 224.03 C 149.82 220.40 148.48 217.10 145.74 214.67 Z" />
<path fill="#ffffff" opacity="1.00" d=" M 147.27 241.03 C 148.73 238.09 147.72 233.58 150.78 231.84 C 151.14 234.44 151.34 237.07 151.95 239.63 C 152.22 238.48 152.76 236.16 153.03 235.00 C 154.01 239.80 159.31 242.01 160.20 246.83 C 160.08 248.13 159.70 249.40 159.46 250.68 C 155.59 250.60 151.73 250.88 147.89 251.38 C 145.90 249.19 143.33 247.15 142.69 244.12 C 142.24 241.84 143.69 239.93 144.70 238.06 C 145.56 239.04 146.41 240.04 147.27 241.03 Z" />
</g>
<g id="#000000ff">
<path fill="#000000" opacity="1.00" d=" M 82.72 24.86 C 111.27 10.32 144.58 5.55 176.09 11.18 C 207.84 16.64 237.53 32.90 259.45 56.48 C 288.09 87.04 303.26 130.11 298.58 171.87 C 296.10 202.09 283.76 231.35 264.15 254.43 L 263.93 254.59 C 261.10 258.52 257.39 261.66 254.09 265.17 C 252.52 266.88 250.65 268.24 248.65 269.40 C 248.34 272.10 250.48 274.48 251.33 277.00 C 246.26 276.99 241.18 277.17 236.14 276.61 C 232.91 269.11 228.59 262.13 225.52 254.55 C 218.83 238.13 213.16 221.12 210.41 203.56 C 208.98 202.21 207.56 200.83 206.18 199.44 L 205.34 199.65 L 205.49 198.96 C 202.51 196.84 200.00 194.16 197.34 191.68 C 197.03 191.48 196.42 191.09 196.11 190.90 C 193.87 189.01 191.77 186.97 189.49 185.12 L 189.48 184.96 C 187.24 183.43 185.31 181.54 183.26 179.78 C 180.86 178.05 178.76 175.96 176.47 174.12 L 176.48 173.97 C 174.23 172.46 172.31 170.53 170.26 168.78 C 167.48 166.80 165.17 164.26 162.53 162.12 L 162.45 161.94 C 158.59 159.10 155.33 155.55 151.96 152.17 C 150.90 152.61 149.84 153.07 148.80 153.56 C 148.52 153.86 147.95 154.46 147.67 154.76 C 144.03 158.06 140.60 161.58 136.96 164.89 C 136.55 165.10 135.73 165.53 135.32 165.75 L 135.67 166.62 L 134.45 166.34 L 134.46 167.09 C 131.05 169.97 128.02 173.25 124.82 176.34 C 125.33 177.14 125.85 177.93 126.36 178.74 C 125.94 179.04 125.10 179.64 124.67 179.94 C 125.49 181.37 126.42 182.95 124.76 184.21 C 125.66 185.59 125.65 187.05 124.70 188.44 C 124.51 190.92 127.16 189.41 128.05 188.45 C 128.49 189.26 128.94 190.08 129.39 190.90 C 128.80 191.22 127.62 191.87 127.03 192.20 C 126.78 191.64 126.28 190.52 126.02 189.96 C 125.51 190.53 124.49 191.69 123.98 192.27 C 123.58 191.74 122.78 190.70 122.37 190.18 C 120.59 192.16 118.79 194.13 116.94 196.05 C 117.33 196.50 118.10 197.42 118.49 197.88 C 116.94 199.25 117.13 200.75 118.33 202.21 C 117.62 202.76 116.92 203.31 116.22 203.86 C 115.91 203.35 115.29 202.34 114.98 201.83 C 115.45 201.38 116.39 200.49 116.86 200.05 C 116.41 199.52 115.51 198.47 115.05 197.95 C 114.61 198.41 113.71 199.33 113.26 199.79 C 112.27 197.70 110.88 198.30 109.51 199.63 C 109.15 199.17 108.42 198.23 108.05 197.76 C 107.57 198.28 106.59 199.32 106.10 199.84 C 105.28 198.75 104.46 197.66 103.64 196.58 C 102.38 197.68 101.12 198.80 99.83 199.88 C 99.54 200.08 98.97 200.48 98.68 200.68 C 96.81 202.43 94.96 204.20 93.11 205.98 C 91.06 230.84 83.97 255.24 72.84 277.53 C 65.60 278.68 58.30 277.17 51.02 277.57 C 51.67 274.89 52.31 272.21 53.02 269.56 C 48.56 268.88 45.97 265.04 42.93 262.16 C 40.54 259.72 37.98 257.40 36.06 254.55 L 35.86 254.51 C 18.66 234.17 6.99 209.13 2.75 182.82 C -2.11 154.87 1.21 125.49 12.53 99.45 C 26.21 67.38 51.53 40.45 82.72 24.86 M 88.71 28.51 C 86.41 29.64 84.13 30.80 81.85 31.96 C 78.43 33.84 75.11 35.89 71.78 37.92 C 58.59 46.67 46.64 57.33 36.89 69.82 C 32.54 75.54 28.49 81.48 24.94 87.73 C 22.39 92.27 20.07 96.94 17.96 101.71 C 17.29 103.37 16.61 105.04 15.92 106.70 C 3.59 138.69 3.30 175.00 14.91 207.23 C 17.49 214.06 20.54 220.70 23.96 227.15 C 27.25 233.06 30.97 238.71 34.91 244.20 C 40.95 251.60 46.77 259.47 54.47 265.23 C 58.11 255.42 61.31 245.39 63.54 235.16 C 64.61 225.59 63.48 215.68 60.08 206.65 C 59.40 205.16 58.66 203.68 58.22 202.09 C 58.54 199.77 59.22 197.52 59.75 195.24 C 61.32 197.10 62.70 199.12 64.01 201.16 C 64.82 202.60 65.63 204.03 66.44 205.47 C 67.23 206.58 68.09 207.63 68.99 208.66 C 70.54 203.25 71.08 197.59 71.51 192.00 C 66.46 191.10 62.01 188.05 59.30 183.71 C 58.18 180.93 57.26 178.03 57.06 175.02 C 52.62 174.83 48.23 173.86 44.14 172.11 C 39.84 169.71 36.28 166.12 33.91 161.81 C 31.39 156.26 30.88 149.66 33.05 143.93 C 34.82 139.00 38.69 135.28 42.71 132.12 C 40.81 126.03 43.02 119.63 47.14 115.02 C 45.00 111.42 42.32 108.04 41.24 103.90 C 39.12 97.74 40.33 91.03 42.96 85.24 C 45.60 80.53 49.48 76.55 54.20 73.93 C 61.29 70.14 69.64 70.32 77.26 72.17 C 77.39 68.82 77.99 65.46 79.38 62.39 C 79.95 61.60 80.52 60.81 81.08 60.00 C 86.59 53.69 96.11 53.65 102.96 57.71 C 106.38 52.64 110.85 48.21 116.31 45.37 C 132.78 37.40 154.43 38.28 168.43 50.78 C 168.78 51.48 169.13 52.18 169.48 52.88 C 169.76 51.32 170.01 49.76 170.25 48.20 C 171.07 48.20 172.72 48.22 173.54 48.23 C 173.53 47.08 173.53 45.93 173.52 44.78 C 174.42 44.77 176.22 44.74 177.11 44.73 C 177.09 43.64 177.06 42.56 177.04 41.48 C 177.92 41.47 179.69 41.45 180.58 41.43 C 180.56 40.60 180.53 38.94 180.51 38.10 C 182.84 38.10 185.17 38.10 187.50 38.11 C 187.48 38.94 187.45 40.60 187.43 41.43 C 188.33 41.45 190.12 41.48 191.02 41.49 C 190.96 42.57 190.91 43.65 190.87 44.72 C 191.77 44.74 193.58 44.77 194.49 44.78 C 194.48 45.93 194.47 47.07 194.46 48.21 C 195.33 48.22 197.07 48.24 197.93 48.24 C 197.92 50.44 197.92 52.64 197.92 54.83 C 195.69 54.84 193.46 54.84 191.23 54.84 C 191.77 57.18 190.02 59.12 187.55 58.45 C 187.52 57.25 187.50 56.05 187.49 54.86 C 185.16 54.86 182.83 54.86 180.51 54.86 C 180.50 55.99 180.50 57.13 180.49 58.26 C 179.39 58.24 178.29 58.21 177.19 58.18 C 177.06 57.06 176.94 55.94 176.81 54.82 C 175.37 54.82 173.93 54.82 172.50 54.80 C 172.55 55.20 172.65 56.00 172.70 56.39 C 173.29 57.02 173.88 57.65 174.47 58.28 C 175.20 58.31 176.67 58.37 177.40 58.40 C 176.98 59.91 176.52 61.42 175.87 62.85 C 176.30 66.91 175.79 70.97 174.83 74.91 C 178.59 74.85 182.34 75.18 186.08 75.59 C 186.81 73.51 187.59 71.45 188.41 69.40 C 189.51 67.64 190.65 65.92 191.81 64.20 L 192.65 64.98 L 192.09 63.84 C 194.47 61.98 196.52 59.67 199.22 58.24 C 207.33 53.75 217.61 53.75 225.86 57.89 C 231.39 61.04 235.84 66.12 237.87 72.18 C 240.19 78.44 239.21 85.26 237.81 91.61 C 243.92 91.37 250.20 94.01 253.30 99.47 C 255.38 102.96 254.98 107.13 255.03 111.01 C 259.32 112.31 263.39 114.28 266.95 117.04 C 270.13 119.59 272.49 122.94 274.61 126.39 C 280.12 137.05 277.98 150.99 269.18 159.22 C 263.27 165.53 254.40 168.00 245.99 168.20 C 245.67 169.03 245.35 169.87 245.02 170.70 C 244.29 172.37 243.59 174.06 242.89 175.74 C 233.05 204.47 236.44 236.08 246.18 264.36 C 250.18 262.10 253.04 258.40 256.09 255.06 C 259.23 251.55 262.24 247.93 265.11 244.19 C 268.05 240.01 270.95 235.80 273.56 231.40 C 277.15 225.26 280.32 218.88 283.06 212.31 C 296.73 178.87 297.08 140.28 284.00 106.60 C 283.33 104.98 282.68 103.36 282.03 101.74 C 279.91 96.97 277.63 92.27 275.07 87.72 C 272.30 82.94 269.28 78.31 266.08 73.82 C 265.08 72.50 264.06 71.21 263.07 69.89 C 253.41 57.32 241.42 46.71 228.23 37.96 C 224.00 35.37 219.76 32.77 215.33 30.54 C 176.45 10.37 128.23 9.67 88.71 28.51 M 176.93 48.25 C 176.93 49.05 176.92 50.65 176.91 51.45 C 178.12 51.47 179.32 51.50 180.53 51.52 C 180.52 50.41 180.51 49.29 180.50 48.18 C 179.31 48.20 178.12 48.22 176.93 48.25 M 187.50 48.19 C 187.48 49.29 187.47 50.39 187.47 51.49 C 188.63 51.49 189.79 51.50 190.95 51.50 C 191.00 50.41 191.04 49.33 191.08 48.24 C 189.88 48.22 188.69 48.20 187.50 48.19 M 69.22 88.17 C 69.20 88.67 69.17 89.66 69.16 90.16 C 68.69 90.17 67.75 90.19 67.28 90.20 C 67.32 90.65 67.39 91.53 67.43 91.98 L 65.57 92.03 C 65.59 101.79 65.58 111.56 65.58 121.33 C 66.07 121.38 67.06 121.46 67.55 121.51 C 67.48 121.97 67.33 122.88 67.26 123.34 C 67.76 123.37 68.74 123.43 69.24 123.47 L 69.16 125.00 C 74.10 125.00 79.04 125.00 83.97 125.00 L 84.04 123.41 C 84.49 123.41 85.40 123.41 85.85 123.41 C 85.83 122.91 85.79 121.92 85.77 121.42 C 86.29 121.42 87.31 121.42 87.82 121.42 C 87.82 119.47 87.82 117.52 87.82 115.57 C 86.54 115.58 85.27 115.58 84.00 115.58 C 84.00 116.54 84.00 118.46 84.00 119.43 C 83.55 119.39 82.66 119.31 82.21 119.28 C 82.20 119.75 82.17 120.71 82.16 121.18 C 78.59 121.18 75.02 121.17 71.45 121.20 C 71.43 120.72 71.38 119.77 71.36 119.30 C 70.88 119.35 69.91 119.45 69.42 119.50 C 69.41 110.94 69.43 102.37 69.41 93.80 C 69.92 93.81 70.92 93.81 71.43 93.81 C 71.42 93.36 71.42 92.45 71.42 92.00 C 75.00 92.00 78.58 92.00 82.17 92.00 C 82.18 92.46 82.19 93.37 82.20 93.82 C 82.65 93.82 83.55 93.82 84.00 93.82 C 84.00 95.08 84.00 96.34 84.00 97.60 C 85.28 97.61 86.55 97.63 87.83 97.65 C 87.82 95.78 87.82 93.92 87.84 92.05 C 87.33 92.03 86.33 91.99 85.82 91.97 C 85.82 91.52 85.81 90.63 85.81 90.18 C 85.36 90.18 84.48 90.18 84.03 90.18 C 84.01 89.68 83.97 88.67 83.95 88.16 C 79.04 88.19 74.13 88.19 69.22 88.17 M 192.59 95.60 C 192.58 98.60 192.57 101.60 192.60 104.60 C 189.60 104.57 186.60 104.58 183.60 104.59 C 183.58 105.93 183.58 107.27 183.57 108.61 C 186.58 108.61 189.58 108.62 192.59 108.59 C 192.57 111.66 192.58 114.73 192.58 117.81 C 193.93 117.82 195.28 117.83 196.64 117.84 C 196.60 114.76 196.61 111.68 196.60 108.60 C 199.68 108.61 202.76 108.60 205.85 108.64 C 205.83 107.28 205.81 105.93 205.80 104.57 C 202.73 104.58 199.66 104.58 196.59 104.59 C 196.62 101.58 196.61 98.58 196.61 95.57 C 195.27 95.58 193.93 95.59 192.59 95.60 M 221.59 95.60 C 221.57 98.60 221.57 101.60 221.60 104.60 C 218.60 104.57 215.60 104.58 212.60 104.59 C 212.58 105.93 212.57 107.27 212.57 108.61 C 215.58 108.61 218.58 108.62 221.59 108.59 C 221.57 111.66 221.58 114.73 221.57 117.81 C 222.93 117.82 224.28 117.83 225.64 117.84 C 225.60 114.76 225.61 111.68 225.60 108.60 C 228.68 108.61 231.76 108.60 234.84 108.64 C 234.82 107.28 234.81 105.93 234.81 104.57 C 231.73 104.58 228.66 104.57 225.59 104.59 C 225.62 101.58 225.61 98.58 225.61 95.57 C 224.27 95.58 222.92 95.59 221.59 95.60 M 97.35 99.16 C 97.37 100.44 97.38 101.72 97.39 103.00 C 102.32 103.00 107.25 103.00 112.17 103.00 C 112.18 103.45 112.18 104.36 112.19 104.81 C 112.64 104.81 113.55 104.82 114.00 104.83 C 114.00 105.72 114.00 107.50 114.00 108.39 C 109.06 108.38 104.12 108.42 99.18 108.35 C 99.18 108.80 99.17 109.69 99.17 110.14 C 98.69 110.17 97.73 110.22 97.25 110.25 C 97.30 110.72 97.40 111.67 97.45 112.14 C 96.98 112.16 96.04 112.21 95.57 112.23 C 95.58 115.27 95.58 118.31 95.58 121.35 C 96.07 121.38 97.05 121.45 97.54 121.49 C 97.47 121.95 97.34 122.88 97.27 123.35 C 97.76 123.37 98.74 123.43 99.24 123.46 L 99.16 125.00 C 105.38 125.00 111.60 125.00 117.82 125.00 C 117.83 117.68 117.80 110.36 117.84 103.05 C 117.33 103.03 116.33 102.99 115.82 102.97 C 115.82 102.52 115.82 101.63 115.81 101.19 C 115.37 101.19 114.48 101.18 114.03 101.18 C 114.01 100.67 113.97 99.66 113.95 99.16 C 108.42 99.19 102.89 99.19 97.35 99.16 M 124.58 99.18 C 124.58 107.79 124.58 116.39 124.58 125.00 C 125.54 125.00 127.46 125.00 128.42 125.00 C 128.42 117.67 128.43 110.34 128.41 103.01 C 130.13 103.00 131.86 103.00 133.58 103.00 C 133.58 110.33 133.58 117.67 133.58 125.00 C 134.92 125.00 136.27 124.99 137.62 124.99 C 137.61 117.66 137.61 110.33 137.61 103.00 C 138.50 103.00 140.29 103.00 141.18 103.00 C 141.18 103.45 141.17 104.35 141.17 104.79 C 141.63 104.80 142.54 104.82 143.00 104.83 C 143.00 111.56 143.00 118.28 143.00 125.00 C 144.27 125.00 145.55 125.00 146.82 125.00 C 146.83 117.68 146.80 110.37 146.84 103.05 C 146.34 103.03 145.33 102.99 144.82 102.97 C 144.82 102.52 144.81 101.63 144.80 101.18 C 144.36 101.18 143.48 101.18 143.03 101.18 C 143.01 100.68 142.97 99.67 142.95 99.16 C 136.83 99.20 130.70 99.17 124.58 99.18 M 154.58 99.18 C 154.59 110.92 154.57 122.67 154.59 134.41 C 155.54 134.41 157.46 134.41 158.41 134.41 C 158.42 131.28 158.42 128.14 158.42 125.00 C 163.27 125.00 168.12 125.00 172.97 125.00 L 173.04 123.41 C 173.49 123.41 174.40 123.41 174.85 123.41 C 174.83 122.91 174.79 121.93 174.77 121.44 C 175.28 121.43 176.31 121.41 176.83 121.40 C 176.82 115.28 176.80 109.17 176.84 103.05 C 176.34 103.03 175.32 102.99 174.82 102.97 C 174.82 102.52 174.82 101.63 174.82 101.19 C 174.37 101.19 173.48 101.18 173.03 101.18 C 173.01 100.67 172.97 99.66 172.95 99.16 C 166.83 99.20 160.70 99.17 154.58 99.18 M 228.81 162.34 C 227.06 166.86 223.88 170.68 219.79 173.28 C 220.46 182.84 222.67 192.33 226.47 201.14 C 228.88 189.42 230.78 177.33 236.57 166.68 C 233.95 165.28 231.36 163.84 228.81 162.34 M 120.21 188.01 C 121.07 187.50 121.88 186.90 122.68 186.31 C 122.05 185.55 121.41 184.79 120.77 184.04 C 119.89 185.27 118.51 186.76 120.21 188.01 M 111.74 193.32 C 112.28 194.26 112.63 195.46 113.78 195.86 C 115.12 194.85 114.64 193.30 114.23 191.96 C 113.61 192.30 112.36 192.98 111.74 193.32 Z" />
<path fill="#000000" opacity="1.00" d=" M 191.00 59.96 C 191.22 58.27 194.03 58.07 194.11 60.00 C 193.83 61.64 191.11 61.84 191.00 59.96 Z" />
<path fill="#000000" opacity="1.00" d=" M 158.42 103.00 C 162.67 103.00 166.92 103.00 171.17 103.00 C 171.18 103.45 171.19 104.36 171.19 104.81 C 171.65 104.82 172.55 104.82 173.00 104.83 C 173.00 109.69 173.00 114.56 173.00 119.42 C 172.55 119.39 171.66 119.31 171.21 119.28 C 171.20 119.75 171.17 120.71 171.16 121.18 C 166.91 121.18 162.66 121.17 158.42 121.19 C 158.42 115.13 158.42 109.06 158.42 103.00 Z" />
<path fill="#000000" opacity="1.00" d=" M 101.39 112.39 C 105.59 112.44 109.79 112.42 114.00 112.42 C 114.00 115.34 114.00 118.26 114.00 121.18 C 109.81 121.18 105.63 121.17 101.44 121.20 C 101.43 120.73 101.39 119.79 101.38 119.32 C 100.89 119.36 99.91 119.44 99.41 119.48 C 99.42 117.65 99.42 115.83 99.42 114.00 L 101.42 114.00 C 101.41 113.60 101.39 112.80 101.39 112.39 Z" />
<path fill="#000000" opacity="1.00" d=" M 115.57 213.02 C 115.51 209.39 117.53 204.30 121.88 204.48 C 140.55 204.46 159.23 204.42 177.90 204.50 C 182.14 204.42 184.23 209.35 184.15 212.97 C 184.02 230.07 183.65 247.16 183.62 264.26 C 160.94 264.23 138.25 264.22 115.57 264.26 C 115.31 247.19 115.68 230.10 115.57 213.02 M 150.68 209.28 C 150.67 208.46 150.66 206.80 150.65 205.98 C 148.19 206.18 148.07 209.21 150.68 209.28 M 120.64 210.76 C 120.34 226.66 120.46 242.57 120.40 258.48 C 139.80 258.49 159.21 258.48 178.61 258.47 C 178.56 242.55 178.97 226.63 178.62 210.72 C 159.30 210.78 139.97 210.70 120.64 210.76 Z" />
<path fill="#000000" opacity="1.00" d=" M 145.74 214.67 C 148.48 217.10 149.82 220.40 149.81 224.03 C 151.98 222.03 153.34 219.40 154.10 216.57 C 156.53 220.58 157.52 225.20 157.91 229.82 C 158.96 229.04 160.02 228.26 161.06 227.47 C 162.25 231.35 163.25 235.31 164.83 239.06 C 166.05 238.12 167.26 237.19 168.48 236.25 C 168.21 241.40 167.31 247.20 162.85 250.48 C 164.99 250.58 167.15 250.55 169.25 251.01 C 166.65 251.97 163.85 251.46 161.17 251.29 L 161.04 252.32 C 161.78 252.70 163.27 253.46 164.01 253.84 C 160.78 253.63 157.58 253.18 154.35 253.13 C 154.68 253.85 155.36 255.27 155.69 255.98 C 154.36 255.35 153.07 254.69 151.77 254.04 C 151.76 257.22 148.83 256.36 146.66 256.35 C 146.72 255.65 146.83 254.27 146.89 253.58 C 144.74 253.66 142.59 253.76 140.45 253.84 C 140.53 253.46 140.69 252.68 140.77 252.30 C 138.36 252.31 135.87 252.73 133.56 251.80 C 136.48 251.12 139.49 251.44 142.44 251.17 C 139.72 248.93 135.65 249.05 133.60 245.85 C 133.08 241.90 135.45 238.59 137.54 235.50 C 139.21 233.22 139.19 230.26 139.56 227.59 C 140.18 228.53 141.41 230.39 142.03 231.32 C 141.99 225.46 145.90 220.49 145.74 214.67 M 147.27 241.03 C 146.41 240.04 145.56 239.04 144.70 238.06 C 143.69 239.93 142.24 241.84 142.69 244.12 C 143.33 247.15 145.90 249.19 147.89 251.38 C 151.73 250.88 155.59 250.60 159.46 250.68 C 159.70 249.40 160.08 248.13 160.20 246.83 C 159.31 242.01 154.01 239.80 153.03 235.00 C 152.76 236.16 152.22 238.48 151.95 239.63 C 151.34 237.07 151.14 234.44 150.78 231.84 C 147.72 233.58 148.73 238.09 147.27 241.03 Z" />
<path fill="#000000" opacity="1.00" d=" M 101.31 268.38 C 133.43 268.33 165.55 268.38 197.67 268.38 C 197.54 270.62 197.97 272.99 197.26 275.16 C 194.57 277.68 190.45 277.38 187.01 277.66 C 162.35 277.72 137.69 277.66 113.04 277.69 C 109.64 277.62 106.01 277.63 102.94 276.00 C 100.25 274.43 101.63 270.91 101.31 268.38 Z" />
</g>
</svg>
