<?xml version="1.0" encoding="UTF-8" ?>
<!DOCTYPE svg PUBLIC "-//W3C//DTD SVG 1.1//EN" "http://www.w3.org/Graphics/SVG/1.1/DTD/svg11.dtd">
<svg width="300pt" height="300pt" viewBox="0 0 300 300" version="1.1" xmlns="http://www.w3.org/2000/svg">
<g id="#ffffffff">
<path fill="#ffffff" opacity="1.00" d=" M 0.00 0.00 L 300.00 0.00 L 300.00 300.00 L 0.00 300.00 L 0.00 0.00 M 73.63 29.76 C 45.38 46.37 23.04 72.62 10.95 103.06 C 0.15 129.78 -2.10 159.70 3.59 187.87 C 9.76 218.04 25.19 246.43 47.99 267.24 C 49.34 268.50 51.17 268.97 52.85 269.62 C 52.19 272.27 51.60 274.94 50.94 277.59 C 58.16 277.55 65.38 278.29 72.61 277.77 C 84.22 255.69 90.74 231.10 93.27 206.35 C 95.55 203.27 98.66 200.94 101.52 198.43 C 118.33 183.26 133.96 166.80 151.16 152.05 C 168.94 168.58 188.16 183.48 206.12 199.83 C 207.77 201.55 210.27 202.90 210.58 205.49 C 214.38 225.49 220.64 245.05 229.55 263.38 C 231.71 267.88 234.19 272.21 236.24 276.77 C 241.26 277.02 246.29 277.04 251.32 276.97 C 250.29 274.62 249.33 272.25 248.33 269.89 C 249.78 268.86 251.26 267.86 252.60 266.67 C 270.60 249.87 284.18 228.43 291.87 205.05 C 300.24 179.02 301.87 150.63 295.62 123.96 C 288.57 93.76 271.73 65.98 248.33 45.64 C 222.20 22.67 187.77 9.38 152.98 8.90 C 125.26 8.16 97.43 15.55 73.63 29.76 M 111.65 196.64 C 108.81 198.76 107.82 202.50 107.99 205.90 C 108.23 224.84 107.33 243.79 107.99 262.72 C 136.07 262.70 164.14 262.63 192.21 262.74 C 192.86 243.13 192.67 223.51 192.81 203.89 C 192.82 199.68 189.44 195.22 184.96 195.38 C 162.62 195.29 140.27 195.41 117.93 195.32 C 115.80 195.35 113.44 195.28 111.65 196.64 M 90.29 267.14 C 90.50 269.86 89.28 273.29 91.58 275.40 C 95.29 277.57 99.79 277.67 103.97 277.76 C 134.31 277.75 164.65 277.78 194.99 277.74 C 199.65 277.78 204.42 277.40 208.78 275.59 C 210.09 272.95 209.71 269.96 209.66 267.12 C 169.87 267.10 130.08 267.05 90.29 267.14 Z" />
<path fill="#ffffff" opacity="1.00" d=" M 101.17 23.22 C 123.75 14.93 148.39 12.99 172.13 16.41 C 206.57 21.68 238.76 40.10 260.88 67.00 C 279.89 90.07 291.71 119.18 293.30 149.09 C 296.09 187.04 282.51 225.73 257.10 253.99 C 253.83 257.81 250.53 261.70 246.30 264.50 C 238.15 242.16 234.81 217.80 238.25 194.18 C 239.61 185.20 242.10 176.36 246.02 168.15 C 254.90 167.85 264.17 165.01 270.15 158.10 C 278.54 149.26 279.96 134.85 273.36 124.58 C 269.28 117.91 262.46 113.28 255.05 111.00 C 255.10 106.09 254.97 100.48 251.19 96.81 C 247.89 92.96 242.65 91.80 237.80 91.63 C 239.75 83.21 240.05 73.60 234.82 66.25 C 227.03 54.20 209.05 51.48 197.43 59.45 C 191.53 63.00 188.19 69.36 186.01 75.67 C 182.29 75.28 178.57 74.94 174.83 74.90 C 175.70 70.28 176.66 65.43 175.07 60.84 C 172.74 54.24 167.31 49.15 161.31 45.81 C 149.44 39.41 134.88 38.72 122.21 43.05 C 114.39 45.69 107.38 50.81 102.95 57.82 C 97.13 54.55 89.37 53.53 83.76 57.78 C 78.98 60.88 77.61 66.84 77.23 72.16 C 70.72 70.92 63.78 70.06 57.47 72.62 C 46.80 76.43 39.27 87.74 40.36 99.08 C 40.78 105.01 43.99 110.19 47.26 114.96 C 43.15 119.57 40.97 126.03 42.69 132.13 C 37.17 136.55 31.97 142.57 31.84 150.02 C 30.95 159.19 36.48 168.39 44.80 172.19 C 48.58 174.01 52.79 174.48 56.89 175.05 C 57.76 179.09 58.65 183.39 61.56 186.52 C 64.15 189.52 67.99 190.87 71.61 192.16 C 71.09 197.77 70.67 203.45 68.95 208.85 C 65.38 204.82 63.60 199.54 59.77 195.70 C 59.23 198.38 57.68 201.25 59.01 203.94 C 63.35 213.64 64.80 224.52 63.60 235.06 C 61.49 245.41 58.08 255.46 54.57 265.41 C 50.24 262.43 46.75 258.48 43.35 254.52 C 22.84 231.84 9.69 202.47 6.98 171.97 C 3.86 140.56 11.51 108.18 28.53 81.57 C 45.36 54.75 71.43 33.98 101.17 23.22 Z" />
<path fill="#ffffff" opacity="1.00" d=" M 64.97 102.04 C 70.95 97.64 79.16 98.31 85.75 100.90 C 85.07 102.29 84.40 103.69 83.73 105.09 C 78.89 103.74 73.00 102.28 68.65 105.66 C 63.87 109.51 63.30 116.21 63.69 121.91 C 63.82 126.78 66.31 132.16 71.15 133.90 C 75.41 134.80 79.83 134.20 84.02 133.23 C 84.00 134.77 83.98 136.30 83.95 137.84 C 77.91 139.37 70.87 140.23 65.38 136.64 C 59.92 133.08 58.04 126.17 58.05 120.00 C 57.73 113.46 59.54 106.18 64.97 102.04 Z" />
<path fill="#ffffff" opacity="1.00" d=" M 206.29 107.00 C 207.77 107.00 209.25 107.00 210.74 107.00 C 210.73 110.32 210.73 113.64 210.73 116.97 C 214.07 116.96 217.42 116.98 220.77 117.02 C 220.76 118.34 220.76 119.66 220.76 120.97 C 217.42 121.00 214.07 121.00 210.73 121.00 C 210.73 124.33 210.73 127.66 210.73 131.00 C 209.25 130.99 207.77 130.98 206.29 130.99 C 206.30 127.66 206.30 124.33 206.30 121.00 C 202.95 121.00 199.62 121.00 196.28 120.97 C 196.27 119.65 196.26 118.34 196.27 117.02 C 199.61 116.99 202.95 116.96 206.30 116.96 C 206.30 113.64 206.30 110.32 206.29 107.00 Z" />
<path fill="#ffffff" opacity="1.00" d=" M 236.29 107.00 C 237.77 107.00 239.25 107.00 240.73 107.00 C 240.73 110.32 240.73 113.64 240.73 116.97 C 244.07 116.96 247.42 116.98 250.77 117.02 C 250.76 118.34 250.76 119.66 250.76 120.97 C 247.42 121.00 244.07 121.00 240.73 121.00 C 240.73 124.33 240.73 127.67 240.73 131.00 C 239.25 130.99 237.77 130.98 236.29 130.98 C 236.30 127.66 236.30 124.33 236.30 121.00 C 232.95 121.01 229.61 121.00 226.28 120.97 C 226.27 119.65 226.26 118.34 226.26 117.03 C 229.61 116.99 232.95 116.96 236.30 116.96 C 236.30 113.64 236.30 110.32 236.29 107.00 Z" />
<path fill="#ffffff" opacity="1.00" d=" M 91.04 111.50 C 95.38 108.96 100.62 108.23 105.50 109.39 C 108.79 110.23 111.16 113.55 110.95 116.93 C 111.02 123.98 110.95 131.03 110.95 138.08 C 109.70 138.02 108.46 137.96 107.21 137.90 C 107.06 137.23 106.74 135.90 106.58 135.23 C 103.33 138.54 98.27 140.35 93.82 138.44 C 87.89 135.89 87.47 126.27 93.01 123.07 C 96.99 120.65 101.81 121.06 106.27 120.88 C 105.99 118.38 106.20 115.02 103.57 113.69 C 100.10 111.83 96.34 113.96 93.00 115.08 C 92.34 113.88 91.69 112.69 91.04 111.50 M 97.28 125.38 C 93.86 126.75 93.07 132.65 96.40 134.53 C 99.83 136.13 104.36 134.25 105.58 130.64 C 106.15 128.64 106.20 126.53 106.45 124.47 C 103.38 124.47 100.19 124.20 97.28 125.38 Z" />
<path fill="#ffffff" opacity="1.00" d=" M 123.98 112.50 C 128.20 107.70 136.53 107.45 140.46 112.73 C 144.03 108.93 150.17 107.48 154.78 110.24 C 157.83 112.04 158.32 115.89 158.50 119.11 C 158.63 125.40 158.50 131.71 158.52 138.01 C 156.75 137.99 154.99 137.98 153.22 137.97 C 153.20 131.66 153.32 125.34 153.22 119.03 C 153.20 117.15 152.89 114.86 151.12 113.81 C 147.72 111.56 142.33 113.94 141.86 118.02 C 141.14 124.65 141.71 131.34 141.54 138.00 C 139.77 137.99 138.00 137.98 136.23 137.98 C 136.23 131.99 136.28 126.01 136.26 120.03 C 136.22 117.87 136.17 115.20 134.14 113.88 C 130.74 111.49 125.45 113.93 124.96 118.04 C 124.06 124.65 124.76 131.35 124.53 138.00 C 122.76 137.99 120.99 137.98 119.23 137.98 C 119.25 128.64 119.23 119.31 119.24 109.98 C 120.72 109.99 122.19 110.00 123.66 110.02 C 123.74 110.64 123.90 111.88 123.98 112.50 Z" />
<path fill="#ffffff" opacity="1.00" d=" M 172.16 112.59 C 174.33 110.61 176.87 108.58 180.02 108.86 C 185.01 108.31 189.39 112.40 190.45 117.07 C 191.80 123.29 191.93 130.55 187.86 135.84 C 183.91 140.62 176.06 139.85 172.01 135.56 C 172.82 140.67 172.52 145.86 172.49 151.02 C 170.73 150.99 168.98 150.98 167.22 150.97 C 167.26 137.29 167.23 123.60 167.25 109.92 C 169.44 110.03 172.55 109.26 172.16 112.59 M 176.29 113.36 C 173.76 114.50 172.63 117.34 172.44 119.95 C 172.21 124.05 171.77 128.49 173.81 132.23 C 176.15 136.49 183.57 135.94 185.07 131.22 C 186.70 126.63 186.68 121.38 185.14 116.77 C 184.08 113.08 179.51 112.12 176.29 113.36 Z" />
<path fill="#ffffff" opacity="1.00" d=" M 228.89 162.28 C 231.46 163.74 234.03 165.19 236.60 166.65 C 230.85 177.24 229.26 189.32 226.35 200.85 C 222.42 192.21 220.35 182.78 219.75 173.32 C 223.74 170.54 226.87 166.71 228.89 162.28 Z" />
<path fill="#ffffff" opacity="1.00" d=" M 149.33 197.09 C 150.27 197.40 151.20 197.76 152.11 198.17 C 151.68 199.30 151.23 200.43 150.77 201.56 C 149.29 200.47 148.90 198.83 149.33 197.09 Z" />
<path fill="#ffffff" opacity="1.00" d=" M 114.30 202.51 C 138.16 202.43 162.03 202.57 185.89 202.44 C 186.94 220.35 185.61 238.27 185.90 256.18 C 161.96 256.20 138.02 256.32 114.08 256.13 C 114.11 238.26 113.90 220.38 114.30 202.51 M 146.46 205.57 C 142.79 206.40 138.93 209.85 140.17 213.96 C 142.44 218.99 148.94 220.27 153.83 218.83 C 157.49 218.06 161.04 214.36 159.73 210.42 C 157.39 205.66 151.23 204.31 146.46 205.57 M 170.11 223.07 C 167.35 223.89 164.78 226.03 164.22 228.96 C 163.76 232.15 166.65 234.60 169.30 235.74 C 174.45 238.08 181.86 236.43 184.19 230.90 C 184.91 223.78 175.63 220.89 170.11 223.07 M 115.50 247.00 C 115.74 250.18 118.61 252.35 121.39 253.36 C 126.13 254.98 131.45 253.57 135.07 250.19 C 135.02 248.08 134.99 245.96 134.97 243.85 C 132.13 240.32 127.31 239.00 122.96 239.98 C 119.35 240.43 115.75 243.16 115.50 247.00 M 145.40 240.47 C 142.09 241.58 138.74 245.08 140.26 248.79 C 143.85 255.41 154.37 255.70 158.99 250.07 C 160.66 247.96 160.28 244.56 158.23 242.84 C 154.93 239.54 149.67 239.02 145.40 240.47 M 169.40 240.57 C 166.31 241.77 163.27 245.06 164.42 248.60 C 168.06 256.39 182.64 255.82 184.35 247.00 C 183.70 240.22 174.78 238.43 169.40 240.57 Z" />
<path fill="#ffffff" opacity="1.00" d=" M 192.02 271.34 C 194.00 271.10 196.01 271.07 197.99 271.36 C 196.08 272.61 193.92 272.63 192.02 271.34 Z" />
</g>
<g id="#000000ff">
<path fill="#000000" opacity="1.00" d=" M 73.63 29.76 C 97.43 15.55 125.26 8.16 152.98 8.90 C 187.77 9.38 222.20 22.67 248.33 45.64 C 271.73 65.98 288.57 93.76 295.62 123.96 C 301.87 150.63 300.24 179.02 291.87 205.05 C 284.18 228.43 270.60 249.87 252.60 266.67 C 251.26 267.86 249.78 268.86 248.33 269.89 C 249.33 272.25 250.29 274.62 251.32 276.97 C 246.29 277.04 241.26 277.02 236.24 276.77 C 234.19 272.21 231.71 267.88 229.55 263.38 C 220.64 245.05 214.38 225.49 210.58 205.49 C 210.27 202.90 207.77 201.55 206.12 199.83 C 188.16 183.48 168.94 168.58 151.16 152.05 C 133.96 166.80 118.33 183.26 101.52 198.43 C 98.66 200.94 95.55 203.27 93.27 206.35 C 90.74 231.10 84.22 255.69 72.61 277.77 C 65.38 278.29 58.16 277.55 50.94 277.59 C 51.60 274.94 52.19 272.27 52.85 269.62 C 51.17 268.97 49.34 268.50 47.99 267.24 C 25.19 246.43 9.76 218.04 3.59 187.87 C -2.10 159.70 0.15 129.78 10.95 103.06 C 23.04 72.62 45.38 46.37 73.63 29.76 M 101.17 23.22 C 71.43 33.98 45.36 54.75 28.53 81.57 C 11.51 108.18 3.86 140.56 6.98 171.97 C 9.69 202.47 22.84 231.84 43.35 254.52 C 46.75 258.48 50.24 262.43 54.57 265.41 C 58.08 255.46 61.49 245.41 63.60 235.06 C 64.80 224.52 63.35 213.64 59.01 203.94 C 57.68 201.25 59.23 198.38 59.77 195.70 C 63.60 199.54 65.38 204.82 68.95 208.85 C 70.67 203.45 71.09 197.77 71.61 192.16 C 67.99 190.87 64.15 189.52 61.56 186.52 C 58.65 183.39 57.76 179.09 56.89 175.05 C 52.79 174.48 48.58 174.01 44.80 172.19 C 36.48 168.39 30.95 159.19 31.84 150.02 C 31.97 142.57 37.17 136.55 42.69 132.13 C 40.97 126.03 43.15 119.57 47.26 114.96 C 43.99 110.19 40.78 105.01 40.36 99.08 C 39.27 87.74 46.80 76.43 57.47 72.62 C 63.78 70.06 70.72 70.92 77.23 72.16 C 77.61 66.84 78.98 60.88 83.76 57.78 C 89.37 53.53 97.13 54.55 102.95 57.82 C 107.38 50.81 114.39 45.69 122.21 43.05 C 134.88 38.72 149.44 39.41 161.31 45.81 C 167.31 49.15 172.74 54.24 175.07 60.84 C 176.66 65.43 175.70 70.28 174.83 74.90 C 178.57 74.94 182.29 75.28 186.01 75.67 C 188.19 69.36 191.53 63.00 197.43 59.45 C 209.05 51.48 227.03 54.20 234.82 66.25 C 240.05 73.60 239.75 83.21 237.80 91.63 C 242.65 91.80 247.89 92.96 251.19 96.81 C 254.97 100.48 255.10 106.09 255.05 111.00 C 262.46 113.28 269.28 117.91 273.36 124.58 C 279.96 134.85 278.54 149.26 270.15 158.10 C 264.17 165.01 254.90 167.85 246.02 168.15 C 242.10 176.36 239.61 185.20 238.25 194.18 C 234.81 217.80 238.15 242.16 246.30 264.50 C 250.53 261.70 253.83 257.81 257.10 253.99 C 282.51 225.73 296.09 187.04 293.30 149.09 C 291.71 119.18 279.89 90.07 260.88 67.00 C 238.76 40.10 206.57 21.68 172.13 16.41 C 148.39 12.99 123.75 14.93 101.17 23.22 M 64.97 102.04 C 59.54 106.18 57.73 113.46 58.05 120.00 C 58.04 126.17 59.92 133.08 65.38 136.64 C 70.87 140.23 77.91 139.37 83.95 137.84 C 83.98 136.30 84.00 134.77 84.02 133.23 C 79.83 134.20 75.41 134.80 71.15 133.90 C 66.31 132.16 63.82 126.78 63.69 121.91 C 63.30 116.21 63.87 109.51 68.65 105.66 C 73.00 102.28 78.89 103.74 83.73 105.09 C 84.40 103.69 85.07 102.29 85.75 100.90 C 79.16 98.31 70.95 97.64 64.97 102.04 M 206.29 107.00 C 206.30 110.32 206.30 113.64 206.30 116.96 C 202.95 116.96 199.61 116.99 196.27 117.02 C 196.26 118.34 196.27 119.65 196.28 120.97 C 199.62 121.00 202.95 121.00 206.30 121.00 C 206.30 124.33 206.30 127.66 206.29 130.99 C 207.77 130.98 209.25 130.99 210.73 131.00 C 210.73 127.66 210.73 124.33 210.73 121.00 C 214.07 121.00 217.42 121.00 220.76 120.97 C 220.76 119.66 220.76 118.34 220.77 117.02 C 217.42 116.98 214.07 116.96 210.73 116.97 C 210.73 113.64 210.73 110.32 210.74 107.00 C 209.25 107.00 207.77 107.00 206.29 107.00 M 236.29 107.00 C 236.30 110.32 236.30 113.64 236.30 116.96 C 232.95 116.96 229.61 116.99 226.26 117.03 C 226.26 118.34 226.27 119.65 226.28 120.97 C 229.61 121.00 232.95 121.01 236.30 121.00 C 236.30 124.33 236.30 127.66 236.29 130.98 C 237.77 130.98 239.25 130.99 240.73 131.00 C 240.73 127.67 240.73 124.33 240.73 121.00 C 244.07 121.00 247.42 121.00 250.76 120.97 C 250.76 119.66 250.76 118.34 250.77 117.02 C 247.42 116.98 244.07 116.96 240.73 116.97 C 240.73 113.64 240.73 110.32 240.73 107.00 C 239.25 107.00 237.77 107.00 236.29 107.00 M 91.04 111.50 C 91.69 112.69 92.34 113.88 93.00 115.08 C 96.34 113.96 100.10 111.83 103.57 113.69 C 106.20 115.02 105.99 118.38 106.27 120.88 C 101.81 121.06 96.99 120.65 93.01 123.07 C 87.47 126.27 87.89 135.89 93.82 138.44 C 98.27 140.35 103.33 138.54 106.58 135.23 C 106.74 135.90 107.06 137.23 107.21 137.90 C 108.46 137.96 109.70 138.02 110.95 138.08 C 110.95 131.03 111.02 123.98 110.95 116.93 C 111.16 113.55 108.79 110.23 105.50 109.39 C 100.62 108.23 95.38 108.96 91.04 111.50 M 123.98 112.50 C 123.90 111.88 123.74 110.64 123.66 110.02 C 122.19 110.00 120.72 109.99 119.24 109.98 C 119.23 119.31 119.25 128.64 119.23 137.98 C 120.99 137.98 122.76 137.99 124.53 138.00 C 124.76 131.35 124.06 124.65 124.96 118.04 C 125.45 113.93 130.74 111.49 134.14 113.88 C 136.17 115.20 136.22 117.87 136.26 120.03 C 136.28 126.01 136.23 131.99 136.23 137.98 C 138.00 137.98 139.77 137.99 141.54 138.00 C 141.71 131.34 141.14 124.65 141.86 118.02 C 142.33 113.94 147.72 111.56 151.12 113.81 C 152.89 114.86 153.20 117.15 153.22 119.03 C 153.32 125.34 153.20 131.66 153.22 137.97 C 154.99 137.98 156.75 137.99 158.52 138.01 C 158.50 131.71 158.63 125.40 158.50 119.11 C 158.32 115.89 157.83 112.04 154.78 110.24 C 150.17 107.48 144.03 108.93 140.46 112.73 C 136.53 107.45 128.20 107.70 123.98 112.50 M 172.16 112.59 C 172.55 109.26 169.44 110.03 167.25 109.92 C 167.23 123.60 167.26 137.29 167.22 150.97 C 168.98 150.98 170.73 150.99 172.49 151.02 C 172.52 145.86 172.82 140.67 172.01 135.56 C 176.06 139.85 183.91 140.62 187.86 135.84 C 191.93 130.55 191.80 123.29 190.45 117.07 C 189.39 112.40 185.01 108.31 180.02 108.86 C 176.87 108.58 174.33 110.61 172.16 112.59 M 228.89 162.28 C 226.87 166.71 223.74 170.54 219.75 173.32 C 220.35 182.78 222.42 192.21 226.35 200.85 C 229.26 189.32 230.85 177.24 236.60 166.65 C 234.03 165.19 231.46 163.74 228.89 162.28 Z" />
<path fill="#000000" opacity="1.00" d=" M 176.29 113.36 C 179.51 112.12 184.08 113.08 185.14 116.77 C 186.68 121.38 186.70 126.63 185.07 131.22 C 183.57 135.94 176.15 136.49 173.81 132.23 C 171.77 128.49 172.21 124.05 172.44 119.95 C 172.63 117.34 173.76 114.50 176.29 113.36 Z" />
<path fill="#000000" opacity="1.00" d=" M 97.28 125.38 C 100.19 124.20 103.38 124.47 106.45 124.47 C 106.20 126.53 106.15 128.64 105.58 130.64 C 104.36 134.25 99.83 136.13 96.40 134.53 C 93.07 132.65 93.86 126.75 97.28 125.38 Z" />
<path fill="#000000" opacity="1.00" d=" M 111.65 196.64 C 113.44 195.28 115.80 195.35 117.93 195.32 C 140.27 195.41 162.62 195.29 184.96 195.38 C 189.44 195.22 192.82 199.68 192.81 203.89 C 192.67 223.51 192.86 243.13 192.21 262.74 C 164.14 262.63 136.07 262.70 107.99 262.72 C 107.33 243.79 108.23 224.84 107.99 205.90 C 107.82 202.50 108.81 198.76 111.65 196.64 M 149.33 197.09 C 148.90 198.83 149.29 200.47 150.77 201.56 C 151.23 200.43 151.68 199.30 152.11 198.17 C 151.20 197.76 150.27 197.40 149.33 197.09 M 114.30 202.51 C 113.90 220.38 114.11 238.26 114.08 256.13 C 138.02 256.32 161.96 256.20 185.90 256.18 C 185.61 238.27 186.94 220.35 185.89 202.44 C 162.03 202.57 138.16 202.43 114.30 202.51 Z" />
<path fill="#000000" opacity="1.00" d=" M 146.46 205.57 C 151.23 204.31 157.39 205.66 159.73 210.42 C 161.04 214.36 157.49 218.06 153.83 218.83 C 148.94 220.27 142.44 218.99 140.17 213.96 C 138.93 209.85 142.79 206.40 146.46 205.57 Z" />
<path fill="#000000" opacity="1.00" d=" M 170.11 223.07 C 175.63 220.89 184.91 223.78 184.19 230.90 C 181.86 236.43 174.45 238.08 169.30 235.74 C 166.65 234.60 163.76 232.15 164.22 228.96 C 164.78 226.03 167.35 223.89 170.11 223.07 Z" />
<path fill="#000000" opacity="1.00" d=" M 115.50 247.00 C 115.75 243.16 119.35 240.43 122.96 239.98 C 127.31 239.00 132.13 240.32 134.97 243.85 C 134.99 245.96 135.02 248.08 135.07 250.19 C 131.45 253.57 126.13 254.98 121.39 253.36 C 118.61 252.35 115.74 250.18 115.50 247.00 Z" />
<path fill="#000000" opacity="1.00" d=" M 145.40 240.47 C 149.67 239.02 154.93 239.54 158.23 242.84 C 160.28 244.56 160.66 247.96 158.99 250.07 C 154.37 255.70 143.85 255.41 140.26 248.79 C 138.74 245.08 142.09 241.58 145.40 240.47 Z" />
<path fill="#000000" opacity="1.00" d=" M 169.40 240.57 C 174.78 238.43 183.70 240.22 184.35 247.00 C 182.64 255.82 168.06 256.39 164.42 248.60 C 163.27 245.06 166.31 241.77 169.40 240.57 Z" />
<path fill="#000000" opacity="1.00" d=" M 90.29 267.14 C 130.08 267.05 169.87 267.10 209.66 267.12 C 209.71 269.96 210.09 272.95 208.78 275.59 C 204.42 277.40 199.65 277.78 194.99 277.74 C 164.65 277.78 134.31 277.75 103.97 277.76 C 99.79 277.67 95.29 277.57 91.58 275.40 C 89.28 273.29 90.50 269.86 90.29 267.14 M 192.02 271.34 C 193.92 272.63 196.08 272.61 197.99 271.36 C 196.01 271.07 194.00 271.10 192.02 271.34 Z" />
</g>
</svg>
