<?xml version="1.0" encoding="UTF-8" ?>
<!DOCTYPE svg PUBLIC "-//W3C//DTD SVG 1.1//EN" "http://www.w3.org/Graphics/SVG/1.1/DTD/svg11.dtd">
<svg width="300pt" height="300pt" viewBox="0 0 300 300" version="1.1" xmlns="http://www.w3.org/2000/svg">
<g id="#ffffffff">
<path fill="#ffffff" opacity="1.00" d=" M 0.00 0.00 L 300.00 0.00 L 300.00 300.00 L 0.00 300.00 L 0.00 0.00 M 65.86 34.78 C 35.90 55.06 13.74 86.57 4.99 121.69 C -6.62 167.53 5.09 218.61 35.90 254.55 L 35.95 254.62 C 39.41 258.94 43.53 262.69 47.40 266.64 C 48.82 268.36 51.02 268.87 53.02 269.57 C 52.31 272.22 51.67 274.89 51.01 277.56 C 58.29 277.18 65.60 278.68 72.84 277.52 C 83.99 255.23 91.05 230.81 93.13 205.95 C 95.07 204.12 96.98 202.26 98.87 200.38 L 99.76 200.67 L 99.55 200.06 C 103.97 196.51 107.82 192.32 111.88 188.37 L 112.69 188.54 L 112.33 187.22 L 113.10 187.65 C 113.50 187.29 114.30 186.56 114.70 186.20 L 114.59 186.06 C 121.54 180.06 127.64 173.14 134.49 167.03 L 134.49 166.31 L 135.78 166.64 L 135.28 165.77 C 135.68 165.60 136.49 165.26 136.89 165.09 C 140.42 161.57 144.06 158.16 147.66 154.71 C 147.95 154.44 148.53 153.90 148.82 153.63 C 149.82 153.11 150.82 152.59 151.84 152.10 C 155.28 155.49 158.63 159.01 162.41 162.05 L 162.50 162.07 C 165.14 164.25 167.48 166.77 170.23 168.82 C 172.32 170.54 174.28 172.40 176.41 174.07 L 176.45 174.07 C 178.75 175.94 180.85 178.05 183.23 179.82 C 185.32 181.54 187.28 183.41 189.41 185.08 L 189.45 185.06 C 191.75 186.93 193.90 188.97 196.05 191.01 C 196.38 191.17 197.03 191.49 197.36 191.65 C 199.99 194.19 202.56 196.81 205.46 199.05 L 205.26 199.68 L 206.11 199.37 C 207.53 200.80 208.97 202.20 210.43 203.58 C 212.83 219.48 217.87 234.86 223.60 249.84 C 227.00 259.13 232.10 267.65 236.18 276.63 C 241.20 277.15 246.25 276.99 251.29 277.00 C 250.25 274.56 249.14 272.16 248.20 269.69 C 254.47 265.91 259.10 259.98 264.02 254.67 L 264.14 254.44 C 297.76 215.37 308.45 158.12 291.36 109.52 C 281.55 80.89 262.68 55.51 238.26 37.68 C 214.24 20.02 184.81 9.89 155.01 8.99 C 123.55 7.77 91.84 17.01 65.86 34.78 M 115.57 212.95 C 115.68 230.06 115.31 247.16 115.57 264.26 C 138.26 264.22 160.94 264.24 183.63 264.26 C 183.69 247.15 183.93 230.05 184.15 212.95 C 184.21 209.33 182.13 204.42 177.90 204.50 C 159.26 204.42 140.62 204.46 121.98 204.47 C 117.60 204.22 115.54 209.30 115.57 212.95 M 101.29 268.39 C 101.63 270.92 100.25 274.45 102.96 276.02 C 106.01 277.61 109.59 277.62 112.96 277.69 C 137.65 277.66 162.34 277.72 187.03 277.66 C 190.49 277.39 194.58 277.64 197.31 275.15 C 197.89 272.95 197.58 270.63 197.68 268.38 C 165.55 268.37 133.42 268.32 101.29 268.39 Z" />
<path fill="#ffffff" opacity="1.00" d=" M 89.74 28.01 C 130.04 9.22 179.09 10.65 218.13 32.00 C 221.57 33.87 224.90 35.93 228.24 37.98 C 242.87 47.56 255.77 59.68 266.08 73.82 C 273.38 83.91 279.45 94.88 283.96 106.50 C 298.72 144.31 296.40 188.38 277.45 224.32 C 273.91 231.28 269.65 237.84 265.10 244.18 C 259.30 251.29 253.75 258.86 246.36 264.42 C 236.58 237.16 233.38 206.65 241.93 178.63 C 242.27 177.67 242.60 176.71 242.93 175.75 C 243.61 174.06 244.29 172.37 245.03 170.70 C 245.37 169.87 245.69 169.03 246.01 168.20 C 254.43 168.00 263.32 165.51 269.22 159.18 C 278.01 150.94 280.09 137.02 274.61 126.37 C 272.50 122.95 270.12 119.65 267.02 117.05 C 263.42 114.33 259.34 112.32 255.03 111.01 C 254.98 107.12 255.38 102.94 253.29 99.46 C 250.19 93.98 243.90 91.39 237.79 91.60 C 239.31 85.02 240.21 77.89 237.61 71.47 C 235.51 65.69 231.15 60.96 225.89 57.87 C 216.07 52.92 203.58 54.09 194.98 60.99 C 192.28 63.36 190.26 66.34 188.40 69.38 C 187.59 71.44 186.81 73.51 186.06 75.59 C 182.33 75.18 178.59 74.86 174.83 74.91 C 176.62 68.64 176.59 61.75 173.05 56.07 C 165.62 45.50 152.57 40.52 140.01 40.20 C 131.84 39.98 123.70 41.94 116.29 45.34 C 110.88 48.29 106.23 52.60 102.96 57.83 C 96.22 53.50 86.71 53.80 81.12 59.88 C 80.53 60.75 79.93 61.61 79.32 62.46 C 77.98 65.52 77.40 68.85 77.24 72.18 C 69.61 70.28 61.28 70.19 54.17 73.90 C 49.48 76.58 45.62 80.55 42.93 85.22 C 40.37 91.04 39.10 97.72 41.24 103.88 C 42.32 108.02 44.97 111.42 47.14 115.01 C 43.01 119.65 40.84 126.04 42.68 132.18 C 38.66 135.29 34.83 139.00 33.06 143.89 C 30.76 149.95 31.45 156.95 34.34 162.70 C 36.79 166.57 40.14 169.84 44.11 172.14 C 48.22 173.83 52.60 174.83 57.04 175.02 C 57.28 178.01 58.17 180.90 59.26 183.68 C 61.97 188.08 66.49 190.98 71.49 192.11 C 71.10 197.69 70.47 203.31 69.01 208.73 C 68.11 207.66 67.24 206.58 66.44 205.44 C 65.64 204.01 64.83 202.59 64.03 201.16 C 62.67 199.12 61.30 197.09 59.80 195.15 C 59.24 197.44 58.56 199.70 58.22 202.03 C 58.64 203.65 59.40 205.15 60.07 206.68 C 63.50 215.69 64.60 225.60 63.54 235.15 C 61.34 245.45 58.02 255.48 54.47 265.38 C 46.93 259.37 40.91 251.72 34.94 244.21 C 30.98 238.73 27.25 233.08 23.99 227.15 C 20.57 220.71 17.48 214.09 14.94 207.26 C 3.29 175.03 3.59 138.70 15.93 106.71 C 16.62 105.05 17.30 103.38 17.98 101.72 C 19.95 97.25 22.06 92.84 24.49 88.60 C 28.11 82.01 32.35 75.79 36.91 69.83 C 46.64 57.32 58.59 46.68 71.77 37.94 C 75.08 35.90 78.40 33.85 81.82 32.00 C 84.45 30.64 87.10 29.34 89.74 28.01 Z" />
<path fill="#ffffff" opacity="1.00" d=" M 136.89 45.60 C 138.94 45.53 140.99 45.53 143.04 45.64 C 145.44 47.46 148.21 49.62 148.54 52.85 C 149.08 55.85 146.80 58.19 145.19 60.40 C 144.95 60.51 144.48 60.72 144.24 60.82 C 141.65 61.96 138.78 61.53 136.06 61.35 C 133.37 58.86 130.87 55.74 131.43 51.82 C 132.83 49.40 134.55 47.17 136.89 45.60 Z" />
<path fill="#ffffff" opacity="1.00" d=" M 152.74 70.15 C 154.56 68.32 156.35 66.15 159.00 65.58 C 160.68 65.40 162.36 65.59 164.03 65.70 C 165.98 67.31 167.67 69.18 169.22 71.17 C 170.63 75.55 168.14 79.61 164.79 82.26 C 162.43 82.47 160.06 82.51 157.69 82.50 C 155.77 80.94 154.02 79.17 152.47 77.25 C 152.21 74.88 152.28 72.49 152.74 70.15 Z" />
<path fill="#ffffff" opacity="1.00" d=" M 114.65 86.67 C 117.74 85.47 121.10 85.29 124.11 86.85 C 125.21 88.10 126.30 89.36 127.36 90.64 C 127.32 92.81 127.32 94.98 127.34 97.16 C 126.05 98.72 124.69 100.22 123.23 101.61 C 122.81 101.51 121.99 101.29 121.58 101.18 L 121.62 102.32 C 120.18 102.31 118.75 102.32 117.32 102.34 L 117.52 101.89 C 116.27 101.40 115.04 100.87 113.82 100.34 C 112.80 98.86 111.82 97.35 110.85 95.83 C 110.73 94.86 110.61 93.89 110.50 92.92 C 111.65 90.69 112.93 88.52 114.65 86.67 Z" />
<path fill="#ffffff" opacity="1.00" d=" M 137.01 85.74 C 138.81 85.68 140.60 85.64 142.40 85.60 C 145.00 87.13 147.06 89.32 148.62 91.89 C 149.24 95.93 146.82 100.00 143.09 101.54 C 140.32 101.84 137.01 102.32 134.76 100.29 C 132.30 98.31 131.07 95.20 131.49 92.07 C 131.80 91.49 132.42 90.32 132.72 89.74 C 134.04 88.29 135.53 87.02 137.01 85.74 Z" />
<path fill="#ffffff" opacity="1.00" d=" M 152.79 90.14 C 155.35 86.77 159.21 84.70 163.53 85.52 L 163.68 85.86 C 165.98 87.12 167.66 89.14 169.21 91.19 C 170.63 95.55 168.15 99.57 164.85 102.24 C 162.29 102.57 159.70 102.60 157.15 102.31 C 155.21 100.14 152.22 98.24 152.26 95.00 C 152.14 93.36 152.53 91.75 152.79 90.14 Z" />
<path fill="#ffffff" opacity="1.00" d=" M 79.40 101.00 C 80.24 99.76 81.25 98.65 82.26 97.54 C 86.49 97.60 90.72 97.58 94.94 97.57 L 95.05 99.19 C 95.49 99.19 96.38 99.18 96.82 99.18 C 96.82 99.62 96.81 100.51 96.81 100.95 L 98.44 101.06 C 98.42 102.71 98.42 104.35 98.41 106.00 C 97.56 106.00 95.85 106.00 95.00 106.00 C 95.00 105.21 95.00 103.61 95.00 102.82 C 94.55 102.82 93.65 102.82 93.19 102.82 C 93.19 102.37 93.18 101.46 93.17 101.00 C 89.90 101.00 86.63 100.99 83.36 101.01 L 83.42 101.93 C 81.08 103.56 81.97 106.52 81.80 108.92 C 81.95 114.39 81.58 119.89 81.98 125.35 C 82.35 125.72 83.10 126.45 83.47 126.82 L 83.37 127.60 C 86.66 127.57 89.95 127.58 93.24 127.58 L 93.12 126.04 C 93.59 126.03 94.53 126.00 95.00 125.99 C 95.00 125.13 95.00 123.43 95.00 122.57 C 95.85 122.58 97.55 122.59 98.40 122.59 C 98.41 124.11 98.43 125.62 98.44 127.13 C 97.63 127.93 96.83 128.75 96.05 129.58 L 95.06 129.24 C 95.04 129.68 95.00 130.56 94.97 131.00 C 90.50 131.00 86.02 131.00 81.55 131.00 C 81.58 130.61 81.63 129.84 81.66 129.46 C 81.44 129.44 80.98 129.39 80.75 129.37 C 80.10 128.84 78.80 127.77 78.14 127.23 C 78.22 118.50 78.18 109.77 78.16 101.04 C 78.47 101.03 79.09 101.01 79.40 101.00 Z" />
<path fill="#ffffff" opacity="1.00" d=" M 193.58 104.18 C 194.71 104.18 195.85 104.18 197.00 104.18 C 197.00 106.98 197.00 109.78 197.00 112.58 C 199.80 112.58 202.60 112.58 205.40 112.59 C 205.41 113.44 205.42 115.15 205.43 116.00 C 202.62 116.00 199.81 116.00 197.00 116.00 C 197.00 118.81 197.00 121.62 197.00 124.43 C 196.15 124.42 194.44 124.41 193.59 124.40 C 193.58 121.60 193.58 118.80 193.58 116.00 C 190.78 116.00 187.98 116.00 185.18 116.00 C 185.18 114.85 185.18 113.71 185.18 112.58 C 187.99 112.58 190.79 112.58 193.60 112.60 C 193.58 109.79 193.58 106.99 193.58 104.18 Z" />
<path fill="#ffffff" opacity="1.00" d=" M 220.58 104.19 C 221.71 104.18 222.85 104.18 224.00 104.18 C 224.00 106.98 224.00 109.78 224.00 112.58 C 226.80 112.58 229.60 112.58 232.40 112.59 C 232.41 113.44 232.42 115.15 232.43 116.00 C 229.62 116.00 226.81 116.00 224.00 116.00 C 224.00 118.81 224.00 121.62 224.00 124.43 C 223.15 124.42 221.44 124.41 220.59 124.40 C 220.58 121.60 220.58 118.80 220.58 116.00 C 217.78 116.00 214.98 116.00 212.18 116.00 C 212.18 114.86 212.18 113.71 212.18 112.58 C 214.99 112.58 217.79 112.58 220.60 112.60 C 220.57 109.79 220.58 106.99 220.58 104.19 Z" />
<path fill="#ffffff" opacity="1.00" d=" M 107.00 107.58 C 111.98 107.58 116.96 107.59 121.94 107.57 L 122.05 109.20 C 122.49 109.19 123.37 109.18 123.81 109.17 C 123.81 109.61 123.81 110.50 123.81 110.95 L 125.43 111.06 C 125.40 117.71 125.43 124.35 125.42 131.00 C 119.79 131.00 114.17 131.00 108.55 131.00 C 108.58 130.61 108.63 129.84 108.66 129.46 C 108.44 129.44 107.98 129.39 107.75 129.37 C 107.10 128.84 105.80 127.77 105.15 127.23 C 105.19 124.74 105.19 122.25 105.15 119.77 C 105.80 119.23 107.10 118.16 107.75 117.63 C 107.98 117.61 108.43 117.57 108.66 117.55 C 108.63 117.16 108.58 116.39 108.55 116.00 C 113.03 116.00 117.52 116.00 122.00 116.00 C 122.00 115.21 122.00 113.62 122.00 112.82 C 121.54 112.82 120.63 112.81 120.18 112.81 C 120.18 112.36 120.18 111.45 120.18 111.00 C 115.79 111.00 111.39 111.00 107.00 111.00 C 107.00 110.15 107.00 108.44 107.00 107.58 M 110.34 119.40 C 110.38 119.79 110.44 120.56 110.47 120.94 L 108.82 121.04 C 108.82 122.68 108.82 124.31 108.82 125.95 L 110.48 126.06 C 110.44 126.45 110.38 127.21 110.34 127.60 C 114.23 127.57 118.11 127.58 122.00 127.58 C 122.00 124.86 122.00 122.14 122.00 119.42 C 118.11 119.42 114.23 119.43 110.34 119.40 Z" />
<path fill="#ffffff" opacity="1.00" d=" M 132.18 107.58 C 137.76 107.57 143.35 107.59 148.94 107.57 L 149.06 109.19 C 149.50 109.19 150.38 109.18 150.82 109.18 C 150.82 109.62 150.81 110.50 150.81 110.94 L 152.43 111.07 C 152.40 117.71 152.43 124.35 152.42 131.00 C 151.56 131.00 149.85 131.00 149.00 131.00 C 149.00 124.94 149.00 118.88 149.00 112.82 C 148.55 112.82 147.64 112.82 147.19 112.82 C 147.19 112.36 147.18 111.46 147.18 111.00 C 146.38 111.00 144.79 111.00 144.00 111.00 C 144.00 117.67 144.00 124.33 144.00 131.00 C 143.15 131.00 141.44 131.00 140.58 131.00 C 140.58 124.33 140.58 117.67 140.58 111.00 C 138.99 111.00 137.40 111.00 135.82 111.00 C 135.82 117.67 135.82 124.33 135.82 131.00 C 134.60 131.00 133.39 131.00 132.18 131.00 C 132.18 123.19 132.18 115.39 132.18 107.58 Z" />
<path fill="#ffffff" opacity="1.00" d=" M 159.18 107.58 C 164.76 107.57 170.35 107.59 175.94 107.57 L 176.06 109.19 C 176.50 109.19 177.38 109.19 177.83 109.19 C 177.82 109.63 177.81 110.51 177.80 110.95 L 179.43 111.06 C 179.41 116.42 179.40 121.78 179.44 127.15 C 178.87 127.72 177.74 128.86 177.18 129.43 C 176.91 129.41 176.36 129.38 176.09 129.36 C 176.06 129.77 175.99 130.59 175.96 131.00 C 171.58 131.00 167.20 131.00 162.82 131.00 C 162.82 133.81 162.82 136.61 162.82 139.42 C 161.60 139.42 160.39 139.42 159.18 139.42 C 159.18 128.81 159.18 118.19 159.18 107.58 M 162.82 111.00 C 162.81 116.53 162.83 122.06 162.81 127.58 C 166.27 127.58 169.74 127.57 173.20 127.60 C 173.90 127.05 175.30 125.96 176.00 125.42 C 176.00 121.22 176.00 117.02 176.00 112.82 C 175.55 112.82 174.64 112.81 174.18 112.81 C 174.18 112.36 174.18 111.45 174.18 111.00 C 170.39 111.00 166.61 111.00 162.82 111.00 Z" />
<path fill="#ffffff" opacity="1.00" d=" M 228.81 162.34 C 231.37 163.84 233.95 165.28 236.57 166.68 C 230.77 177.34 228.88 189.45 226.45 201.18 C 222.71 192.34 220.46 182.88 219.78 173.31 C 223.85 170.68 227.06 166.88 228.81 162.34 Z" />
<path fill="#ffffff" opacity="1.00" d=" M 148.78 206.49 C 149.26 206.44 150.24 206.35 150.73 206.31 C 150.75 206.93 150.79 208.18 150.81 208.80 C 150.31 208.80 149.29 208.80 148.78 208.80 C 148.78 208.22 148.78 207.06 148.78 206.49 Z" />
<path fill="#ffffff" opacity="1.00" d=" M 120.39 258.47 C 120.46 242.57 120.34 226.66 120.63 210.76 C 139.97 210.70 159.31 210.77 178.64 210.72 C 178.95 226.64 178.57 242.56 178.62 258.47 C 159.21 258.48 139.80 258.49 120.39 258.47 M 145.78 214.69 C 145.83 220.50 142.02 225.49 142.04 231.35 C 141.43 230.43 140.20 228.60 139.58 227.68 C 139.14 230.32 139.17 233.25 137.53 235.51 C 135.43 238.63 133.08 241.96 133.60 245.93 C 136.28 249.22 140.66 249.87 144.44 251.20 C 140.77 251.41 137.09 251.13 133.45 251.71 C 135.79 252.72 138.35 252.32 140.82 252.33 C 140.73 252.71 140.53 253.47 140.43 253.85 C 142.58 253.76 144.73 253.66 146.88 253.57 C 146.83 254.27 146.73 255.67 146.68 256.37 C 148.94 256.50 151.57 256.98 151.95 253.97 C 153.16 254.73 154.35 255.48 155.57 256.24 C 155.30 255.45 154.74 253.87 154.46 253.08 C 157.66 253.20 160.84 253.59 164.01 253.99 C 162.99 253.36 160.94 252.10 159.92 251.48 C 163.12 251.33 166.40 251.97 169.53 251.02 C 167.37 250.57 165.17 250.58 162.98 250.50 C 167.26 247.06 168.15 241.42 168.55 236.28 C 167.30 237.20 166.05 238.13 164.81 239.05 C 163.25 235.27 162.24 231.30 161.02 227.41 C 160.10 228.20 159.18 228.99 158.25 229.78 C 157.24 225.28 156.60 220.61 154.14 216.61 C 153.30 219.42 151.90 222.02 149.82 224.11 C 149.82 220.47 148.49 217.15 145.78 214.69 Z" />
<path fill="#ffffff" opacity="1.00" d=" M 147.28 240.99 C 148.29 237.43 149.03 233.80 150.11 230.27 C 150.87 233.38 151.31 236.56 151.93 239.70 C 152.20 238.70 152.75 236.68 153.02 235.67 C 154.86 239.83 158.94 242.46 160.42 246.83 C 160.05 248.11 159.69 249.40 159.35 250.69 C 155.51 250.59 151.68 250.88 147.87 251.38 C 145.98 249.31 143.69 247.40 142.80 244.64 C 142.10 242.29 143.60 240.11 144.55 238.09 C 145.46 239.05 146.37 240.01 147.28 240.99 Z" />
</g>
<g id="#000000ff">
<path fill="#000000" opacity="1.00" d=" M 65.86 34.78 C 91.84 17.01 123.55 7.77 155.01 8.99 C 184.81 9.89 214.24 20.02 238.26 37.68 C 262.68 55.51 281.55 80.89 291.36 109.52 C 308.45 158.12 297.76 215.37 264.14 254.44 L 264.02 254.67 C 259.10 259.98 254.47 265.91 248.20 269.69 C 249.14 272.16 250.25 274.56 251.29 277.00 C 246.25 276.99 241.20 277.15 236.18 276.63 C 232.10 267.65 227.00 259.13 223.60 249.84 C 217.87 234.86 212.83 219.48 210.43 203.58 C 208.97 202.20 207.53 200.80 206.11 199.37 L 205.26 199.68 L 205.46 199.05 C 202.56 196.81 199.99 194.19 197.36 191.65 C 197.03 191.49 196.38 191.17 196.05 191.01 C 193.90 188.97 191.75 186.93 189.45 185.06 L 189.41 185.08 C 187.28 183.41 185.32 181.54 183.23 179.82 C 180.85 178.05 178.75 175.94 176.45 174.07 L 176.41 174.07 C 174.28 172.40 172.32 170.54 170.23 168.82 C 167.48 166.77 165.14 164.25 162.50 162.07 L 162.41 162.05 C 158.63 159.01 155.28 155.49 151.84 152.10 C 150.82 152.59 149.82 153.11 148.82 153.63 C 148.53 153.90 147.95 154.44 147.66 154.71 C 144.06 158.16 140.42 161.57 136.89 165.09 C 136.49 165.26 135.68 165.60 135.28 165.77 L 135.78 166.64 L 134.49 166.31 L 134.49 167.03 C 127.64 173.14 121.54 180.06 114.59 186.06 L 114.70 186.20 C 114.30 186.56 113.50 187.29 113.10 187.65 L 112.33 187.22 L 112.69 188.54 L 111.88 188.37 C 107.82 192.32 103.97 196.51 99.55 200.06 L 99.76 200.67 L 98.87 200.38 C 96.98 202.26 95.07 204.12 93.13 205.95 C 91.05 230.81 83.99 255.23 72.84 277.52 C 65.60 278.68 58.29 277.18 51.01 277.56 C 51.67 274.89 52.31 272.22 53.02 269.57 C 51.02 268.87 48.82 268.36 47.40 266.64 C 43.53 262.69 39.41 258.94 35.95 254.62 L 35.90 254.55 C 5.09 218.61 -6.62 167.53 4.99 121.69 C 13.74 86.57 35.90 55.06 65.86 34.78 M 89.74 28.01 C 87.10 29.34 84.45 30.64 81.82 32.00 C 78.40 33.85 75.08 35.90 71.77 37.94 C 58.59 46.68 46.64 57.32 36.91 69.83 C 32.35 75.79 28.11 82.01 24.49 88.60 C 22.06 92.84 19.95 97.25 17.98 101.72 C 17.30 103.38 16.62 105.05 15.93 106.71 C 3.59 138.70 3.29 175.03 14.94 207.26 C 17.48 214.09 20.57 220.71 23.99 227.15 C 27.25 233.08 30.98 238.73 34.94 244.21 C 40.91 251.72 46.93 259.37 54.47 265.38 C 58.02 255.48 61.34 245.45 63.54 235.15 C 64.60 225.60 63.50 215.69 60.07 206.68 C 59.40 205.15 58.64 203.65 58.22 202.03 C 58.56 199.70 59.24 197.44 59.80 195.15 C 61.30 197.09 62.67 199.12 64.03 201.16 C 64.83 202.59 65.64 204.01 66.44 205.44 C 67.24 206.58 68.11 207.66 69.01 208.73 C 70.47 203.31 71.10 197.69 71.49 192.11 C 66.49 190.98 61.97 188.08 59.26 183.68 C 58.17 180.90 57.28 178.01 57.04 175.02 C 52.60 174.83 48.22 173.83 44.11 172.14 C 40.14 169.84 36.79 166.57 34.34 162.70 C 31.45 156.95 30.76 149.95 33.06 143.89 C 34.83 139.00 38.66 135.29 42.68 132.18 C 40.84 126.04 43.01 119.65 47.14 115.01 C 44.97 111.42 42.32 108.02 41.24 103.88 C 39.10 97.72 40.37 91.04 42.93 85.22 C 45.62 80.55 49.48 76.58 54.17 73.90 C 61.28 70.19 69.61 70.28 77.24 72.18 C 77.40 68.85 77.98 65.52 79.32 62.46 C 79.93 61.61 80.53 60.75 81.12 59.88 C 86.71 53.80 96.22 53.50 102.96 57.83 C 106.23 52.60 110.88 48.29 116.29 45.34 C 123.70 41.94 131.84 39.98 140.01 40.20 C 152.57 40.52 165.62 45.50 173.05 56.07 C 176.59 61.75 176.62 68.64 174.83 74.91 C 178.59 74.86 182.33 75.18 186.06 75.59 C 186.81 73.51 187.59 71.44 188.40 69.38 C 190.26 66.34 192.28 63.36 194.98 60.99 C 203.58 54.09 216.07 52.92 225.89 57.87 C 231.15 60.96 235.51 65.69 237.61 71.47 C 240.21 77.89 239.31 85.02 237.79 91.60 C 243.90 91.39 250.19 93.98 253.29 99.46 C 255.38 102.94 254.98 107.12 255.03 111.01 C 259.34 112.32 263.42 114.33 267.02 117.05 C 270.12 119.65 272.50 122.95 274.61 126.37 C 280.09 137.02 278.01 150.94 269.22 159.18 C 263.32 165.51 254.43 168.00 246.01 168.20 C 245.69 169.03 245.37 169.87 245.03 170.70 C 244.29 172.37 243.61 174.06 242.93 175.75 C 242.60 176.71 242.27 177.67 241.93 178.63 C 233.38 206.65 236.58 237.16 246.36 264.42 C 253.75 258.86 259.30 251.29 265.10 244.18 C 269.65 237.84 273.91 231.28 277.45 224.32 C 296.40 188.38 298.72 144.31 283.96 106.50 C 279.45 94.88 273.38 83.91 266.08 73.82 C 255.77 59.68 242.87 47.56 228.24 37.98 C 224.90 35.93 221.57 33.87 218.13 32.00 C 179.09 10.65 130.04 9.22 89.74 28.01 M 136.89 45.60 C 134.55 47.17 132.83 49.40 131.43 51.82 C 130.87 55.74 133.37 58.86 136.06 61.35 C 138.78 61.53 141.65 61.96 144.24 60.82 C 144.48 60.72 144.95 60.51 145.19 60.40 C 146.80 58.19 149.08 55.85 148.54 52.85 C 148.21 49.62 145.44 47.46 143.04 45.64 C 140.99 45.53 138.94 45.53 136.89 45.60 M 152.74 70.15 C 152.28 72.49 152.21 74.88 152.47 77.25 C 154.02 79.17 155.77 80.94 157.69 82.50 C 160.06 82.51 162.43 82.47 164.79 82.26 C 168.14 79.61 170.63 75.55 169.22 71.17 C 167.67 69.18 165.98 67.31 164.03 65.70 C 162.36 65.59 160.68 65.40 159.00 65.58 C 156.35 66.15 154.56 68.32 152.74 70.15 M 114.65 86.67 C 112.93 88.52 111.65 90.69 110.50 92.92 C 110.61 93.89 110.73 94.86 110.85 95.83 C 111.82 97.35 112.80 98.86 113.82 100.34 C 115.04 100.87 116.27 101.40 117.52 101.89 L 117.32 102.34 C 118.75 102.32 120.18 102.31 121.62 102.32 L 121.58 101.18 C 121.99 101.29 122.81 101.51 123.23 101.61 C 124.69 100.22 126.05 98.72 127.34 97.16 C 127.32 94.98 127.32 92.81 127.36 90.64 C 126.30 89.36 125.21 88.10 124.11 86.85 C 121.10 85.29 117.74 85.47 114.65 86.67 M 137.01 85.74 C 135.53 87.02 134.04 88.29 132.72 89.74 C 132.42 90.32 131.80 91.49 131.49 92.07 C 131.07 95.20 132.30 98.31 134.76 100.29 C 137.01 102.32 140.32 101.84 143.09 101.54 C 146.82 100.00 149.24 95.93 148.62 91.89 C 147.06 89.32 145.00 87.13 142.40 85.60 C 140.60 85.64 138.81 85.68 137.01 85.74 M 152.79 90.14 C 152.53 91.75 152.14 93.36 152.26 95.00 C 152.22 98.24 155.21 100.14 157.15 102.31 C 159.70 102.60 162.29 102.57 164.85 102.24 C 168.15 99.57 170.63 95.55 169.21 91.19 C 167.66 89.14 165.98 87.12 163.68 85.86 L 163.53 85.52 C 159.21 84.70 155.35 86.77 152.79 90.14 M 79.40 101.00 C 79.09 101.01 78.47 101.03 78.16 101.04 C 78.18 109.77 78.22 118.50 78.14 127.23 C 78.80 127.77 80.10 128.84 80.75 129.37 C 80.98 129.39 81.44 129.44 81.66 129.46 C 81.63 129.84 81.58 130.61 81.55 131.00 C 86.02 131.00 90.50 131.00 94.97 131.00 C 95.00 130.56 95.04 129.68 95.06 129.24 L 96.05 129.58 C 96.83 128.75 97.63 127.93 98.44 127.13 C 98.43 125.62 98.41 124.11 98.40 122.59 C 97.55 122.59 95.85 122.58 95.00 122.57 C 95.00 123.43 95.00 125.13 95.00 125.99 C 94.53 126.00 93.59 126.03 93.12 126.04 L 93.24 127.58 C 89.95 127.58 86.66 127.57 83.37 127.60 L 83.47 126.82 C 83.10 126.45 82.35 125.72 81.98 125.35 C 81.58 119.89 81.95 114.39 81.80 108.92 C 81.97 106.52 81.08 103.56 83.42 101.93 L 83.36 101.01 C 86.63 100.99 89.90 101.00 93.17 101.00 C 93.18 101.46 93.19 102.37 93.19 102.82 C 93.65 102.82 94.55 102.82 95.00 102.82 C 95.00 103.61 95.00 105.21 95.00 106.00 C 95.85 106.00 97.56 106.00 98.41 106.00 C 98.42 104.35 98.42 102.71 98.44 101.06 L 96.81 100.95 C 96.81 100.51 96.82 99.62 96.82 99.18 C 96.38 99.18 95.49 99.19 95.05 99.19 L 94.94 97.57 C 90.72 97.58 86.49 97.60 82.26 97.54 C 81.25 98.65 80.24 99.76 79.40 101.00 M 193.58 104.18 C 193.58 106.99 193.58 109.79 193.60 112.60 C 190.79 112.58 187.99 112.58 185.18 112.58 C 185.18 113.71 185.18 114.85 185.18 116.00 C 187.98 116.00 190.78 116.00 193.58 116.00 C 193.58 118.80 193.58 121.60 193.59 124.40 C 194.44 124.41 196.15 124.42 197.00 124.43 C 197.00 121.62 197.00 118.81 197.00 116.00 C 199.81 116.00 202.62 116.00 205.43 116.00 C 205.42 115.15 205.41 113.44 205.40 112.59 C 202.60 112.58 199.80 112.58 197.00 112.58 C 197.00 109.78 197.00 106.98 197.00 104.18 C 195.85 104.18 194.71 104.18 193.58 104.18 M 220.58 104.19 C 220.58 106.99 220.57 109.79 220.60 112.60 C 217.79 112.58 214.99 112.58 212.18 112.58 C 212.18 113.71 212.18 114.86 212.18 116.00 C 214.98 116.00 217.78 116.00 220.58 116.00 C 220.58 118.80 220.58 121.60 220.59 124.40 C 221.44 124.41 223.15 124.42 224.00 124.43 C 224.00 121.62 224.00 118.81 224.00 116.00 C 226.81 116.00 229.62 116.00 232.43 116.00 C 232.42 115.15 232.41 113.44 232.40 112.59 C 229.60 112.58 226.80 112.58 224.00 112.58 C 224.00 109.78 224.00 106.98 224.00 104.18 C 222.85 104.18 221.71 104.18 220.58 104.19 M 107.00 107.58 C 107.00 108.44 107.00 110.15 107.00 111.00 C 111.39 111.00 115.79 111.00 120.18 111.00 C 120.18 111.45 120.18 112.36 120.18 112.81 C 120.63 112.81 121.54 112.82 122.00 112.82 C 122.00 113.62 122.00 115.21 122.00 116.00 C 117.52 116.00 113.03 116.00 108.55 116.00 C 108.58 116.39 108.63 117.16 108.66 117.55 C 108.43 117.57 107.98 117.61 107.75 117.63 C 107.10 118.16 105.80 119.23 105.15 119.77 C 105.19 122.25 105.19 124.74 105.15 127.23 C 105.80 127.77 107.10 128.84 107.75 129.37 C 107.98 129.39 108.44 129.44 108.66 129.46 C 108.63 129.84 108.58 130.61 108.55 131.00 C 114.17 131.00 119.79 131.00 125.42 131.00 C 125.43 124.35 125.40 117.71 125.43 111.06 L 123.81 110.95 C 123.81 110.50 123.81 109.61 123.81 109.17 C 123.37 109.18 122.49 109.19 122.05 109.20 L 121.94 107.57 C 116.96 107.59 111.98 107.58 107.00 107.58 M 132.18 107.58 C 132.18 115.39 132.18 123.19 132.18 131.00 C 133.39 131.00 134.60 131.00 135.82 131.00 C 135.82 124.33 135.82 117.67 135.82 111.00 C 137.40 111.00 138.99 111.00 140.58 111.00 C 140.58 117.67 140.58 124.33 140.58 131.00 C 141.44 131.00 143.15 131.00 144.00 131.00 C 144.00 124.33 144.00 117.67 144.00 111.00 C 144.79 111.00 146.38 111.00 147.18 111.00 C 147.18 111.46 147.19 112.36 147.19 112.82 C 147.64 112.82 148.55 112.82 149.00 112.82 C 149.00 118.88 149.00 124.94 149.00 131.00 C 149.85 131.00 151.56 131.00 152.42 131.00 C 152.43 124.35 152.40 117.71 152.43 111.07 L 150.81 110.94 C 150.81 110.50 150.82 109.62 150.82 109.18 C 150.38 109.18 149.50 109.19 149.06 109.19 L 148.94 107.57 C 143.35 107.59 137.76 107.57 132.18 107.58 M 159.18 107.58 C 159.18 118.19 159.18 128.81 159.18 139.42 C 160.39 139.42 161.60 139.42 162.82 139.42 C 162.82 136.61 162.82 133.81 162.82 131.00 C 167.20 131.00 171.58 131.00 175.96 131.00 C 175.99 130.59 176.06 129.77 176.09 129.36 C 176.36 129.38 176.91 129.41 177.18 129.43 C 177.74 128.86 178.87 127.72 179.44 127.15 C 179.40 121.78 179.41 116.42 179.43 111.06 L 177.80 110.95 C 177.81 110.51 177.82 109.63 177.83 109.19 C 177.38 109.19 176.50 109.19 176.06 109.19 L 175.94 107.57 C 170.35 107.59 164.76 107.57 159.18 107.58 M 228.81 162.34 C 227.06 166.88 223.85 170.68 219.78 173.31 C 220.46 182.88 222.71 192.34 226.45 201.18 C 228.88 189.45 230.77 177.34 236.57 166.68 C 233.95 165.28 231.37 163.84 228.81 162.34 Z" />
<path fill="#000000" opacity="1.00" d=" M 162.82 111.00 C 166.61 111.00 170.39 111.00 174.18 111.00 C 174.18 111.45 174.18 112.36 174.18 112.81 C 174.64 112.81 175.55 112.82 176.00 112.82 C 176.00 117.02 176.00 121.22 176.00 125.42 C 175.30 125.96 173.90 127.05 173.20 127.60 C 169.74 127.57 166.27 127.58 162.81 127.58 C 162.83 122.06 162.81 116.53 162.82 111.00 Z" />
<path fill="#000000" opacity="1.00" d=" M 110.34 119.40 C 114.23 119.43 118.11 119.42 122.00 119.42 C 122.00 122.14 122.00 124.86 122.00 127.58 C 118.11 127.58 114.23 127.57 110.34 127.60 C 110.38 127.21 110.44 126.45 110.48 126.06 L 108.82 125.95 C 108.82 124.31 108.82 122.68 108.82 121.04 L 110.47 120.94 C 110.44 120.56 110.38 119.79 110.34 119.40 Z" />
<path fill="#000000" opacity="1.00" d=" M 115.57 212.95 C 115.54 209.30 117.60 204.22 121.98 204.47 C 140.62 204.46 159.26 204.42 177.90 204.50 C 182.13 204.42 184.21 209.33 184.15 212.95 C 183.93 230.05 183.69 247.15 183.63 264.26 C 160.94 264.24 138.26 264.22 115.57 264.26 C 115.31 247.16 115.68 230.06 115.57 212.95 M 148.78 206.49 C 148.78 207.06 148.78 208.22 148.78 208.80 C 149.29 208.80 150.31 208.80 150.81 208.80 C 150.79 208.18 150.75 206.93 150.73 206.31 C 150.24 206.35 149.26 206.44 148.78 206.49 M 120.39 258.47 C 139.80 258.49 159.21 258.48 178.62 258.47 C 178.57 242.56 178.95 226.64 178.64 210.72 C 159.31 210.77 139.97 210.70 120.63 210.76 C 120.34 226.66 120.46 242.57 120.39 258.47 Z" />
<path fill="#000000" opacity="1.00" d=" M 145.78 214.69 C 148.49 217.15 149.82 220.47 149.82 224.11 C 151.90 222.02 153.30 219.42 154.14 216.61 C 156.60 220.61 157.24 225.28 158.25 229.78 C 159.18 228.99 160.10 228.20 161.02 227.41 C 162.24 231.30 163.25 235.27 164.81 239.05 C 166.05 238.13 167.30 237.20 168.55 236.28 C 168.15 241.42 167.26 247.06 162.98 250.50 C 165.17 250.58 167.37 250.57 169.53 251.02 C 166.40 251.97 163.12 251.33 159.92 251.48 C 160.94 252.10 162.99 253.36 164.01 253.99 C 160.84 253.59 157.66 253.20 154.46 253.08 C 154.74 253.87 155.30 255.45 155.57 256.24 C 154.35 255.48 153.16 254.73 151.95 253.97 C 151.57 256.98 148.94 256.50 146.68 256.37 C 146.73 255.67 146.83 254.27 146.88 253.57 C 144.73 253.66 142.58 253.76 140.43 253.85 C 140.53 253.47 140.73 252.71 140.82 252.33 C 138.35 252.32 135.79 252.72 133.45 251.71 C 137.09 251.13 140.77 251.41 144.44 251.20 C 140.66 249.87 136.28 249.22 133.60 245.93 C 133.08 241.96 135.43 238.63 137.53 235.51 C 139.17 233.25 139.14 230.32 139.58 227.68 C 140.20 228.60 141.43 230.43 142.04 231.35 C 142.02 225.49 145.83 220.50 145.78 214.69 M 147.28 240.99 C 146.37 240.01 145.46 239.05 144.55 238.09 C 143.60 240.11 142.10 242.29 142.80 244.64 C 143.69 247.40 145.98 249.31 147.87 251.38 C 151.68 250.88 155.51 250.59 159.35 250.69 C 159.69 249.40 160.05 248.11 160.42 246.83 C 158.94 242.46 154.86 239.83 153.02 235.67 C 152.75 236.68 152.20 238.70 151.93 239.70 C 151.31 236.56 150.87 233.38 150.11 230.27 C 149.03 233.80 148.29 237.43 147.28 240.99 Z" />
<path fill="#000000" opacity="1.00" d=" M 101.29 268.39 C 133.42 268.32 165.55 268.37 197.68 268.38 C 197.58 270.63 197.89 272.95 197.31 275.15 C 194.58 277.64 190.49 277.39 187.03 277.66 C 162.34 277.72 137.65 277.66 112.96 277.69 C 109.59 277.62 106.01 277.61 102.96 276.02 C 100.25 274.45 101.63 270.92 101.29 268.39 Z" />
</g>
</svg>
