<?xml version="1.0" encoding="UTF-8" ?>
<!DOCTYPE svg PUBLIC "-//W3C//DTD SVG 1.1//EN" "http://www.w3.org/Graphics/SVG/1.1/DTD/svg11.dtd">
<svg width="300pt" height="300pt" viewBox="0 0 300 300" version="1.1" xmlns="http://www.w3.org/2000/svg">
<g id="#ffffffff">
<path fill="#ffffff" opacity="1.00" d=" M 0.00 0.00 L 300.00 0.00 L 300.00 300.00 L 0.00 300.00 L 0.00 0.00 M 123.00 11.06 C 91.97 16.63 62.89 32.45 41.28 55.39 C 17.15 80.76 1.95 114.89 0.67 149.99 C 0.67 161.06 0.17 172.25 2.28 183.18 C 7.48 215.30 23.78 245.42 47.53 267.63 C 48.82 268.95 50.74 269.19 52.41 269.80 C 51.66 272.49 51.06 275.22 50.52 277.96 C 58.18 277.78 65.84 278.63 73.48 277.96 C 74.81 273.48 77.45 269.57 79.19 265.26 C 86.58 246.40 92.19 226.63 93.43 206.32 C 113.26 189.05 131.42 169.99 151.13 152.59 C 169.60 169.96 189.84 185.33 208.40 202.61 C 211.27 204.86 210.56 208.89 211.34 212.05 C 215.74 230.84 221.78 249.34 230.55 266.57 C 232.26 270.02 234.48 273.24 235.61 276.95 C 241.03 277.50 246.48 277.26 251.91 277.19 C 250.91 274.79 249.91 272.40 248.85 270.03 C 253.27 267.52 256.57 263.59 260.04 259.97 C 285.39 232.61 300.45 195.42 299.34 157.97 C 300.14 134.55 294.02 111.24 283.53 90.41 C 268.61 61.15 243.85 37.00 214.11 23.01 C 185.99 9.61 153.62 5.47 123.00 11.06 M 139.99 190.80 C 140.43 194.67 141.05 198.77 139.50 202.49 C 135.82 211.77 132.90 221.51 132.60 231.56 C 131.58 227.90 129.78 224.39 126.86 221.89 C 126.04 227.80 126.64 234.17 123.56 239.54 C 120.61 244.56 116.97 249.26 115.17 254.88 C 113.24 260.23 113.17 267.15 117.91 271.08 C 124.30 276.08 132.66 276.98 140.35 278.57 C 131.80 278.44 123.21 278.14 114.69 279.11 C 115.77 280.49 116.74 282.76 118.93 282.23 C 124.55 281.86 130.22 281.84 135.81 282.62 C 133.62 282.94 131.41 283.10 129.24 283.51 C 129.13 284.23 128.90 285.67 128.79 286.39 C 133.79 285.82 138.80 285.45 143.82 285.25 C 143.39 287.28 142.96 289.32 142.52 291.36 C 146.05 291.77 149.61 292.00 153.15 292.31 C 153.77 290.08 154.38 287.85 155.05 285.65 C 156.51 287.01 157.95 288.40 159.38 289.80 C 160.89 289.80 162.40 289.82 163.92 289.83 C 162.93 287.82 161.94 285.81 160.93 283.82 C 167.57 283.77 174.02 285.57 180.63 285.85 C 180.73 285.20 180.93 283.89 181.04 283.23 C 178.05 282.32 175.05 281.47 172.09 280.50 C 178.66 279.67 185.28 280.31 191.87 279.90 C 191.84 279.19 191.78 277.78 191.74 277.07 C 187.33 277.16 182.91 277.10 178.51 277.44 C 181.61 275.63 184.44 273.22 186.16 270.02 C 190.87 261.72 191.59 251.90 191.48 242.55 C 188.88 244.55 186.70 247.12 183.71 248.61 C 179.84 239.97 178.49 230.47 175.14 221.64 C 173.04 223.42 170.87 225.11 168.66 226.76 C 167.69 215.81 165.80 204.44 159.31 195.27 C 157.61 201.68 155.39 208.44 149.95 212.69 C 149.67 208.35 150.21 203.74 148.21 199.72 C 146.22 196.14 142.92 193.58 139.99 190.80 Z" />
<path fill="#ffffff" opacity="1.00" d=" M 76.42 35.54 C 102.78 19.63 134.42 12.66 165.02 16.01 C 194.69 18.97 223.19 31.75 245.38 51.62 C 266.74 70.63 282.25 96.15 289.04 123.95 C 296.00 151.95 294.25 182.10 283.88 209.04 C 275.94 229.92 263.11 248.94 246.60 264.00 C 238.68 241.91 235.32 217.92 238.66 194.60 C 239.99 185.58 242.51 176.70 246.45 168.46 C 253.73 168.36 261.18 166.43 266.94 161.82 C 275.47 155.28 279.91 143.62 277.30 133.11 C 275.05 122.15 265.84 113.47 255.16 110.68 C 255.80 105.96 255.39 100.69 252.04 97.00 C 248.68 92.78 243.16 91.27 237.97 91.17 C 241.36 81.80 239.84 70.49 232.92 63.07 C 223.87 52.73 206.78 51.66 195.99 59.88 C 190.81 63.53 187.63 69.28 185.76 75.22 C 182.19 74.90 178.62 74.30 175.03 74.62 C 176.73 69.65 177.09 63.99 174.89 59.11 C 171.61 51.43 164.42 46.13 156.82 43.17 C 143.52 38.05 128.04 38.90 115.40 45.49 C 110.16 48.20 105.94 52.49 102.68 57.36 C 96.38 53.27 87.27 53.33 81.78 58.79 C 78.20 62.13 76.93 67.18 77.00 71.93 C 69.89 69.83 61.90 69.78 55.15 73.12 C 46.05 77.27 39.66 86.95 39.85 97.01 C 39.71 103.66 42.79 109.91 46.93 114.95 C 42.37 119.29 40.77 125.94 42.27 131.99 C 36.65 135.94 32.15 141.95 31.43 148.94 C 30.29 157.07 34.09 165.50 40.69 170.30 C 45.27 173.81 51.13 175.18 56.82 175.20 C 56.72 183.47 63.03 190.97 71.17 192.35 C 70.75 197.75 69.98 203.14 68.79 208.44 C 65.86 203.63 63.14 198.69 59.65 194.26 C 59.11 197.40 57.25 200.68 58.41 203.86 C 64.11 216.28 65.21 230.95 60.97 243.97 C 59.03 251.02 56.72 257.96 54.31 264.86 C 32.50 245.19 16.78 218.76 10.34 190.07 C 3.74 161.38 6.36 130.66 17.68 103.48 C 29.33 75.33 50.28 51.18 76.42 35.54 Z" />
<path fill="#ffffff" opacity="1.00" d=" M 228.78 162.33 C 231.35 163.83 233.95 165.28 236.57 166.68 C 230.79 177.32 228.86 189.39 226.49 201.11 C 222.63 192.32 220.45 182.80 219.81 173.23 C 223.91 170.69 227.09 166.86 228.78 162.33 Z" />
<path fill="#ffffff" opacity="1.00" d=" M 144.85 254.04 C 147.35 246.05 147.66 237.43 151.33 229.82 C 152.49 236.86 153.65 243.91 154.85 250.96 C 156.32 247.08 157.15 243.01 158.15 239.00 C 158.50 242.71 159.10 246.56 161.24 249.71 C 162.93 252.64 166.08 254.30 167.84 257.17 C 170.02 260.44 172.34 263.88 172.81 267.88 C 173.03 271.23 172.14 274.52 171.61 277.80 C 165.08 278.11 158.54 278.11 152.02 278.61 C 149.71 278.67 147.31 279.06 145.07 278.33 C 141.66 274.63 137.98 270.95 135.80 266.34 C 133.26 260.25 134.88 253.04 138.78 247.89 C 140.80 249.94 142.81 252.00 144.85 254.04 Z" />
</g>
<g id="#000000ff">
<path fill="#000000" opacity="1.00" d=" M 123.00 11.06 C 153.62 5.47 185.99 9.61 214.11 23.01 C 243.85 37.00 268.61 61.15 283.53 90.41 C 294.02 111.24 300.14 134.55 299.34 157.97 C 300.45 195.42 285.39 232.61 260.04 259.97 C 256.57 263.59 253.27 267.52 248.85 270.03 C 249.91 272.40 250.91 274.79 251.91 277.19 C 246.48 277.26 241.03 277.50 235.61 276.95 C 234.48 273.24 232.26 270.02 230.55 266.57 C 221.78 249.34 215.74 230.84 211.34 212.05 C 210.56 208.89 211.27 204.86 208.40 202.61 C 189.84 185.33 169.60 169.96 151.13 152.59 C 131.42 169.99 113.26 189.05 93.43 206.32 C 92.19 226.63 86.58 246.40 79.19 265.26 C 77.45 269.57 74.81 273.48 73.48 277.96 C 65.84 278.63 58.18 277.78 50.52 277.96 C 51.06 275.22 51.66 272.49 52.41 269.80 C 50.74 269.19 48.82 268.95 47.53 267.63 C 23.78 245.42 7.48 215.30 2.28 183.18 C 0.17 172.25 0.67 161.06 0.67 149.99 C 1.95 114.89 17.15 80.76 41.28 55.39 C 62.89 32.45 91.97 16.63 123.00 11.06 M 76.42 35.54 C 50.28 51.18 29.33 75.33 17.68 103.48 C 6.36 130.66 3.74 161.38 10.34 190.07 C 16.78 218.76 32.50 245.19 54.31 264.86 C 56.72 257.96 59.03 251.02 60.97 243.97 C 65.21 230.95 64.11 216.28 58.41 203.86 C 57.25 200.68 59.11 197.40 59.65 194.26 C 63.14 198.69 65.86 203.63 68.79 208.44 C 69.98 203.14 70.75 197.75 71.17 192.35 C 63.03 190.97 56.72 183.47 56.82 175.20 C 51.13 175.18 45.27 173.81 40.69 170.30 C 34.09 165.50 30.29 157.07 31.43 148.94 C 32.15 141.95 36.65 135.94 42.27 131.99 C 40.77 125.94 42.37 119.29 46.93 114.95 C 42.79 109.91 39.71 103.66 39.85 97.01 C 39.66 86.95 46.05 77.27 55.15 73.12 C 61.90 69.78 69.89 69.83 77.00 71.93 C 76.93 67.18 78.20 62.13 81.78 58.79 C 87.27 53.33 96.38 53.27 102.68 57.36 C 105.94 52.49 110.16 48.20 115.40 45.49 C 128.04 38.90 143.52 38.05 156.82 43.17 C 164.42 46.13 171.61 51.43 174.89 59.11 C 177.09 63.99 176.73 69.65 175.03 74.62 C 178.62 74.30 182.19 74.90 185.76 75.22 C 187.63 69.28 190.81 63.53 195.99 59.88 C 206.78 51.66 223.87 52.73 232.92 63.07 C 239.84 70.49 241.36 81.80 237.97 91.17 C 243.16 91.27 248.68 92.78 252.04 97.00 C 255.39 100.69 255.80 105.96 255.16 110.68 C 265.84 113.47 275.05 122.15 277.30 133.11 C 279.91 143.62 275.47 155.28 266.94 161.82 C 261.18 166.43 253.73 168.36 246.45 168.46 C 242.51 176.70 239.99 185.58 238.66 194.60 C 235.32 217.92 238.68 241.91 246.60 264.00 C 263.11 248.94 275.94 229.92 283.88 209.04 C 294.25 182.10 296.00 151.95 289.04 123.95 C 282.25 96.15 266.74 70.63 245.38 51.62 C 223.19 31.75 194.69 18.97 165.02 16.01 C 134.42 12.66 102.78 19.63 76.42 35.54 M 228.78 162.33 C 227.09 166.86 223.91 170.69 219.81 173.23 C 220.45 182.80 222.63 192.32 226.49 201.11 C 228.86 189.39 230.79 177.32 236.57 166.68 C 233.95 165.28 231.35 163.83 228.78 162.33 Z" />
<path fill="#000000" opacity="1.00" d=" M 139.99 190.80 C 142.92 193.58 146.22 196.14 148.21 199.72 C 150.21 203.74 149.67 208.35 149.95 212.69 C 155.39 208.44 157.61 201.68 159.31 195.27 C 165.80 204.44 167.69 215.81 168.66 226.76 C 170.87 225.11 173.04 223.42 175.14 221.64 C 178.49 230.47 179.84 239.97 183.71 248.61 C 186.70 247.12 188.88 244.55 191.48 242.55 C 191.59 251.90 190.87 261.72 186.16 270.02 C 184.44 273.22 181.61 275.63 178.51 277.44 C 182.91 277.10 187.33 277.16 191.74 277.07 C 191.78 277.78 191.84 279.19 191.87 279.90 C 185.28 280.31 178.66 279.67 172.09 280.50 C 175.05 281.47 178.05 282.32 181.04 283.23 C 180.93 283.89 180.73 285.20 180.63 285.85 C 174.02 285.57 167.57 283.77 160.93 283.82 C 161.94 285.81 162.93 287.82 163.92 289.83 C 162.40 289.82 160.89 289.80 159.38 289.80 C 157.95 288.40 156.51 287.01 155.05 285.65 C 154.38 287.85 153.77 290.08 153.15 292.31 C 149.61 292.00 146.05 291.77 142.52 291.36 C 142.96 289.32 143.39 287.28 143.82 285.25 C 138.80 285.45 133.79 285.82 128.79 286.39 C 128.90 285.67 129.13 284.23 129.24 283.51 C 131.41 283.10 133.62 282.94 135.81 282.62 C 130.22 281.84 124.55 281.86 118.93 282.23 C 116.74 282.76 115.77 280.49 114.69 279.11 C 123.21 278.14 131.80 278.44 140.35 278.57 C 132.66 276.98 124.30 276.08 117.91 271.08 C 113.17 267.15 113.24 260.23 115.17 254.88 C 116.97 249.26 120.61 244.56 123.56 239.54 C 126.64 234.17 126.04 227.80 126.86 221.89 C 129.78 224.39 131.58 227.90 132.60 231.56 C 132.90 221.51 135.82 211.77 139.50 202.49 C 141.05 198.77 140.43 194.67 139.99 190.80 M 144.85 254.04 C 142.81 252.00 140.80 249.94 138.78 247.89 C 134.88 253.04 133.26 260.25 135.80 266.34 C 137.98 270.95 141.66 274.63 145.07 278.33 C 147.31 279.06 149.71 278.67 152.02 278.61 C 158.54 278.11 165.08 278.11 171.61 277.80 C 172.14 274.52 173.03 271.23 172.81 267.88 C 172.34 263.88 170.02 260.44 167.84 257.17 C 166.08 254.30 162.93 252.64 161.24 249.71 C 159.10 246.56 158.50 242.71 158.15 239.00 C 157.15 243.01 156.32 247.08 154.85 250.96 C 153.65 243.91 152.49 236.86 151.33 229.82 C 147.66 237.43 147.35 246.05 144.85 254.04 Z" />
</g>
</svg>
