<?xml version="1.0" encoding="UTF-8" ?>
<!DOCTYPE svg PUBLIC "-//W3C//DTD SVG 1.1//EN" "http://www.w3.org/Graphics/SVG/1.1/DTD/svg11.dtd">
<svg width="300pt" height="300pt" viewBox="0 0 300 300" version="1.1" xmlns="http://www.w3.org/2000/svg">
<g id="#ffffffff">
<path fill="#ffffff" opacity="1.00" d=" M 0.00 0.00 L 300.00 0.00 L 300.00 300.00 L 0.00 300.00 L 0.00 0.00 M 122.93 11.08 C 92.18 16.61 63.35 32.20 41.82 54.83 C 17.81 79.80 2.53 113.38 0.76 148.07 C 0.67 159.75 0.04 171.56 2.27 183.11 C 7.45 215.23 23.74 245.37 47.48 267.58 C 48.78 268.93 50.72 269.19 52.40 269.81 C 51.66 272.50 51.06 275.22 50.52 277.95 C 58.18 277.79 65.83 278.62 73.48 277.96 C 74.81 273.49 77.44 269.58 79.18 265.28 C 86.59 246.40 92.18 226.62 93.44 206.30 C 113.28 189.05 131.42 169.98 151.13 152.59 C 169.59 169.96 189.82 185.31 208.36 202.58 C 211.30 204.86 210.55 208.96 211.37 212.17 C 216.28 233.03 223.16 253.60 233.67 272.35 C 234.47 273.82 235.05 275.39 235.62 276.96 C 241.04 277.49 246.48 277.27 251.91 277.19 C 250.90 274.79 249.91 272.40 248.85 270.03 C 253.25 267.53 256.54 263.63 259.99 260.03 C 285.36 232.65 300.48 195.44 299.31 157.96 C 300.12 135.55 294.52 113.24 284.86 93.11 C 270.53 63.50 246.19 38.83 216.68 24.27 C 187.96 9.86 154.51 5.29 122.93 11.08 M 140.00 190.80 C 140.42 194.65 141.05 198.73 139.52 202.43 C 135.83 211.74 132.90 221.51 132.60 231.59 C 131.63 227.86 129.67 224.45 126.89 221.77 C 126.02 227.73 126.67 234.15 123.54 239.57 C 120.60 244.58 116.97 249.27 115.17 254.87 C 113.24 260.22 113.17 267.15 117.92 271.09 C 124.33 276.05 132.69 277.09 140.44 278.49 C 131.85 278.53 123.23 278.09 114.68 279.11 C 115.78 280.47 116.72 282.75 118.89 282.23 C 124.55 281.85 130.23 281.89 135.86 282.55 C 133.66 282.91 131.44 283.09 129.25 283.52 C 129.13 284.24 128.90 285.67 128.78 286.39 C 133.78 285.82 138.80 285.45 143.82 285.25 C 143.39 287.28 142.96 289.32 142.52 291.36 C 146.05 291.77 149.61 292.00 153.15 292.31 C 153.77 290.08 154.38 287.85 155.05 285.65 C 156.51 287.01 157.95 288.40 159.39 289.81 C 160.90 289.80 162.40 289.81 163.92 289.83 C 162.93 287.82 161.94 285.81 160.93 283.82 C 167.57 283.78 174.02 285.57 180.63 285.86 C 180.73 285.20 180.93 283.89 181.03 283.23 C 178.04 282.33 175.04 281.46 172.07 280.49 C 178.65 279.68 185.28 280.30 191.88 279.90 C 191.84 279.19 191.77 277.78 191.74 277.07 C 187.33 277.16 182.92 277.10 178.52 277.44 C 181.59 275.63 184.41 273.25 186.13 270.08 C 190.86 261.76 191.61 251.90 191.47 242.52 C 188.79 244.53 186.72 247.49 183.36 248.41 C 180.12 239.64 178.30 230.43 175.14 221.64 C 173.04 223.41 170.87 225.11 168.66 226.76 C 167.69 215.81 165.82 204.43 159.30 195.28 C 157.63 201.69 155.37 208.44 149.95 212.70 C 149.67 208.37 150.21 203.76 148.22 199.75 C 146.24 196.15 142.92 193.58 140.00 190.80 Z" />
<path fill="#ffffff" opacity="1.00" d=" M 80.98 32.91 C 106.69 18.68 136.87 12.74 166.05 16.11 C 193.00 19.03 218.97 29.99 240.01 47.07 C 264.12 66.48 281.71 93.88 289.04 123.98 C 295.80 151.18 294.35 180.41 284.73 206.76 C 276.87 228.53 263.71 248.40 246.60 264.00 C 239.18 243.28 235.75 220.91 238.12 198.95 C 239.21 188.43 241.88 178.02 246.45 168.46 C 253.48 168.35 260.67 166.57 266.35 162.27 C 275.24 155.80 279.97 143.89 277.31 133.13 C 275.07 122.16 265.85 113.48 255.17 110.69 C 255.80 105.95 255.39 100.67 252.02 96.98 C 248.66 92.77 243.15 91.27 237.97 91.17 C 241.36 81.79 239.84 70.48 232.92 63.07 C 223.86 52.71 206.74 51.66 195.96 59.90 C 190.79 63.55 187.63 69.30 185.75 75.22 C 182.19 74.90 178.62 74.31 175.04 74.62 C 176.73 69.63 177.09 63.97 174.88 59.08 C 171.71 51.67 164.88 46.48 157.59 43.48 C 144.35 38.10 128.83 38.76 116.06 45.14 C 110.62 47.88 106.02 52.16 102.81 57.34 C 97.17 53.99 89.56 53.16 83.98 57.06 C 78.94 60.13 76.82 66.26 77.00 71.92 C 69.88 69.83 61.88 69.79 55.12 73.13 C 46.03 77.29 39.65 86.98 39.85 97.03 C 39.71 103.68 42.80 109.92 46.93 114.95 C 42.37 119.30 40.77 125.94 42.27 131.99 C 36.66 135.95 32.14 141.95 31.43 148.94 C 30.29 157.05 34.08 165.47 40.66 170.27 C 45.24 173.80 51.11 175.17 56.82 175.21 C 56.72 183.47 63.04 190.96 71.17 192.36 C 70.73 197.75 70.02 203.15 68.76 208.42 C 65.88 203.60 63.13 198.69 59.65 194.26 C 59.08 197.59 57.01 201.16 58.65 204.48 C 63.14 213.89 64.09 224.65 63.16 234.92 C 61.07 245.12 57.70 255.02 54.31 264.86 C 32.50 245.19 16.78 218.76 10.34 190.07 C 3.74 161.37 6.36 130.65 17.68 103.47 C 30.00 73.69 52.74 48.42 80.98 32.91 Z" />
<path fill="#ffffff" opacity="1.00" d=" M 66.31 101.26 C 72.17 97.91 79.59 98.41 85.62 101.08 C 84.94 102.42 84.27 103.76 83.60 105.11 C 78.68 103.35 72.29 102.18 68.05 106.05 C 63.46 110.29 63.19 117.10 63.66 122.92 C 64.08 127.81 66.97 133.16 72.10 134.29 C 76.04 134.58 80.12 134.66 83.83 133.12 C 83.91 134.61 83.98 136.11 84.06 137.60 C 77.49 139.70 69.17 140.25 63.74 135.24 C 58.96 130.93 58.00 124.02 58.17 117.92 C 58.18 111.58 60.64 104.66 66.31 101.26 Z" />
<path fill="#ffffff" opacity="1.00" d=" M 206.44 107.01 C 207.83 107.00 209.22 107.00 210.62 107.01 C 210.61 110.34 210.61 113.67 210.61 117.00 C 213.94 117.00 217.28 117.00 220.62 117.01 C 220.61 118.33 220.61 119.66 220.62 120.99 C 217.28 121.00 213.95 121.00 210.61 121.00 C 210.61 124.33 210.61 127.66 210.62 130.99 C 209.22 130.99 207.83 130.99 206.44 130.99 C 206.45 127.66 206.45 124.33 206.45 121.00 C 203.11 121.00 199.78 121.00 196.44 120.99 C 196.44 119.66 196.44 118.33 196.44 117.01 C 199.78 117.00 203.11 117.00 206.45 117.00 C 206.45 113.67 206.45 110.34 206.44 107.01 Z" />
<path fill="#ffffff" opacity="1.00" d=" M 236.44 107.01 C 237.83 107.00 239.22 107.00 240.62 107.01 C 240.61 110.34 240.61 113.67 240.61 117.00 C 243.94 117.00 247.28 117.00 250.61 117.01 C 250.61 118.33 250.61 119.66 250.62 120.99 C 247.28 121.00 243.95 121.00 240.61 121.00 C 240.61 124.33 240.61 127.67 240.62 131.00 C 239.22 131.00 237.82 130.99 236.43 130.97 C 236.45 127.65 236.45 124.32 236.45 121.00 C 233.11 121.00 229.78 121.00 226.44 120.99 C 226.44 119.66 226.44 118.33 226.44 117.01 C 229.78 117.00 233.11 117.00 236.45 117.00 C 236.45 113.67 236.45 110.34 236.44 107.01 Z" />
<path fill="#ffffff" opacity="1.00" d=" M 91.27 111.46 C 95.56 109.08 100.72 108.25 105.49 109.49 C 108.75 110.35 111.05 113.60 110.88 116.95 C 110.97 123.97 110.88 130.98 110.91 138.00 C 109.75 138.00 108.58 138.00 107.42 138.00 C 107.18 137.16 106.71 135.48 106.47 134.64 C 103.76 138.78 98.33 140.11 93.80 138.40 C 87.80 135.70 87.66 125.53 93.71 122.81 C 97.57 120.85 102.05 121.05 106.26 120.96 C 106.27 118.84 106.03 116.71 105.25 114.72 C 104.37 114.15 103.50 113.56 102.64 112.98 C 99.26 112.61 96.03 113.67 93.00 115.05 C 92.42 113.85 91.84 112.65 91.27 111.46 M 96.20 126.11 C 93.51 128.53 93.91 133.45 97.24 135.11 C 99.62 135.10 102.33 134.93 104.00 132.97 C 106.28 130.83 106.10 127.44 106.34 124.58 C 102.94 124.70 99.18 124.08 96.20 126.11 Z" />
<path fill="#ffffff" opacity="1.00" d=" M 123.93 113.49 C 127.12 107.48 137.30 107.17 140.43 113.39 C 144.20 107.23 156.05 107.08 157.82 114.87 C 159.10 122.49 158.11 130.30 158.42 138.00 C 156.74 138.00 155.06 138.00 153.38 137.99 C 153.37 131.67 153.43 125.35 153.38 119.04 C 153.47 117.22 152.66 115.59 151.98 113.97 C 150.20 113.20 148.30 112.89 146.38 112.90 C 143.90 113.96 141.70 115.96 141.62 118.84 C 141.15 125.21 141.55 131.62 141.42 138.00 C 139.74 138.00 138.06 138.00 136.38 137.99 C 136.24 130.96 136.71 123.90 136.15 116.89 C 135.69 113.64 132.20 112.57 129.36 112.91 C 126.81 113.98 124.81 116.16 124.68 119.04 C 124.09 125.34 124.58 131.68 124.42 138.00 C 122.74 138.00 121.06 138.00 119.38 137.99 C 119.39 128.66 119.39 119.33 119.38 110.01 C 120.78 110.00 122.17 110.00 123.57 110.00 C 123.66 110.87 123.84 112.61 123.93 113.49 Z" />
<path fill="#ffffff" opacity="1.00" d=" M 171.93 113.28 C 175.72 107.30 185.77 107.48 189.02 113.88 C 192.06 120.24 192.12 128.36 188.68 134.58 C 185.22 140.55 175.78 140.44 171.89 134.94 C 172.75 140.26 172.33 145.65 172.42 151.00 C 170.74 151.00 169.06 151.00 167.38 150.99 C 167.39 137.33 167.39 123.67 167.38 110.01 C 168.77 110.00 170.16 110.00 171.56 110.00 C 171.65 110.82 171.83 112.46 171.93 113.28 M 177.37 112.93 C 174.37 114.05 172.52 116.90 172.55 120.10 C 172.26 125.30 171.51 132.62 177.36 135.08 C 179.91 135.14 182.97 134.95 184.37 132.44 C 186.92 127.51 186.74 121.39 184.88 116.25 C 183.64 113.28 180.22 112.72 177.37 112.93 Z" />
<path fill="#ffffff" opacity="1.00" d=" M 228.79 162.33 C 231.35 163.83 233.95 165.28 236.57 166.68 C 230.79 177.32 228.86 189.40 226.49 201.12 C 222.64 192.32 220.44 182.81 219.81 173.23 C 223.91 170.69 227.08 166.86 228.79 162.33 Z" />
<path fill="#ffffff" opacity="1.00" d=" M 144.85 254.04 C 147.34 246.05 147.68 237.43 151.32 229.80 C 152.50 236.86 153.64 243.91 154.85 250.96 C 156.31 247.08 157.16 243.01 158.14 238.99 C 158.46 244.12 159.99 249.47 163.98 252.97 C 167.50 255.93 169.92 259.98 171.82 264.11 C 173.83 268.49 172.35 273.31 171.61 277.80 C 165.06 278.10 158.51 278.11 151.97 278.61 C 149.69 278.69 147.34 279.02 145.12 278.36 C 141.66 274.65 137.96 270.93 135.78 266.29 C 133.27 260.20 134.89 253.02 138.78 247.89 C 140.80 249.94 142.81 252.00 144.85 254.04 Z" />
</g>
<g id="#000000ff">
<path fill="#000000" opacity="1.00" d=" M 122.93 11.08 C 154.51 5.29 187.96 9.86 216.68 24.27 C 246.19 38.83 270.53 63.50 284.86 93.11 C 294.52 113.24 300.12 135.55 299.31 157.96 C 300.48 195.44 285.36 232.65 259.99 260.03 C 256.54 263.63 253.25 267.53 248.85 270.03 C 249.91 272.40 250.90 274.79 251.91 277.19 C 246.48 277.27 241.04 277.49 235.62 276.96 C 235.05 275.39 234.47 273.82 233.67 272.35 C 223.16 253.60 216.28 233.03 211.37 212.17 C 210.55 208.96 211.30 204.86 208.36 202.58 C 189.82 185.31 169.59 169.96 151.13 152.59 C 131.42 169.98 113.28 189.05 93.44 206.30 C 92.18 226.62 86.59 246.40 79.18 265.28 C 77.44 269.58 74.81 273.49 73.48 277.96 C 65.83 278.62 58.18 277.79 50.52 277.95 C 51.06 275.22 51.66 272.50 52.40 269.81 C 50.72 269.19 48.78 268.93 47.48 267.58 C 23.74 245.37 7.45 215.23 2.27 183.11 C 0.04 171.56 0.67 159.75 0.76 148.07 C 2.53 113.38 17.81 79.80 41.82 54.83 C 63.35 32.20 92.18 16.61 122.93 11.08 M 80.98 32.91 C 52.74 48.42 30.00 73.69 17.68 103.47 C 6.36 130.65 3.74 161.37 10.34 190.07 C 16.78 218.76 32.50 245.19 54.31 264.86 C 57.70 255.02 61.07 245.12 63.16 234.92 C 64.09 224.65 63.14 213.89 58.65 204.48 C 57.01 201.16 59.08 197.59 59.65 194.26 C 63.13 198.69 65.88 203.60 68.76 208.42 C 70.02 203.15 70.73 197.75 71.17 192.36 C 63.04 190.96 56.72 183.47 56.82 175.21 C 51.11 175.17 45.24 173.80 40.66 170.27 C 34.08 165.47 30.29 157.05 31.43 148.94 C 32.14 141.95 36.66 135.95 42.27 131.99 C 40.77 125.94 42.37 119.30 46.93 114.95 C 42.80 109.92 39.71 103.68 39.85 97.03 C 39.65 86.98 46.03 77.29 55.12 73.13 C 61.88 69.79 69.88 69.83 77.00 71.92 C 76.82 66.26 78.94 60.13 83.98 57.06 C 89.56 53.16 97.17 53.99 102.81 57.34 C 106.02 52.16 110.62 47.88 116.06 45.14 C 128.83 38.76 144.35 38.10 157.59 43.48 C 164.88 46.48 171.71 51.67 174.88 59.08 C 177.09 63.97 176.73 69.63 175.04 74.62 C 178.62 74.31 182.19 74.90 185.75 75.22 C 187.63 69.30 190.79 63.55 195.96 59.90 C 206.74 51.66 223.86 52.71 232.92 63.07 C 239.84 70.48 241.36 81.79 237.97 91.17 C 243.15 91.27 248.66 92.77 252.02 96.98 C 255.39 100.67 255.80 105.95 255.17 110.69 C 265.85 113.48 275.07 122.16 277.31 133.13 C 279.97 143.89 275.24 155.80 266.35 162.27 C 260.67 166.57 253.48 168.35 246.45 168.46 C 241.88 178.02 239.21 188.43 238.12 198.95 C 235.75 220.91 239.18 243.28 246.60 264.00 C 263.71 248.40 276.87 228.53 284.73 206.76 C 294.35 180.41 295.80 151.18 289.04 123.98 C 281.71 93.88 264.12 66.48 240.01 47.07 C 218.97 29.99 193.00 19.03 166.05 16.11 C 136.87 12.74 106.69 18.68 80.98 32.91 M 66.31 101.26 C 60.64 104.66 58.18 111.58 58.17 117.92 C 58.00 124.02 58.96 130.93 63.74 135.24 C 69.17 140.25 77.49 139.70 84.06 137.60 C 83.98 136.11 83.91 134.61 83.83 133.12 C 80.12 134.66 76.04 134.58 72.10 134.29 C 66.97 133.16 64.08 127.81 63.66 122.92 C 63.19 117.10 63.46 110.29 68.05 106.05 C 72.29 102.18 78.68 103.35 83.60 105.11 C 84.27 103.76 84.94 102.42 85.62 101.08 C 79.59 98.41 72.17 97.91 66.31 101.26 M 206.44 107.01 C 206.45 110.34 206.45 113.67 206.45 117.00 C 203.11 117.00 199.78 117.00 196.44 117.01 C 196.44 118.33 196.44 119.66 196.44 120.99 C 199.78 121.00 203.11 121.00 206.45 121.00 C 206.45 124.33 206.45 127.66 206.44 130.99 C 207.83 130.99 209.22 130.99 210.62 130.99 C 210.61 127.66 210.61 124.33 210.61 121.00 C 213.95 121.00 217.28 121.00 220.62 120.99 C 220.61 119.66 220.61 118.33 220.62 117.01 C 217.28 117.00 213.94 117.00 210.61 117.00 C 210.61 113.67 210.61 110.34 210.62 107.01 C 209.22 107.00 207.83 107.00 206.44 107.01 M 236.44 107.01 C 236.45 110.34 236.45 113.67 236.45 117.00 C 233.11 117.00 229.78 117.00 226.44 117.01 C 226.44 118.33 226.44 119.66 226.44 120.99 C 229.78 121.00 233.11 121.00 236.45 121.00 C 236.45 124.32 236.45 127.65 236.43 130.97 C 237.82 130.99 239.22 131.00 240.62 131.00 C 240.61 127.67 240.61 124.33 240.61 121.00 C 243.95 121.00 247.28 121.00 250.62 120.99 C 250.61 119.66 250.61 118.33 250.61 117.01 C 247.28 117.00 243.94 117.00 240.61 117.00 C 240.61 113.67 240.61 110.34 240.62 107.01 C 239.22 107.00 237.83 107.00 236.44 107.01 M 91.27 111.46 C 91.84 112.65 92.42 113.85 93.00 115.05 C 96.03 113.67 99.26 112.61 102.64 112.98 C 103.50 113.56 104.37 114.15 105.25 114.72 C 106.03 116.71 106.27 118.84 106.26 120.96 C 102.05 121.05 97.57 120.85 93.71 122.81 C 87.66 125.53 87.80 135.70 93.80 138.40 C 98.33 140.11 103.76 138.78 106.47 134.64 C 106.71 135.48 107.18 137.16 107.42 138.00 C 108.58 138.00 109.75 138.00 110.91 138.00 C 110.88 130.98 110.97 123.97 110.88 116.95 C 111.05 113.60 108.75 110.35 105.49 109.49 C 100.72 108.25 95.56 109.08 91.27 111.46 M 123.93 113.49 C 123.84 112.61 123.66 110.87 123.57 110.00 C 122.17 110.00 120.78 110.00 119.38 110.01 C 119.39 119.33 119.39 128.66 119.38 137.99 C 121.06 138.00 122.74 138.00 124.42 138.00 C 124.58 131.68 124.09 125.34 124.68 119.04 C 124.81 116.16 126.81 113.98 129.36 112.91 C 132.20 112.57 135.69 113.64 136.15 116.89 C 136.71 123.90 136.24 130.96 136.38 137.99 C 138.06 138.00 139.74 138.00 141.42 138.00 C 141.55 131.62 141.15 125.21 141.62 118.84 C 141.70 115.96 143.90 113.96 146.38 112.90 C 148.30 112.89 150.20 113.20 151.98 113.97 C 152.66 115.59 153.47 117.22 153.38 119.04 C 153.43 125.35 153.37 131.67 153.38 137.99 C 155.06 138.00 156.74 138.00 158.42 138.00 C 158.11 130.30 159.10 122.49 157.82 114.87 C 156.05 107.08 144.20 107.23 140.43 113.39 C 137.30 107.17 127.12 107.48 123.93 113.49 M 171.93 113.28 C 171.83 112.46 171.65 110.82 171.56 110.00 C 170.16 110.00 168.77 110.00 167.38 110.01 C 167.39 123.67 167.39 137.33 167.38 150.99 C 169.06 151.00 170.74 151.00 172.42 151.00 C 172.33 145.65 172.75 140.26 171.89 134.94 C 175.78 140.44 185.22 140.55 188.68 134.58 C 192.12 128.36 192.06 120.24 189.02 113.88 C 185.77 107.48 175.72 107.30 171.93 113.28 M 228.79 162.33 C 227.08 166.86 223.91 170.69 219.81 173.23 C 220.44 182.81 222.64 192.32 226.49 201.12 C 228.86 189.40 230.79 177.32 236.57 166.68 C 233.95 165.28 231.35 163.83 228.79 162.33 Z" />
<path fill="#000000" opacity="1.00" d=" M 177.37 112.93 C 180.22 112.72 183.64 113.28 184.88 116.25 C 186.74 121.39 186.92 127.51 184.37 132.44 C 182.97 134.95 179.91 135.14 177.36 135.08 C 171.51 132.62 172.26 125.30 172.55 120.10 C 172.52 116.90 174.37 114.05 177.37 112.93 Z" />
<path fill="#000000" opacity="1.00" d=" M 96.20 126.11 C 99.18 124.08 102.94 124.70 106.34 124.58 C 106.10 127.44 106.28 130.83 104.00 132.97 C 102.33 134.93 99.62 135.10 97.24 135.11 C 93.91 133.45 93.51 128.53 96.20 126.11 Z" />
<path fill="#000000" opacity="1.00" d=" M 140.00 190.80 C 142.92 193.58 146.24 196.15 148.22 199.75 C 150.21 203.76 149.67 208.37 149.95 212.70 C 155.37 208.44 157.63 201.69 159.30 195.28 C 165.82 204.43 167.69 215.81 168.66 226.76 C 170.87 225.11 173.04 223.41 175.14 221.64 C 178.30 230.43 180.12 239.64 183.36 248.41 C 186.72 247.49 188.79 244.53 191.47 242.52 C 191.61 251.90 190.86 261.76 186.13 270.08 C 184.41 273.25 181.59 275.63 178.52 277.44 C 182.92 277.10 187.33 277.16 191.74 277.07 C 191.77 277.78 191.84 279.19 191.88 279.90 C 185.28 280.30 178.65 279.68 172.07 280.49 C 175.04 281.46 178.04 282.33 181.03 283.23 C 180.93 283.89 180.73 285.20 180.63 285.86 C 174.02 285.57 167.57 283.78 160.93 283.82 C 161.94 285.81 162.93 287.82 163.92 289.83 C 162.40 289.81 160.90 289.80 159.39 289.81 C 157.95 288.40 156.51 287.01 155.05 285.65 C 154.38 287.85 153.77 290.08 153.15 292.31 C 149.61 292.00 146.05 291.77 142.52 291.36 C 142.96 289.32 143.39 287.28 143.82 285.25 C 138.80 285.45 133.78 285.82 128.78 286.39 C 128.90 285.67 129.13 284.24 129.25 283.52 C 131.44 283.09 133.66 282.91 135.86 282.55 C 130.23 281.89 124.55 281.85 118.89 282.23 C 116.72 282.75 115.78 280.47 114.68 279.11 C 123.23 278.09 131.85 278.53 140.44 278.49 C 132.69 277.09 124.33 276.05 117.92 271.09 C 113.17 267.15 113.24 260.22 115.17 254.87 C 116.97 249.27 120.60 244.58 123.54 239.57 C 126.67 234.15 126.02 227.73 126.89 221.77 C 129.67 224.45 131.63 227.86 132.60 231.59 C 132.90 221.51 135.83 211.74 139.52 202.43 C 141.05 198.73 140.42 194.65 140.00 190.80 M 144.85 254.04 C 142.81 252.00 140.80 249.94 138.78 247.89 C 134.89 253.02 133.27 260.20 135.78 266.29 C 137.96 270.93 141.66 274.65 145.12 278.36 C 147.34 279.02 149.69 278.69 151.97 278.61 C 158.51 278.11 165.06 278.10 171.61 277.80 C 172.35 273.31 173.83 268.49 171.82 264.11 C 169.92 259.98 167.50 255.93 163.98 252.97 C 159.99 249.47 158.46 244.12 158.14 238.99 C 157.16 243.01 156.31 247.08 154.85 250.96 C 153.64 243.91 152.50 236.86 151.32 229.80 C 147.68 237.43 147.34 246.05 144.85 254.04 Z" />
</g>
</svg>
