<?xml version="1.0" encoding="UTF-8" ?>
<!DOCTYPE svg PUBLIC "-//W3C//DTD SVG 1.1//EN" "http://www.w3.org/Graphics/SVG/1.1/DTD/svg11.dtd">
<svg width="300pt" height="300pt" viewBox="0 0 300 300" version="1.1" xmlns="http://www.w3.org/2000/svg">
<g id="#ffffffff">
<path fill="#ffffff" opacity="1.00" d=" M 0.00 0.00 L 300.00 0.00 L 300.00 300.00 L 0.00 300.00 L 0.00 0.00 M 58.29 40.29 C 31.75 60.80 12.44 90.49 4.63 123.13 C -6.39 168.59 5.42 218.96 35.88 254.53 L 36.02 254.56 C 39.32 259.00 43.55 262.63 47.37 266.61 C 48.79 268.35 51.00 268.87 53.02 269.56 C 52.31 272.22 51.67 274.89 51.02 277.56 C 58.29 277.18 65.59 278.68 72.82 277.53 C 83.99 255.26 91.04 230.83 93.12 205.97 C 95.04 204.14 96.95 202.30 98.83 200.42 L 99.71 200.63 L 99.53 199.98 C 104.02 196.57 107.78 192.33 111.83 188.42 L 112.64 188.53 L 112.38 187.28 L 113.09 187.64 C 113.49 187.28 114.30 186.56 114.70 186.20 L 114.52 186.01 C 121.60 180.16 127.57 173.11 134.47 167.07 L 134.45 166.30 L 135.10 166.59 C 135.51 166.23 136.31 165.53 136.71 165.18 L 136.52 165.00 C 140.51 161.95 143.85 158.17 147.56 154.81 C 147.89 154.48 148.54 153.83 148.87 153.50 C 149.89 153.05 150.91 152.59 151.94 152.16 C 155.33 155.53 158.59 159.07 162.42 161.96 L 162.53 162.09 C 165.14 164.27 167.49 166.76 170.23 168.79 C 172.30 170.52 174.24 172.42 176.45 173.98 L 176.48 174.10 C 178.76 175.96 180.85 178.06 183.24 179.79 C 185.30 181.53 187.25 183.42 189.46 184.98 L 189.47 185.09 C 191.75 186.93 193.84 188.99 196.07 190.90 C 196.39 191.09 197.03 191.48 197.35 191.67 C 199.99 194.18 202.53 196.82 205.47 198.98 L 205.29 199.63 L 206.13 199.41 C 207.54 200.81 208.97 202.19 210.41 203.55 C 212.92 219.85 218.08 235.65 224.06 250.98 C 227.36 259.86 232.32 267.98 236.15 276.61 C 241.19 277.17 246.25 276.99 251.31 277.00 C 250.20 274.51 248.97 272.04 248.31 269.39 C 250.37 268.58 252.14 267.24 253.63 265.63 C 257.10 261.99 260.92 258.65 263.96 254.61 L 264.13 254.45 C 297.60 215.54 308.38 158.63 291.57 110.16 C 280.92 78.55 259.21 50.89 231.22 32.82 C 207.21 17.22 178.63 8.85 150.00 8.89 C 117.06 8.73 84.25 20.03 58.29 40.29 M 115.57 213.02 C 115.69 230.10 115.30 247.18 115.57 264.26 C 138.25 264.22 160.94 264.23 183.62 264.26 C 183.65 247.15 184.01 230.05 184.15 212.95 C 184.22 209.32 182.12 204.41 177.89 204.50 C 159.24 204.42 140.58 204.46 121.93 204.48 C 117.55 204.26 115.52 209.37 115.57 213.02 M 101.30 268.39 C 101.64 270.89 100.25 274.37 102.88 275.96 C 105.63 277.49 108.91 277.57 111.99 277.68 C 136.34 277.70 160.69 277.67 185.04 277.70 C 188.78 277.61 192.69 277.64 196.18 276.10 C 198.70 274.44 197.27 270.89 197.67 268.38 C 165.55 268.38 133.42 268.33 101.30 268.39 Z" />
<path fill="#ffffff" opacity="1.00" d=" M 88.72 28.51 C 127.57 9.99 174.83 10.33 213.35 29.55 C 218.48 32.05 223.39 34.96 228.23 37.97 C 242.87 47.55 255.77 59.68 266.09 73.81 C 269.46 78.60 272.69 83.48 275.53 88.59 C 277.96 92.84 280.02 97.28 282.02 101.74 C 282.69 103.40 283.36 105.07 284.05 106.73 C 290.87 124.60 294.25 143.83 293.41 162.94 C 292.84 192.12 282.35 220.75 265.11 244.18 C 262.75 247.13 260.51 250.17 257.93 252.93 C 254.27 256.97 250.95 261.50 246.23 264.39 C 236.41 236.12 233.05 204.47 242.90 175.74 C 243.60 174.05 244.29 172.37 245.04 170.70 C 245.36 169.87 245.68 169.03 245.99 168.20 C 254.64 168.02 263.74 165.35 269.67 158.73 C 278.11 150.45 279.99 136.83 274.60 126.36 C 272.49 122.93 270.11 119.60 266.97 117.03 C 263.39 114.30 259.32 112.31 255.03 111.01 C 254.98 107.14 255.38 102.99 253.32 99.51 C 250.23 94.01 243.93 91.38 237.80 91.60 C 239.29 85.03 240.22 77.90 237.61 71.47 C 235.50 65.69 231.15 60.95 225.88 57.88 C 217.18 53.55 206.20 53.74 197.94 59.01 C 193.76 61.42 190.77 65.27 188.40 69.39 C 187.59 71.45 186.81 73.51 186.06 75.59 C 182.33 75.18 178.59 74.85 174.83 74.91 C 176.61 68.65 176.59 61.77 173.07 56.09 C 165.63 45.48 152.51 40.50 139.92 40.20 C 131.78 40.00 123.67 41.95 116.29 45.35 C 110.88 48.29 106.23 52.60 102.96 57.83 C 96.21 53.51 86.62 53.76 81.08 59.96 C 80.52 60.79 79.94 61.60 79.35 62.41 C 77.99 65.48 77.40 68.83 77.25 72.18 C 69.30 70.17 60.58 70.24 53.31 74.38 C 49.02 77.09 45.44 80.83 42.93 85.24 C 40.36 91.04 39.11 97.72 41.23 103.87 C 42.31 108.02 45.00 111.41 47.14 115.04 C 42.99 119.64 40.84 126.04 42.70 132.14 C 39.13 135.00 35.57 138.17 33.70 142.44 C 30.75 148.48 31.23 155.78 33.89 161.83 C 36.30 166.12 39.85 169.69 44.13 172.14 C 48.23 173.83 52.61 174.84 57.05 175.02 C 57.27 178.02 58.18 180.91 59.28 183.69 C 61.99 188.06 66.47 191.05 71.50 192.04 C 70.92 197.59 70.85 203.40 68.73 208.63 C 67.94 207.58 67.18 206.50 66.46 205.41 C 64.45 201.87 62.38 198.35 59.76 195.22 C 59.23 197.49 58.55 199.73 58.22 202.04 C 58.64 203.66 59.40 205.15 60.08 206.67 C 63.50 215.71 64.62 225.65 63.53 235.23 C 61.29 245.45 58.09 255.46 54.46 265.27 C 46.80 259.45 40.94 251.62 34.92 244.20 C 30.97 238.72 27.25 233.06 23.98 227.15 C 2.89 189.13 0.72 141.47 18.01 101.61 C 19.98 97.19 22.07 92.82 24.47 88.62 C 28.10 82.03 32.35 75.80 36.90 69.82 C 49.07 54.29 64.53 41.42 81.84 31.98 C 84.12 30.80 86.41 29.64 88.72 28.51 Z" />
<path fill="#ffffff" opacity="1.00" d=" M 145.38 59.69 C 149.36 58.05 153.68 58.18 157.85 58.80 L 157.10 60.25 C 157.51 60.06 158.33 59.68 158.73 59.50 C 159.88 60.79 161.11 62.01 162.41 63.15 C 162.42 63.47 162.43 64.10 162.43 64.42 L 163.74 64.49 L 163.25 65.77 L 164.43 65.43 C 164.43 66.25 164.43 67.90 164.43 68.72 C 164.66 68.65 165.12 68.49 165.35 68.42 C 165.34 69.25 165.32 70.92 165.31 71.75 L 164.16 71.37 C 164.31 71.90 164.63 72.95 164.78 73.47 L 163.98 73.50 C 163.31 75.32 162.21 76.92 161.23 78.57 L 160.40 78.31 L 160.43 79.71 C 159.96 79.63 159.01 79.46 158.53 79.38 L 158.43 80.84 L 156.11 79.96 C 156.51 80.34 157.30 81.08 157.70 81.45 C 154.23 81.52 150.76 81.55 147.30 81.45 L 147.49 79.97 C 147.04 80.21 146.15 80.69 145.71 80.93 L 145.55 79.41 C 145.06 79.40 144.08 79.39 143.59 79.39 C 143.59 78.93 143.59 78.00 143.59 77.54 L 142.31 77.55 L 142.64 76.35 L 141.83 76.52 C 141.47 75.89 140.75 74.63 140.39 74.00 C 140.48 73.63 140.67 72.87 140.77 72.49 L 139.60 72.57 C 139.60 70.85 139.60 69.14 139.59 67.43 L 140.23 67.49 C 140.65 66.14 141.20 64.83 141.71 63.51 L 142.67 63.51 C 142.66 63.03 142.63 62.07 142.62 61.59 C 143.10 61.59 144.05 61.60 144.53 61.61 L 144.32 60.29 L 145.66 60.65 L 145.38 59.69 Z" />
<path fill="#ffffff" opacity="1.00" d=" M 78.45 86.00 C 81.49 86.00 84.53 86.00 87.57 86.00 C 89.76 87.54 91.22 89.55 90.76 92.37 C 90.18 92.40 89.04 92.45 88.46 92.47 C 88.06 91.04 87.31 89.77 86.46 88.56 C 84.17 88.61 81.87 88.62 79.57 88.57 C 78.92 89.61 77.69 90.51 77.99 91.91 C 77.99 96.28 77.98 100.64 78.00 105.01 C 77.70 106.44 78.85 107.39 79.58 108.43 C 81.88 108.38 84.17 108.38 86.46 108.44 C 87.32 107.23 88.06 105.95 88.46 104.52 C 89.04 104.55 90.18 104.60 90.76 104.63 C 91.22 107.44 89.77 109.47 87.57 111.00 C 84.53 111.00 81.49 111.00 78.44 111.00 C 77.48 110.10 76.45 109.27 75.55 108.31 C 75.18 102.20 75.45 96.05 75.41 89.93 C 75.19 87.99 77.44 87.28 78.45 86.00 Z" />
<path fill="#ffffff" opacity="1.00" d=" M 181.75 87.52 C 181.67 87.29 181.52 86.82 181.44 86.59 C 182.28 86.61 183.95 86.65 184.79 86.67 L 184.10 87.52 C 185.02 87.54 186.85 87.56 187.77 87.58 L 187.36 88.81 C 187.79 88.71 188.65 88.51 189.07 88.41 C 190.07 89.27 191.08 90.12 192.10 90.96 C 193.40 92.59 194.34 94.46 194.96 96.45 L 195.81 96.54 C 195.65 97.06 195.32 98.10 195.16 98.62 C 195.45 98.56 196.04 98.43 196.33 98.37 C 196.33 99.20 196.33 100.85 196.33 101.68 L 195.22 101.36 C 195.35 101.89 195.61 102.95 195.74 103.48 L 194.44 103.55 C 194.51 104.03 194.65 105.00 194.73 105.48 L 193.49 105.63 C 193.51 106.07 193.56 106.95 193.59 107.39 L 192.91 107.40 C 192.52 107.78 191.75 108.54 191.36 108.93 L 191.68 109.66 L 190.41 109.28 L 190.43 110.55 C 189.95 110.49 188.99 110.35 188.51 110.28 C 188.47 110.65 188.39 111.39 188.36 111.76 C 187.85 111.59 186.83 111.24 186.33 111.07 L 186.61 112.26 C 184.46 112.26 182.32 112.28 180.18 112.32 L 180.86 111.45 C 179.70 111.47 178.54 111.49 177.38 111.50 L 177.68 110.78 C 176.74 110.28 175.81 109.77 174.88 109.25 C 173.37 107.52 171.86 105.74 170.98 103.58 L 170.47 103.61 C 170.47 102.79 170.45 101.15 170.44 100.34 C 168.44 100.04 166.44 99.82 164.43 99.65 C 164.42 101.78 164.42 103.91 164.42 106.04 C 163.70 106.02 162.27 105.96 161.56 105.94 C 161.57 103.89 161.58 101.85 161.59 99.80 C 159.51 99.81 157.44 99.82 155.36 99.84 C 155.36 99.17 155.36 97.83 155.36 97.16 C 157.43 97.18 159.51 97.18 161.58 97.20 C 161.58 95.13 161.58 93.06 161.58 90.99 C 162.53 91.00 163.48 91.02 164.44 91.03 C 164.42 93.08 164.42 95.13 164.41 97.18 C 166.56 97.18 168.71 97.18 170.86 97.21 C 170.66 96.78 170.26 95.92 170.06 95.49 L 171.11 95.70 C 171.45 94.18 171.86 92.60 173.41 91.88 C 173.40 91.54 173.39 90.88 173.39 90.54 L 174.54 90.72 C 174.56 90.40 174.61 89.74 174.63 89.42 L 176.39 89.61 L 176.64 88.17 C 177.12 88.32 178.07 88.63 178.55 88.78 L 178.33 87.52 C 179.19 87.52 180.90 87.52 181.75 87.52 M 181.82 91.00 C 181.82 93.14 181.82 95.28 181.82 97.43 C 179.75 97.42 177.68 97.42 175.61 97.40 L 175.61 99.60 C 177.68 99.58 179.75 99.58 181.82 99.57 C 181.82 101.71 181.82 103.86 181.82 106.00 C 182.41 106.00 183.59 106.00 184.18 106.00 C 184.18 103.86 184.18 101.71 184.18 99.57 C 186.25 99.58 188.32 99.58 190.39 99.60 L 190.39 97.40 C 188.32 97.42 186.25 97.42 184.18 97.43 C 184.18 95.28 184.18 93.14 184.18 91.00 C 183.59 91.00 182.41 91.00 181.82 91.00 Z" />
<path fill="#ffffff" opacity="1.00" d=" M 96.60 93.38 C 100.21 93.39 103.83 93.41 107.45 93.36 C 108.47 94.47 109.53 95.54 110.64 96.55 C 110.58 101.37 110.62 106.19 110.61 111.00 C 106.56 111.00 102.50 111.00 98.45 111.00 C 97.49 110.12 96.48 109.29 95.58 108.35 C 95.23 106.43 95.41 104.45 95.36 102.51 C 96.52 101.59 97.66 100.65 98.71 99.59 C 101.97 99.58 105.22 99.62 108.48 99.49 C 107.83 98.27 107.12 97.10 106.34 95.96 C 103.08 96.01 99.82 96.01 96.55 95.98 C 96.56 95.33 96.59 94.03 96.60 93.38 M 99.56 102.44 C 99.12 102.92 98.22 103.88 97.77 104.36 C 97.89 105.92 98.57 107.27 99.56 108.45 C 102.37 108.37 105.19 108.38 108.00 108.39 C 108.00 106.39 108.00 104.40 108.00 102.42 C 105.18 102.42 102.37 102.41 99.56 102.44 Z" />
<path fill="#ffffff" opacity="1.00" d=" M 115.37 93.37 C 119.39 93.39 123.42 93.41 127.44 93.36 C 128.46 94.47 129.53 95.54 130.64 96.56 C 130.58 101.37 130.62 106.18 130.62 110.99 C 129.96 111.00 128.66 111.00 128.00 111.00 C 128.00 106.55 127.97 102.11 128.04 97.66 C 126.90 96.88 125.72 96.17 124.51 95.52 C 124.33 100.68 124.45 105.84 124.42 111.00 C 123.71 111.00 122.29 111.00 121.58 111.00 C 121.58 106.00 121.58 101.00 121.58 96.01 C 120.39 96.00 119.19 96.00 118.00 96.00 C 118.00 101.00 118.00 106.00 118.00 111.00 C 117.35 111.00 116.04 110.99 115.38 110.99 C 115.38 105.12 115.41 99.24 115.37 93.37 Z" />
<path fill="#ffffff" opacity="1.00" d=" M 135.37 93.37 C 139.39 93.39 143.42 93.41 147.44 93.36 C 148.46 94.47 149.52 95.54 150.64 96.56 C 150.49 100.46 150.84 104.40 150.46 108.29 C 149.55 109.26 148.52 110.10 147.56 111.00 C 144.37 111.00 141.19 111.00 138.00 111.00 C 138.00 113.14 138.00 115.28 138.00 117.42 C 137.35 117.42 136.04 117.42 135.39 117.43 C 135.37 109.41 135.41 101.39 135.37 93.37 M 138.00 96.00 C 138.00 100.13 138.00 104.26 138.00 108.39 C 140.81 108.38 143.61 108.37 146.42 108.44 C 149.26 105.68 147.57 101.41 148.00 97.92 C 147.35 97.28 146.71 96.63 146.07 96.00 C 143.38 96.00 140.69 96.00 138.00 96.00 Z" />
<path fill="#ffffff" opacity="1.00" d=" M 180.72 117.49 C 180.62 117.06 180.41 116.19 180.30 115.76 C 182.09 115.77 183.89 115.76 185.68 115.76 L 185.14 116.88 C 185.72 116.74 186.89 116.46 187.48 116.32 L 187.56 117.89 C 187.96 117.74 188.75 117.43 189.15 117.28 C 190.12 118.28 191.10 119.29 192.00 120.36 L 192.71 120.29 L 192.40 121.58 L 193.43 121.36 C 193.92 122.71 194.41 124.05 194.85 125.42 L 195.78 125.59 C 195.64 126.09 195.35 127.09 195.21 127.60 C 195.50 127.57 196.06 127.50 196.35 127.47 C 196.34 128.27 196.33 129.88 196.32 130.68 L 195.19 130.41 C 195.33 130.92 195.62 131.94 195.76 132.45 L 194.48 132.55 C 194.51 132.93 194.57 133.70 194.60 134.08 C 194.23 134.64 193.50 135.77 193.14 136.33 L 192.90 136.41 C 192.52 136.79 191.76 137.56 191.38 137.94 L 191.62 138.69 L 190.37 138.32 L 190.52 139.41 C 189.78 139.48 188.28 139.60 187.54 139.66 L 187.73 140.84 L 186.18 140.14 L 186.63 141.31 C 184.52 141.30 182.41 141.32 180.30 141.38 L 180.68 140.49 C 179.87 140.49 178.25 140.48 177.44 140.48 L 177.46 139.97 C 174.68 138.15 172.14 135.74 170.95 132.56 L 170.11 132.31 C 170.32 131.86 170.74 130.96 170.95 130.51 C 170.63 130.55 170.00 130.61 169.68 130.64 C 169.69 129.21 169.70 127.78 169.71 126.36 L 170.82 126.58 C 170.69 126.08 170.43 125.07 170.31 124.57 L 171.74 124.43 C 171.62 123.97 171.39 123.05 171.28 122.59 L 172.63 122.46 L 172.60 121.08 C 174.06 119.85 175.48 118.59 176.93 117.35 C 177.31 117.42 178.09 117.55 178.48 117.61 L 178.69 115.95 C 179.20 116.34 180.22 117.10 180.72 117.49 Z" />
<path fill="#ffffff" opacity="1.00" d=" M 116.88 118.73 C 116.74 118.23 116.45 117.23 116.31 116.73 C 119.79 116.62 123.36 116.16 126.80 116.88 C 127.09 117.31 127.68 118.16 127.97 118.59 C 128.34 118.51 129.07 118.35 129.44 118.27 L 129.46 119.58 C 129.95 119.59 130.93 119.61 131.42 119.62 C 131.39 120.09 131.34 121.05 131.31 121.52 L 132.70 121.59 C 132.60 122.06 132.42 123.00 132.32 123.46 L 133.47 123.36 C 133.43 126.74 133.43 130.13 133.44 133.51 L 132.78 133.62 C 131.92 134.90 131.02 136.16 130.16 137.44 L 129.27 137.30 L 129.43 138.62 C 128.92 138.53 127.91 138.36 127.41 138.27 L 127.44 139.59 C 126.92 139.48 125.90 139.24 125.38 139.13 C 125.44 139.44 125.54 140.08 125.59 140.40 C 123.17 140.39 120.75 140.40 118.32 140.43 L 118.56 139.11 C 118.07 139.27 117.08 139.61 116.59 139.77 L 116.45 138.34 C 115.97 138.45 115.02 138.65 114.54 138.75 L 114.58 137.44 C 114.09 137.42 113.12 137.36 112.64 137.33 C 112.63 136.89 112.61 136.02 112.60 135.58 L 111.81 135.49 C 111.29 134.57 110.76 133.66 110.24 132.75 C 109.90 131.54 109.58 130.34 109.29 129.13 L 108.61 129.80 C 108.59 129.14 108.55 127.84 108.53 127.18 L 109.23 127.82 C 109.64 126.17 110.14 124.55 110.66 122.93 C 111.10 122.31 111.55 121.69 111.99 121.07 C 112.70 120.23 113.40 119.38 114.07 118.51 C 114.45 118.57 115.21 118.70 115.59 118.76 L 115.15 117.12 L 116.88 118.73 Z" />
<path fill="#ffffff" opacity="1.00" d=" M 146.42 117.31 L 148.63 117.47 L 148.34 116.46 C 151.41 116.54 154.48 116.52 157.55 116.65 L 157.43 118.25 C 158.05 118.37 159.30 118.60 159.92 118.72 C 160.58 119.51 161.24 120.29 161.92 121.06 C 162.32 121.54 163.12 122.50 163.52 122.98 C 163.49 123.33 163.43 124.04 163.40 124.39 L 164.77 124.63 C 164.63 125.11 164.34 126.07 164.20 126.55 C 164.49 126.52 165.05 126.44 165.34 126.41 C 165.33 127.45 165.32 129.53 165.32 130.57 C 165.02 130.49 164.43 130.34 164.14 130.26 L 164.89 131.65 L 163.68 131.57 C 163.62 132.31 163.49 133.79 163.42 134.53 L 162.21 134.36 L 162.73 135.62 L 161.40 135.49 C 161.40 135.96 161.39 136.89 161.39 137.36 C 160.92 137.35 159.98 137.34 159.50 137.33 L 159.43 138.71 C 158.95 138.62 158.00 138.46 157.52 138.37 C 157.55 138.66 157.60 139.24 157.62 139.53 C 153.88 139.77 150.12 139.75 146.39 139.42 L 146.51 138.28 C 146.18 138.30 145.52 138.36 145.19 138.39 C 144.07 137.17 142.91 135.99 141.74 134.82 C 141.66 134.64 141.50 134.29 141.42 134.11 C 139.68 130.76 139.93 126.72 141.01 123.20 C 141.66 122.34 142.29 121.46 142.91 120.58 L 143.26 120.54 C 143.46 120.13 143.87 119.33 144.07 118.93 C 144.69 118.77 145.92 118.45 146.53 118.30 L 146.42 117.31 Z" />
<path fill="#ffffff" opacity="1.00" d=" M 228.81 162.34 C 231.37 163.84 233.96 165.28 236.57 166.68 C 230.77 177.34 228.88 189.43 226.46 201.16 C 222.69 192.33 220.45 182.85 219.79 173.28 C 223.88 170.68 227.06 166.86 228.81 162.34 Z" />
<path fill="#ffffff" opacity="1.00" d=" M 148.27 206.77 C 148.90 206.64 150.15 206.37 150.77 206.24 C 150.73 207.02 150.65 208.59 150.60 209.37 C 149.42 208.89 148.69 207.94 148.27 206.77 Z" />
<path fill="#ffffff" opacity="1.00" d=" M 120.39 258.47 C 120.46 242.57 120.33 226.66 120.64 210.76 C 139.97 210.70 159.30 210.77 178.63 210.72 C 178.96 226.63 178.57 242.56 178.61 258.47 C 159.21 258.48 139.80 258.49 120.39 258.47 M 145.76 214.68 C 145.86 220.49 142.02 225.48 142.03 231.33 C 141.41 230.40 140.18 228.54 139.56 227.62 C 139.18 230.27 139.20 233.22 137.54 235.50 C 135.46 238.59 133.10 241.90 133.59 245.86 C 136.14 249.20 140.51 249.76 144.18 251.20 C 140.68 251.39 137.17 251.21 133.69 251.59 C 135.86 252.85 138.39 252.28 140.77 252.30 C 140.69 252.68 140.53 253.46 140.45 253.84 C 142.59 253.76 144.74 253.66 146.89 253.58 C 146.83 254.27 146.72 255.66 146.67 256.36 C 148.88 256.42 151.70 257.14 151.84 254.00 C 153.10 254.71 154.37 255.40 155.67 256.06 C 155.34 255.32 154.69 253.85 154.37 253.12 C 157.58 253.18 160.77 253.59 163.97 253.92 C 162.95 253.31 160.93 252.10 159.91 251.49 C 163.04 251.29 166.27 252.00 169.32 251.02 C 167.20 250.55 165.02 250.58 162.88 250.49 C 167.30 247.17 168.18 241.41 168.51 236.27 C 167.28 237.19 166.05 238.13 164.82 239.06 C 163.27 235.33 162.26 231.42 161.09 227.56 C 160.05 228.27 158.98 228.92 157.88 229.54 C 157.49 225.07 156.55 220.58 154.12 216.75 C 153.27 219.50 151.89 222.04 149.82 224.06 C 149.82 220.42 148.48 217.12 145.76 214.68 Z" />
<path fill="#ffffff" opacity="1.00" d=" M 147.27 241.03 C 148.59 237.99 147.95 233.83 150.68 231.69 C 151.09 234.29 151.38 236.93 151.86 239.52 C 152.15 238.60 152.75 236.77 153.04 235.85 C 154.99 239.89 159.03 242.52 160.41 246.90 C 160.04 248.16 159.69 249.42 159.35 250.69 C 155.51 250.59 151.68 250.90 147.88 251.39 C 145.89 249.18 143.33 247.13 142.68 244.09 C 142.27 241.84 143.71 239.94 144.66 238.05 C 145.31 238.80 146.62 240.28 147.27 241.03 Z" />
</g>
<g id="#000000ff">
<path fill="#000000" opacity="1.00" d=" M 58.29 40.29 C 84.25 20.03 117.06 8.73 150.00 8.89 C 178.63 8.85 207.21 17.22 231.22 32.82 C 259.21 50.89 280.92 78.55 291.57 110.16 C 308.38 158.63 297.60 215.54 264.13 254.45 L 263.96 254.61 C 260.92 258.65 257.10 261.99 253.63 265.63 C 252.14 267.24 250.37 268.58 248.31 269.39 C 248.97 272.04 250.20 274.51 251.31 277.00 C 246.25 276.99 241.19 277.17 236.15 276.61 C 232.32 267.98 227.36 259.86 224.06 250.98 C 218.08 235.65 212.92 219.85 210.41 203.55 C 208.97 202.19 207.54 200.81 206.13 199.41 L 205.29 199.63 L 205.47 198.98 C 202.53 196.82 199.99 194.18 197.35 191.67 C 197.03 191.48 196.39 191.09 196.07 190.90 C 193.84 188.99 191.75 186.93 189.47 185.09 L 189.46 184.98 C 187.25 183.42 185.30 181.53 183.24 179.79 C 180.85 178.06 178.76 175.96 176.48 174.10 L 176.45 173.98 C 174.24 172.42 172.30 170.52 170.23 168.79 C 167.49 166.76 165.14 164.27 162.53 162.09 L 162.42 161.96 C 158.59 159.07 155.33 155.53 151.94 152.16 C 150.91 152.59 149.89 153.05 148.87 153.50 C 148.54 153.83 147.89 154.48 147.56 154.81 C 143.85 158.17 140.51 161.95 136.52 165.00 L 136.71 165.18 C 136.31 165.53 135.51 166.23 135.10 166.59 L 134.45 166.30 L 134.47 167.07 C 127.57 173.11 121.60 180.16 114.52 186.01 L 114.70 186.20 C 114.30 186.56 113.49 187.28 113.09 187.64 L 112.38 187.28 L 112.64 188.53 L 111.83 188.42 C 107.78 192.33 104.02 196.57 99.53 199.98 L 99.71 200.63 L 98.83 200.42 C 96.95 202.30 95.04 204.14 93.12 205.97 C 91.04 230.83 83.99 255.26 72.82 277.53 C 65.59 278.68 58.29 277.18 51.02 277.56 C 51.67 274.89 52.31 272.22 53.02 269.56 C 51.00 268.87 48.79 268.35 47.37 266.61 C 43.55 262.63 39.32 259.00 36.02 254.56 L 35.88 254.53 C 5.42 218.96 -6.39 168.59 4.63 123.13 C 12.44 90.49 31.75 60.80 58.29 40.29 M 88.72 28.51 C 86.41 29.64 84.12 30.80 81.84 31.98 C 64.53 41.42 49.07 54.29 36.90 69.82 C 32.35 75.80 28.10 82.03 24.47 88.62 C 22.07 92.82 19.98 97.19 18.01 101.61 C 0.72 141.47 2.89 189.13 23.98 227.15 C 27.25 233.06 30.97 238.72 34.92 244.20 C 40.94 251.62 46.80 259.45 54.46 265.27 C 58.09 255.46 61.29 245.45 63.53 235.23 C 64.62 225.65 63.50 215.71 60.08 206.67 C 59.40 205.15 58.64 203.66 58.22 202.04 C 58.55 199.73 59.23 197.49 59.76 195.22 C 62.38 198.35 64.45 201.87 66.46 205.41 C 67.18 206.50 67.94 207.58 68.73 208.63 C 70.85 203.40 70.92 197.59 71.50 192.04 C 66.47 191.05 61.99 188.06 59.28 183.69 C 58.18 180.91 57.27 178.02 57.05 175.02 C 52.61 174.84 48.23 173.83 44.13 172.14 C 39.85 169.69 36.30 166.12 33.89 161.83 C 31.23 155.78 30.75 148.48 33.70 142.44 C 35.57 138.17 39.13 135.00 42.70 132.14 C 40.84 126.04 42.99 119.64 47.14 115.04 C 45.00 111.41 42.31 108.02 41.23 103.87 C 39.11 97.72 40.36 91.04 42.93 85.24 C 45.44 80.83 49.02 77.09 53.31 74.38 C 60.58 70.24 69.30 70.17 77.25 72.18 C 77.40 68.83 77.99 65.48 79.35 62.41 C 79.94 61.60 80.52 60.79 81.08 59.96 C 86.62 53.76 96.21 53.51 102.96 57.83 C 106.23 52.60 110.88 48.29 116.29 45.35 C 123.67 41.95 131.78 40.00 139.92 40.20 C 152.51 40.50 165.63 45.48 173.07 56.09 C 176.59 61.77 176.61 68.65 174.83 74.91 C 178.59 74.85 182.33 75.18 186.06 75.59 C 186.81 73.51 187.59 71.45 188.40 69.39 C 190.77 65.27 193.76 61.42 197.94 59.01 C 206.20 53.74 217.18 53.55 225.88 57.88 C 231.15 60.95 235.50 65.69 237.61 71.47 C 240.22 77.90 239.29 85.03 237.80 91.60 C 243.93 91.38 250.23 94.01 253.32 99.51 C 255.38 102.99 254.98 107.14 255.03 111.01 C 259.32 112.31 263.39 114.30 266.97 117.03 C 270.11 119.60 272.49 122.93 274.60 126.36 C 279.99 136.83 278.11 150.45 269.67 158.73 C 263.74 165.35 254.64 168.02 245.99 168.20 C 245.68 169.03 245.36 169.87 245.04 170.70 C 244.29 172.37 243.60 174.05 242.90 175.74 C 233.05 204.47 236.41 236.12 246.23 264.39 C 250.95 261.50 254.27 256.97 257.93 252.93 C 260.51 250.17 262.75 247.13 265.11 244.18 C 282.35 220.75 292.84 192.12 293.41 162.94 C 294.25 143.83 290.87 124.60 284.05 106.73 C 283.36 105.07 282.69 103.40 282.02 101.74 C 280.02 97.28 277.96 92.84 275.53 88.59 C 272.69 83.48 269.46 78.60 266.09 73.81 C 255.77 59.68 242.87 47.55 228.23 37.97 C 223.39 34.96 218.48 32.05 213.35 29.55 C 174.83 10.33 127.57 9.99 88.72 28.51 M 145.38 59.69 L 145.66 60.65 L 144.32 60.29 L 144.53 61.61 C 144.05 61.60 143.10 61.59 142.62 61.59 C 142.63 62.07 142.66 63.03 142.67 63.51 L 141.71 63.51 C 141.20 64.83 140.65 66.14 140.23 67.49 L 139.59 67.43 C 139.60 69.14 139.60 70.85 139.60 72.57 L 140.77 72.49 C 140.67 72.87 140.48 73.63 140.39 74.00 C 140.75 74.63 141.47 75.89 141.83 76.52 L 142.64 76.35 L 142.31 77.55 L 143.59 77.54 C 143.59 78.00 143.59 78.93 143.59 79.39 C 144.08 79.39 145.06 79.40 145.55 79.41 L 145.71 80.93 C 146.15 80.69 147.04 80.21 147.49 79.97 L 147.30 81.45 C 150.76 81.55 154.23 81.52 157.70 81.45 C 157.30 81.08 156.51 80.34 156.11 79.96 L 158.43 80.84 L 158.53 79.38 C 159.01 79.46 159.96 79.63 160.43 79.71 L 160.40 78.31 L 161.23 78.57 C 162.21 76.92 163.31 75.32 163.98 73.50 L 164.78 73.47 C 164.63 72.95 164.31 71.90 164.16 71.37 L 165.31 71.75 C 165.32 70.92 165.34 69.25 165.35 68.42 C 165.12 68.49 164.66 68.65 164.43 68.72 C 164.43 67.90 164.43 66.25 164.43 65.43 L 163.25 65.77 L 163.74 64.49 L 162.43 64.42 C 162.43 64.10 162.42 63.47 162.41 63.15 C 161.11 62.01 159.88 60.79 158.73 59.50 C 158.33 59.68 157.51 60.06 157.10 60.25 L 157.85 58.80 C 153.68 58.18 149.36 58.05 145.38 59.69 M 78.45 86.00 C 77.44 87.28 75.19 87.99 75.41 89.93 C 75.45 96.05 75.18 102.20 75.55 108.31 C 76.45 109.27 77.48 110.10 78.44 111.00 C 81.49 111.00 84.53 111.00 87.57 111.00 C 89.77 109.47 91.22 107.44 90.76 104.63 C 90.18 104.60 89.04 104.55 88.46 104.52 C 88.06 105.95 87.32 107.23 86.46 108.44 C 84.17 108.38 81.88 108.38 79.58 108.43 C 78.85 107.39 77.70 106.44 78.00 105.01 C 77.98 100.64 77.99 96.28 77.99 91.91 C 77.69 90.51 78.92 89.61 79.57 88.57 C 81.87 88.62 84.17 88.61 86.46 88.56 C 87.31 89.77 88.06 91.04 88.46 92.47 C 89.04 92.45 90.18 92.40 90.76 92.37 C 91.22 89.55 89.76 87.54 87.57 86.00 C 84.53 86.00 81.49 86.00 78.45 86.00 M 181.75 87.52 C 180.90 87.52 179.19 87.52 178.33 87.52 L 178.55 88.78 C 178.07 88.63 177.12 88.32 176.64 88.17 L 176.39 89.61 L 174.63 89.42 C 174.61 89.74 174.56 90.40 174.54 90.72 L 173.39 90.54 C 173.39 90.88 173.40 91.54 173.41 91.88 C 171.86 92.60 171.45 94.18 171.11 95.70 L 170.06 95.49 C 170.26 95.92 170.66 96.78 170.86 97.21 C 168.71 97.18 166.56 97.18 164.41 97.18 C 164.42 95.13 164.42 93.08 164.44 91.03 C 163.48 91.02 162.53 91.00 161.58 90.99 C 161.58 93.06 161.58 95.13 161.58 97.20 C 159.51 97.18 157.43 97.18 155.36 97.16 C 155.36 97.83 155.36 99.17 155.36 99.84 C 157.44 99.82 159.51 99.81 161.59 99.80 C 161.58 101.85 161.57 103.89 161.56 105.94 C 162.27 105.96 163.70 106.02 164.42 106.04 C 164.42 103.91 164.42 101.78 164.43 99.65 C 166.44 99.82 168.44 100.04 170.44 100.34 C 170.45 101.15 170.47 102.79 170.47 103.61 L 170.98 103.58 C 171.86 105.74 173.37 107.52 174.88 109.25 C 175.81 109.77 176.74 110.28 177.68 110.78 L 177.38 111.50 C 178.54 111.49 179.70 111.47 180.86 111.45 L 180.18 112.32 C 182.32 112.28 184.46 112.26 186.61 112.26 L 186.33 111.07 C 186.83 111.24 187.85 111.59 188.36 111.76 C 188.39 111.39 188.47 110.65 188.51 110.28 C 188.99 110.35 189.95 110.49 190.43 110.55 L 190.41 109.28 L 191.68 109.66 L 191.36 108.93 C 191.75 108.54 192.52 107.78 192.91 107.40 L 193.59 107.39 C 193.56 106.95 193.51 106.07 193.49 105.63 L 194.73 105.48 C 194.65 105.00 194.51 104.03 194.44 103.55 L 195.74 103.48 C 195.61 102.95 195.35 101.89 195.22 101.36 L 196.33 101.68 C 196.33 100.85 196.33 99.20 196.33 98.37 C 196.04 98.43 195.45 98.56 195.16 98.62 C 195.32 98.10 195.65 97.06 195.81 96.54 L 194.96 96.45 C 194.34 94.46 193.40 92.59 192.10 90.96 C 191.08 90.12 190.07 89.27 189.07 88.41 C 188.65 88.51 187.79 88.71 187.36 88.81 L 187.77 87.58 C 186.85 87.56 185.02 87.54 184.10 87.52 L 184.79 86.67 C 183.95 86.65 182.28 86.61 181.44 86.59 C 181.52 86.82 181.67 87.29 181.75 87.52 M 96.60 93.38 C 96.59 94.03 96.56 95.33 96.55 95.98 C 99.82 96.01 103.08 96.01 106.34 95.96 C 107.12 97.10 107.83 98.27 108.48 99.49 C 105.22 99.62 101.97 99.58 98.71 99.59 C 97.66 100.65 96.52 101.59 95.36 102.51 C 95.41 104.45 95.23 106.43 95.58 108.35 C 96.48 109.29 97.49 110.12 98.45 111.00 C 102.50 111.00 106.56 111.00 110.61 111.00 C 110.62 106.19 110.58 101.37 110.64 96.55 C 109.53 95.54 108.47 94.47 107.45 93.36 C 103.83 93.41 100.21 93.39 96.60 93.38 M 115.37 93.37 C 115.41 99.24 115.38 105.12 115.38 110.99 C 116.04 110.99 117.35 111.00 118.00 111.00 C 118.00 106.00 118.00 101.00 118.00 96.00 C 119.19 96.00 120.39 96.00 121.58 96.01 C 121.58 101.00 121.58 106.00 121.58 111.00 C 122.29 111.00 123.71 111.00 124.42 111.00 C 124.45 105.84 124.33 100.68 124.51 95.52 C 125.72 96.17 126.90 96.88 128.04 97.66 C 127.97 102.11 128.00 106.55 128.00 111.00 C 128.66 111.00 129.96 111.00 130.62 110.99 C 130.62 106.18 130.58 101.37 130.64 96.56 C 129.53 95.54 128.46 94.47 127.44 93.36 C 123.42 93.41 119.39 93.39 115.37 93.37 M 135.37 93.37 C 135.41 101.39 135.37 109.41 135.39 117.43 C 136.04 117.42 137.35 117.42 138.00 117.42 C 138.00 115.28 138.00 113.14 138.00 111.00 C 141.19 111.00 144.37 111.00 147.56 111.00 C 148.52 110.10 149.55 109.26 150.46 108.29 C 150.84 104.40 150.49 100.46 150.64 96.56 C 149.52 95.54 148.46 94.47 147.44 93.36 C 143.42 93.41 139.39 93.39 135.37 93.37 M 180.72 117.49 C 180.22 117.10 179.20 116.34 178.69 115.95 L 178.48 117.61 C 178.09 117.55 177.31 117.42 176.93 117.35 C 175.48 118.59 174.06 119.85 172.60 121.08 L 172.63 122.46 L 171.28 122.59 C 171.39 123.05 171.62 123.97 171.74 124.43 L 170.31 124.57 C 170.43 125.07 170.69 126.08 170.82 126.58 L 169.71 126.36 C 169.70 127.78 169.69 129.21 169.68 130.64 C 170.00 130.61 170.63 130.55 170.95 130.51 C 170.74 130.96 170.32 131.86 170.11 132.31 L 170.95 132.56 C 172.14 135.74 174.68 138.15 177.46 139.97 L 177.44 140.48 C 178.25 140.48 179.87 140.49 180.68 140.49 L 180.30 141.38 C 182.41 141.32 184.52 141.30 186.63 141.31 L 186.18 140.14 L 187.73 140.84 L 187.54 139.66 C 188.28 139.60 189.78 139.48 190.52 139.41 L 190.37 138.32 L 191.62 138.69 L 191.38 137.94 C 191.76 137.56 192.52 136.79 192.90 136.41 L 193.14 136.33 C 193.50 135.77 194.23 134.64 194.60 134.08 C 194.57 133.70 194.51 132.93 194.48 132.55 L 195.76 132.45 C 195.62 131.94 195.33 130.92 195.19 130.41 L 196.32 130.68 C 196.33 129.88 196.34 128.27 196.35 127.47 C 196.06 127.50 195.50 127.57 195.21 127.60 C 195.35 127.09 195.64 126.09 195.78 125.59 L 194.85 125.42 C 194.41 124.05 193.92 122.71 193.43 121.36 L 192.40 121.58 L 192.71 120.29 L 192.00 120.36 C 191.10 119.29 190.12 118.28 189.15 117.28 C 188.75 117.43 187.96 117.74 187.56 117.89 L 187.48 116.32 C 186.89 116.46 185.72 116.74 185.14 116.88 L 185.68 115.76 C 183.89 115.76 182.09 115.77 180.30 115.76 C 180.41 116.19 180.62 117.06 180.72 117.49 M 116.88 118.73 L 115.15 117.12 L 115.59 118.76 C 115.21 118.70 114.45 118.57 114.07 118.51 C 113.40 119.38 112.70 120.23 111.99 121.07 C 111.55 121.69 111.10 122.31 110.66 122.93 C 110.14 124.55 109.64 126.17 109.23 127.82 L 108.53 127.18 C 108.55 127.84 108.59 129.14 108.61 129.80 L 109.29 129.13 C 109.58 130.34 109.90 131.54 110.24 132.75 C 110.76 133.66 111.29 134.57 111.81 135.49 L 112.60 135.58 C 112.61 136.02 112.63 136.89 112.64 137.33 C 113.12 137.36 114.09 137.42 114.58 137.44 L 114.54 138.75 C 115.02 138.65 115.97 138.45 116.45 138.34 L 116.59 139.77 C 117.08 139.61 118.07 139.27 118.56 139.11 L 118.32 140.43 C 120.75 140.40 123.17 140.39 125.59 140.40 C 125.54 140.08 125.44 139.44 125.38 139.13 C 125.90 139.24 126.92 139.48 127.44 139.59 L 127.41 138.27 C 127.91 138.36 128.92 138.53 129.43 138.62 L 129.27 137.30 L 130.16 137.44 C 131.02 136.16 131.92 134.90 132.78 133.62 L 133.44 133.51 C 133.43 130.13 133.43 126.74 133.47 123.36 L 132.32 123.46 C 132.42 123.00 132.60 122.06 132.70 121.59 L 131.31 121.52 C 131.34 121.05 131.39 120.09 131.42 119.62 C 130.93 119.61 129.95 119.59 129.46 119.58 L 129.44 118.27 C 129.07 118.35 128.34 118.51 127.97 118.59 C 127.68 118.16 127.09 117.31 126.80 116.88 C 123.36 116.16 119.79 116.62 116.31 116.73 C 116.45 117.23 116.74 118.23 116.88 118.73 M 146.42 117.31 L 146.53 118.30 C 145.92 118.45 144.69 118.77 144.07 118.93 C 143.87 119.33 143.46 120.13 143.26 120.54 L 142.91 120.58 C 142.29 121.46 141.66 122.34 141.01 123.20 C 139.93 126.72 139.68 130.76 141.42 134.11 C 141.50 134.29 141.66 134.64 141.74 134.82 C 142.91 135.99 144.07 137.17 145.19 138.39 C 145.52 138.36 146.18 138.30 146.51 138.28 L 146.39 139.42 C 150.12 139.75 153.88 139.77 157.62 139.53 C 157.60 139.24 157.55 138.66 157.52 138.37 C 158.00 138.46 158.95 138.62 159.43 138.71 L 159.50 137.33 C 159.98 137.34 160.92 137.35 161.39 137.36 C 161.39 136.89 161.40 135.96 161.40 135.49 L 162.73 135.62 L 162.21 134.36 L 163.42 134.53 C 163.49 133.79 163.62 132.31 163.68 131.57 L 164.89 131.65 L 164.14 130.26 C 164.43 130.34 165.02 130.49 165.32 130.57 C 165.32 129.53 165.33 127.45 165.34 126.41 C 165.05 126.44 164.49 126.52 164.20 126.55 C 164.34 126.07 164.63 125.11 164.77 124.63 L 163.40 124.39 C 163.43 124.04 163.49 123.33 163.52 122.98 C 163.12 122.50 162.32 121.54 161.92 121.06 C 161.24 120.29 160.58 119.51 159.92 118.72 C 159.30 118.60 158.05 118.37 157.43 118.25 L 157.55 116.65 C 154.48 116.52 151.41 116.54 148.34 116.46 L 148.63 117.47 L 146.42 117.31 M 228.81 162.34 C 227.06 166.86 223.88 170.68 219.79 173.28 C 220.45 182.85 222.69 192.33 226.46 201.16 C 228.88 189.43 230.77 177.34 236.57 166.68 C 233.96 165.28 231.37 163.84 228.81 162.34 Z" />
<path fill="#000000" opacity="1.00" d=" M 181.82 91.00 C 182.41 91.00 183.59 91.00 184.18 91.00 C 184.18 93.14 184.18 95.28 184.18 97.43 C 186.25 97.42 188.32 97.42 190.39 97.40 L 190.39 99.60 C 188.32 99.58 186.25 99.58 184.18 99.57 C 184.18 101.71 184.18 103.86 184.18 106.00 C 183.59 106.00 182.41 106.00 181.82 106.00 C 181.82 103.86 181.82 101.71 181.82 99.57 C 179.75 99.58 177.68 99.58 175.61 99.60 L 175.61 97.40 C 177.68 97.42 179.75 97.42 181.82 97.43 C 181.82 95.28 181.82 93.14 181.82 91.00 Z" />
<path fill="#000000" opacity="1.00" d=" M 138.00 96.00 C 140.69 96.00 143.38 96.00 146.07 96.00 C 146.71 96.63 147.35 97.28 148.00 97.92 C 147.57 101.41 149.26 105.68 146.42 108.44 C 143.61 108.37 140.81 108.38 138.00 108.39 C 138.00 104.26 138.00 100.13 138.00 96.00 Z" />
<path fill="#000000" opacity="1.00" d=" M 99.56 102.44 C 102.37 102.41 105.18 102.42 108.00 102.42 C 108.00 104.40 108.00 106.39 108.00 108.39 C 105.19 108.38 102.37 108.37 99.56 108.45 C 98.57 107.27 97.89 105.92 97.77 104.36 C 98.22 103.88 99.12 102.92 99.56 102.44 Z" />
<path fill="#000000" opacity="1.00" d=" M 115.57 213.02 C 115.52 209.37 117.55 204.26 121.93 204.48 C 140.58 204.46 159.24 204.42 177.89 204.50 C 182.12 204.41 184.22 209.32 184.15 212.95 C 184.01 230.05 183.65 247.15 183.62 264.26 C 160.94 264.23 138.25 264.22 115.57 264.26 C 115.30 247.18 115.69 230.10 115.57 213.02 M 148.27 206.77 C 148.69 207.94 149.42 208.89 150.60 209.37 C 150.65 208.59 150.73 207.02 150.77 206.24 C 150.15 206.37 148.90 206.64 148.27 206.77 M 120.39 258.47 C 139.80 258.49 159.21 258.48 178.61 258.47 C 178.57 242.56 178.96 226.63 178.63 210.72 C 159.30 210.77 139.97 210.70 120.64 210.76 C 120.33 226.66 120.46 242.57 120.39 258.47 Z" />
<path fill="#000000" opacity="1.00" d=" M 145.76 214.68 C 148.48 217.12 149.82 220.42 149.82 224.06 C 151.89 222.04 153.27 219.50 154.12 216.75 C 156.55 220.58 157.49 225.07 157.88 229.54 C 158.98 228.92 160.05 228.27 161.09 227.56 C 162.26 231.42 163.27 235.33 164.82 239.06 C 166.05 238.13 167.28 237.19 168.51 236.27 C 168.18 241.41 167.30 247.17 162.88 250.49 C 165.02 250.58 167.20 250.55 169.32 251.02 C 166.27 252.00 163.04 251.29 159.91 251.49 C 160.93 252.10 162.95 253.31 163.97 253.92 C 160.77 253.59 157.58 253.18 154.37 253.12 C 154.69 253.85 155.34 255.32 155.67 256.06 C 154.37 255.40 153.10 254.71 151.84 254.00 C 151.70 257.14 148.88 256.42 146.67 256.36 C 146.72 255.66 146.83 254.27 146.89 253.58 C 144.74 253.66 142.59 253.76 140.45 253.84 C 140.53 253.46 140.69 252.68 140.77 252.30 C 138.39 252.28 135.86 252.85 133.69 251.59 C 137.17 251.21 140.68 251.39 144.18 251.20 C 140.51 249.76 136.14 249.20 133.59 245.86 C 133.10 241.90 135.46 238.59 137.54 235.50 C 139.20 233.22 139.18 230.27 139.56 227.62 C 140.18 228.54 141.41 230.40 142.03 231.33 C 142.02 225.48 145.86 220.49 145.76 214.68 M 147.27 241.03 C 146.62 240.28 145.31 238.80 144.66 238.05 C 143.71 239.94 142.27 241.84 142.68 244.09 C 143.33 247.13 145.89 249.18 147.88 251.39 C 151.68 250.90 155.51 250.59 159.35 250.69 C 159.69 249.42 160.04 248.16 160.41 246.90 C 159.03 242.52 154.99 239.89 153.04 235.85 C 152.75 236.77 152.15 238.60 151.86 239.52 C 151.38 236.93 151.09 234.29 150.68 231.69 C 147.95 233.83 148.59 237.99 147.27 241.03 Z" />
<path fill="#000000" opacity="1.00" d=" M 101.30 268.39 C 133.42 268.33 165.55 268.38 197.67 268.38 C 197.27 270.89 198.70 274.44 196.18 276.10 C 192.69 277.64 188.78 277.61 185.04 277.70 C 160.69 277.67 136.34 277.70 111.99 277.68 C 108.91 277.57 105.63 277.49 102.88 275.96 C 100.25 274.37 101.64 270.89 101.30 268.39 Z" />
</g>
</svg>
